{"glyphs":{"0":{"ha":806,"x_min":38,"x_max":767,"o":"m 767 500 q 739 273 767 369 q 662 114 711 177 q 546 20 613 51 q 402 -10 479 -10 q 258 20 325 -10 q 143 114 192 51 q 66 273 94 177 q 38 500 38 369 q 66 727 38 631 q 143 886 94 824 q 258 980 192 949 q 402 1011 325 1011 q 546 980 479 1011 q 662 886 613 949 q 739 727 711 824 q 767 500 767 631 m 613 500 q 595 685 613 611 q 549 803 578 759 q 481 867 519 848 q 402 885 443 885 q 323 867 360 885 q 256 803 285 848 q 209 685 226 759 q 192 500 192 611 q 209 315 192 389 q 256 197 226 241 q 323 133 285 152 q 402 115 360 115 q 481 133 443 115 q 549 197 519 152 q 595 315 578 241 q 613 500 613 389 z "},"1":{"ha":806,"x_min":102,"x_max":713,"o":"m 713 113 l 713 0 l 168 0 l 168 113 l 376 113 l 376 740 q 378 808 376 773 l 218 672 q 197 661 208 664 q 177 661 186 659 q 160 668 167 663 q 149 678 153 672 l 102 743 l 403 1002 l 525 1002 l 525 113 l 713 113 z "},"2":{"ha":806,"x_min":59,"x_max":735,"o":"m 683 141 q 722 127 708 141 q 735 90 735 113 l 735 0 l 59 0 l 59 51 q 65 83 59 66 q 85 113 72 99 l 397 425 q 467 501 436 465 q 520 573 498 537 q 553 646 542 609 q 565 724 565 683 q 552 794 565 764 q 519 844 540 824 q 468 874 498 864 q 403 884 439 884 q 341 874 369 884 q 289 847 312 865 q 252 806 267 830 q 230 753 237 782 q 203 715 219 725 q 156 711 187 706 l 77 725 q 116 849 88 796 q 189 939 145 903 q 289 993 233 974 q 412 1011 346 1011 q 534 991 478 1011 q 631 935 590 972 q 694 847 672 899 q 717 729 717 794 q 701 626 717 674 q 657 536 685 579 q 592 452 629 493 q 514 370 555 412 l 272 123 q 332 136 302 131 q 390 141 363 141 l 683 141 z "},"3":{"ha":806,"x_min":53,"x_max":735,"o":"m 82 725 q 121 849 92 796 q 194 939 150 903 q 294 993 238 974 q 417 1011 351 1011 q 538 992 483 1011 q 632 939 592 973 q 692 858 671 905 q 713 754 713 810 q 702 670 713 706 q 669 606 690 633 q 617 559 648 578 q 549 528 587 540 q 688 441 642 501 q 735 292 735 382 q 708 164 735 220 q 634 69 681 108 q 527 9 588 30 q 397 -11 465 -11 q 263 7 319 -11 q 166 60 207 26 q 99 143 126 94 q 53 252 72 192 l 117 279 q 166 285 143 290 q 200 260 190 281 q 225 212 211 238 q 261 166 239 187 q 315 130 283 144 q 394 116 347 116 q 478 132 442 116 q 538 172 514 147 q 574 227 562 197 q 585 288 585 258 q 576 357 585 325 q 541 410 567 388 q 468 445 515 433 q 343 458 420 458 l 343 566 q 450 579 406 567 q 519 612 493 591 q 557 663 545 633 q 568 728 568 693 q 556 796 568 767 q 523 845 544 825 q 473 874 502 865 q 408 884 444 884 q 345 874 374 884 q 294 847 317 865 q 256 806 272 830 q 234 753 241 782 q 208 715 224 725 q 160 711 192 706 l 82 725 z "},"4":{"ha":806,"x_min":10,"x_max":769,"o":"m 501 369 l 501 735 q 507 831 501 778 l 171 369 l 501 369 m 769 369 l 769 283 q 761 262 769 271 q 737 253 753 253 l 631 253 l 631 0 l 501 0 l 501 253 l 68 253 q 41 262 52 253 q 26 285 29 272 l 10 362 l 490 1001 l 631 1001 l 631 369 l 769 369 z "},"5":{"ha":806,"x_min":69,"x_max":721,"o":"m 267 631 q 336 642 303 638 q 400 645 369 645 q 539 622 478 645 q 639 558 599 599 q 700 461 680 517 q 721 342 721 406 q 693 197 721 262 q 616 85 665 131 q 500 14 567 39 q 355 -11 433 -11 q 268 -2 309 -11 q 190 23 226 7 q 124 59 154 38 q 69 101 93 79 l 115 165 q 153 186 129 186 q 187 175 169 186 q 229 151 205 164 q 285 127 253 138 q 363 116 318 116 q 451 132 413 116 q 517 177 490 148 q 558 246 544 206 q 572 334 572 286 q 559 413 572 378 q 520 472 546 447 q 457 509 495 496 q 369 522 419 522 q 293 515 332 522 q 215 496 255 509 l 122 522 l 204 1000 l 688 1000 l 688 935 q 668 883 688 903 q 601 863 648 863 l 308 863 l 267 631 z "},"6":{"ha":806,"x_min":66,"x_max":753,"o":"m 401 113 q 484 127 447 113 q 548 169 522 142 q 590 231 575 195 q 604 310 604 267 q 590 392 604 356 q 550 453 576 428 q 487 492 524 478 q 407 506 451 506 q 325 490 362 506 q 263 449 289 475 q 224 387 238 422 q 210 312 210 351 q 222 231 210 267 q 259 168 235 194 q 319 127 283 142 q 401 113 355 113 m 347 632 q 325 606 335 618 q 306 581 315 593 q 376 609 338 599 q 458 619 414 619 q 569 600 516 619 q 664 543 623 581 q 728 450 704 506 q 753 321 753 394 q 727 191 753 251 q 656 86 702 131 q 546 15 610 41 q 404 -11 482 -11 q 264 14 326 -11 q 157 84 201 39 q 90 194 113 130 q 66 336 66 258 q 95 478 66 404 q 185 635 124 553 l 431 965 q 464 990 442 979 q 511 1000 485 1000 l 643 1000 l 347 632 z "},"7":{"ha":806,"x_min":69,"x_max":755,"o":"m 755 1000 l 755 934 q 749 887 755 905 q 736 856 742 869 l 341 52 q 311 15 331 30 q 261 0 292 0 l 153 0 l 556 791 q 578 830 567 813 q 603 863 590 847 l 104 863 q 80 874 90 863 q 69 899 69 885 l 69 1000 l 755 1000 z "},"8":{"ha":806,"x_min":60,"x_max":745,"o":"m 403 107 q 483 120 448 107 q 543 156 519 133 q 579 211 567 179 q 592 281 592 243 q 577 360 592 326 q 538 415 563 393 q 478 448 513 437 q 403 458 443 458 q 328 448 363 458 q 268 415 293 437 q 228 360 242 393 q 214 281 214 326 q 226 211 214 243 q 263 156 239 179 q 322 120 287 133 q 403 107 358 107 m 403 897 q 331 884 362 897 q 280 851 300 872 q 250 802 260 830 q 240 742 240 774 q 248 681 240 711 q 276 628 257 651 q 326 591 295 605 q 403 577 358 577 q 479 591 448 577 q 530 628 510 605 q 557 681 549 651 q 566 742 566 711 q 556 802 566 774 q 525 851 546 830 q 474 884 505 872 q 403 897 444 897 m 560 522 q 699 431 653 493 q 745 278 745 369 q 720 158 745 212 q 650 67 695 105 q 542 9 605 30 q 403 -11 479 -11 q 264 9 326 -11 q 156 67 201 30 q 85 158 110 105 q 60 278 60 212 q 107 431 60 369 q 245 522 153 493 q 132 608 170 551 q 94 745 94 665 q 117 850 94 801 q 180 934 139 899 q 277 991 220 970 q 403 1011 334 1011 q 528 991 472 1011 q 625 934 585 970 q 689 850 666 899 q 711 745 711 801 q 673 608 711 665 q 560 522 635 551 z "},"9":{"ha":806,"x_min":65,"x_max":727,"o":"m 214 703 q 261 566 214 614 q 394 519 309 519 q 475 533 440 519 q 535 573 510 548 q 572 630 559 597 q 584 701 584 663 q 570 779 584 744 q 532 838 557 813 q 474 875 508 862 q 399 888 440 888 q 323 874 357 888 q 265 835 289 860 q 227 777 240 810 q 214 703 214 743 m 470 392 q 496 425 484 410 q 518 457 508 441 q 438 418 482 431 q 343 404 393 404 q 239 423 289 404 q 150 477 189 441 q 88 568 111 514 q 65 692 65 622 q 89 816 65 758 q 158 918 114 874 q 265 986 203 961 q 401 1011 326 1011 q 536 987 476 1011 q 639 920 597 963 q 704 816 681 876 q 727 684 727 756 q 719 599 727 639 q 696 520 711 558 q 660 446 681 483 q 613 372 639 410 l 377 35 q 346 10 367 19 q 300 0 326 0 l 163 0 l 470 392 z "},"\u0000":{"ha":0,"x_min":0,"x_max":0,"o":""}," ":{"ha":346,"x_min":0,"x_max":0,"o":""},"A":{"ha":953,"x_min":-2,"x_max":956,"o":"m 648 375 l 510 740 q 476 848 494 783 q 460 788 469 815 q 443 740 451 760 l 306 375 l 648 375 m 956 0 l 830 0 q 795 11 808 0 q 775 38 782 22 l 692 258 l 261 258 l 178 38 q 158 12 172 24 q 124 0 144 0 l -2 0 l 394 1000 l 559 1000 l 956 0 z "},"Ą":{"ha":952,"x_min":-3,"x_max":997,"o":"m 647 375 l 510 740 q 476 848 493 783 q 459 788 468 815 q 442 740 450 760 l 305 375 l 647 375 m 997 -203 q 941 -228 974 -219 q 871 -238 908 -238 q 770 -210 806 -238 q 734 -137 734 -183 q 760 -63 734 -98 q 831 0 786 -28 l 829 0 q 794 11 808 0 q 774 38 781 22 l 691 258 l 260 258 l 177 38 q 158 12 172 24 q 123 0 144 0 l -3 0 l 394 1000 l 558 1000 l 955 0 l 923 0 q 895 -18 909 -8 q 871 -41 882 -28 q 853 -68 860 -53 q 846 -100 846 -83 q 861 -136 846 -123 q 902 -150 876 -150 q 926 -148 917 -150 q 941 -144 935 -146 q 951 -140 947 -142 q 959 -137 956 -137 q 974 -147 970 -137 l 997 -203 z "},"Æ":{"ha":1294,"x_min":-10,"x_max":1237,"o":"m 644 375 l 583 878 q 539 765 561 813 l 344 375 l 644 375 m 1237 131 l 1236 0 l 691 0 l 659 258 l 285 258 l 175 38 q 152 10 167 20 q 114 0 136 0 l -10 0 l 508 1000 l 1236 1000 l 1236 869 l 736 869 l 774 567 l 1144 567 l 1144 440 l 790 440 l 828 131 l 1237 131 z "},"B":{"ha":907,"x_min":119,"x_max":843,"o":"m 483 128 q 575 141 538 128 q 637 176 613 154 q 672 229 661 199 q 683 294 683 259 q 634 405 683 365 q 482 446 586 446 l 281 446 l 281 128 l 483 128 m 281 873 l 281 560 l 444 560 q 599 601 548 560 q 651 717 651 641 q 602 836 651 799 q 451 873 554 873 l 281 873 m 451 1000 q 615 982 547 1000 q 727 929 683 963 q 791 846 771 895 q 812 736 812 797 q 801 668 812 701 q 768 606 790 635 q 711 554 745 577 q 631 516 677 531 q 843 290 843 471 q 819 173 843 226 q 750 82 795 120 q 638 22 704 43 q 485 0 571 0 l 119 0 l 119 1000 l 451 1000 z "},"C":{"ha":923,"x_min":59,"x_max":901,"o":"m 813 223 q 836 213 826 223 l 901 142 q 751 29 840 69 q 538 -11 662 -11 q 340 27 428 -11 q 189 132 251 65 q 93 294 126 200 q 59 500 59 388 q 95 707 59 613 q 195 868 131 801 q 351 974 260 936 q 551 1011 442 1011 q 742 976 659 1011 q 886 883 825 941 l 833 807 q 819 794 827 799 q 799 788 812 788 q 767 801 785 788 q 722 830 749 814 q 653 858 694 845 q 550 871 612 871 q 419 846 478 871 q 316 773 359 821 q 249 656 273 725 q 225 500 225 588 q 250 343 225 412 q 319 226 275 274 q 422 153 363 178 q 549 128 481 128 q 623 133 590 128 q 684 148 656 138 q 736 173 712 158 q 785 210 761 188 q 813 223 799 223 z "},"Ç":{"ha":923,"x_min":59,"x_max":901,"o":"m 901 142 q 766 36 844 75 q 579 -10 688 -3 l 569 -47 q 661 -86 634 -60 q 689 -149 689 -111 q 677 -190 689 -172 q 644 -221 665 -208 q 593 -241 623 -234 q 528 -248 564 -248 q 475 -243 500 -248 q 426 -229 449 -238 l 440 -183 q 458 -168 444 -168 q 468 -170 463 -168 q 481 -175 474 -172 q 498 -179 488 -177 q 519 -181 507 -181 q 559 -171 546 -181 q 572 -147 572 -161 q 544 -114 572 -123 q 465 -97 517 -104 l 494 -10 q 314 39 394 -2 q 177 146 233 79 q 90 303 120 213 q 59 500 59 394 q 95 707 59 613 q 195 868 131 801 q 351 974 260 936 q 551 1011 442 1011 q 742 976 659 1011 q 886 883 825 941 l 833 807 q 819 794 827 799 q 799 788 812 788 q 767 801 785 788 q 722 830 749 814 q 653 858 694 845 q 550 871 612 871 q 419 846 478 871 q 316 773 359 821 q 249 656 273 725 q 225 500 225 588 q 250 343 225 412 q 319 226 275 274 q 422 153 363 178 q 549 128 481 128 q 623 133 590 128 q 684 148 656 138 q 736 173 712 158 q 785 210 761 188 q 813 223 799 223 q 836 213 826 223 l 901 142 z "},"D":{"ha":1056,"x_min":119,"x_max":997,"o":"m 997 500 q 960 297 997 389 q 859 139 924 205 q 701 36 793 73 q 497 0 609 0 l 119 0 l 119 1000 l 497 1000 q 701 964 609 1000 q 859 861 793 927 q 960 703 924 795 q 997 500 997 611 m 831 500 q 807 655 831 586 q 741 771 784 724 q 635 843 697 818 q 497 869 574 869 l 282 869 l 282 131 l 497 131 q 635 156 574 131 q 741 229 697 181 q 807 345 784 276 q 831 500 831 413 z "},"Ð":{"ha":1069,"x_min":1,"x_max":1009,"o":"m 509 131 q 648 156 586 131 q 753 229 710 181 q 820 345 797 276 q 843 500 843 413 q 820 655 843 586 q 753 771 797 724 q 648 843 710 818 q 509 869 586 869 l 294 869 l 294 551 l 487 551 l 487 457 l 294 457 l 294 131 l 509 131 m 509 1000 q 714 964 622 1000 q 871 861 806 927 q 973 703 937 795 q 1009 500 1009 611 q 973 297 1009 389 q 871 139 937 205 q 714 36 806 73 q 509 0 622 0 l 131 0 l 131 457 l 1 457 l 1 551 l 131 551 l 131 1000 l 509 1000 z "},"E":{"ha":800,"x_min":119,"x_max":743,"o":"m 743 131 l 742 0 l 119 0 l 119 1000 l 742 1000 l 742 869 l 282 869 l 282 567 l 650 567 l 650 440 l 282 440 l 282 131 l 743 131 z "},"Ę":{"ha":800,"x_min":119,"x_max":753,"o":"m 753 -203 q 698 -228 731 -219 q 627 -238 665 -238 q 526 -210 562 -238 q 490 -137 490 -183 q 516 -63 490 -98 q 588 0 542 -28 l 119 0 l 119 1000 l 742 1000 l 742 869 l 282 869 l 282 567 l 650 567 l 650 440 l 282 440 l 282 131 l 743 131 l 742 0 l 679 0 q 652 -18 665 -8 q 627 -41 638 -28 q 609 -68 616 -53 q 602 -100 602 -83 q 617 -136 602 -123 q 658 -150 632 -150 q 682 -148 673 -150 q 697 -144 691 -146 q 708 -140 703 -142 q 715 -137 712 -137 q 730 -147 726 -137 l 753 -203 z "},"F":{"ha":785,"x_min":119,"x_max":742,"o":"m 282 869 l 282 549 l 673 549 l 673 417 l 282 417 l 282 0 l 119 0 l 119 1000 l 742 1000 l 742 869 l 282 869 z "},"G":{"ha":1011,"x_min":58,"x_max":938,"o":"m 938 492 l 938 97 q 590 -11 788 -11 q 370 27 469 -11 q 203 132 272 65 q 96 294 133 200 q 58 500 58 388 q 94 707 58 613 q 198 869 131 801 q 360 974 265 937 q 574 1011 456 1011 q 686 1002 635 1011 q 783 976 738 992 q 865 935 827 959 q 933 883 902 912 l 887 808 q 858 787 876 791 q 821 795 841 783 q 778 820 801 807 q 726 845 756 833 q 659 864 697 856 q 569 871 621 871 q 426 845 490 871 q 317 770 363 819 q 248 653 272 722 q 224 500 224 585 q 249 340 224 410 q 322 220 275 269 q 436 146 369 172 q 586 120 503 120 q 696 133 648 120 q 791 170 744 147 l 791 369 l 651 369 q 626 377 635 369 q 617 400 617 386 l 617 492 l 938 492 z "},"H":{"ha":1066,"x_min":119,"x_max":947,"o":"m 947 1000 l 947 0 l 784 0 l 784 445 l 282 445 l 282 0 l 119 0 l 119 1000 l 282 1000 l 282 563 l 784 563 l 784 1000 l 947 1000 z "},"Ħ":{"ha":1078,"x_min":16,"x_max":1062,"o":"m 790 720 l 288 720 l 288 563 l 790 563 l 790 720 m 1062 720 l 953 720 l 953 0 l 790 0 l 790 445 l 288 445 l 288 0 l 125 0 l 125 720 l 16 720 l 16 816 l 125 816 l 125 1000 l 288 1000 l 288 816 l 790 816 l 790 1000 l 953 1000 l 953 816 l 1062 816 l 1062 720 z "},"I":{"ha":401,"x_min":119,"x_max":282,"o":"m 282 0 l 119 0 l 119 1000 l 282 1000 l 282 0 z "},"Į":{"ha":401,"x_min":69,"x_max":332,"o":"m 332 -203 q 277 -228 310 -219 q 206 -238 244 -238 q 105 -210 141 -238 q 69 -137 69 -183 q 95 -63 69 -98 q 167 0 122 -28 l 119 0 l 119 1000 l 283 1000 l 283 0 l 258 0 q 231 -18 244 -8 q 206 -41 217 -28 q 188 -68 195 -53 q 181 -100 181 -83 q 196 -136 181 -123 q 238 -150 211 -150 q 261 -148 252 -150 q 276 -144 270 -146 q 287 -140 283 -142 q 294 -137 291 -137 q 309 -147 306 -137 l 332 -203 z "},"J":{"ha":592,"x_min":16,"x_max":483,"o":"m 483 351 q 462 200 483 267 q 401 86 442 133 q 300 14 360 40 q 161 -11 240 -11 q 90 -7 125 -11 q 16 8 54 -2 l 24 105 q 35 127 26 119 q 60 135 44 135 q 93 130 73 135 q 144 125 113 125 q 220 138 187 125 q 275 177 253 150 q 309 245 298 203 q 321 347 321 288 l 321 1000 l 483 1000 l 483 351 z "},"K":{"ha":937,"x_min":119,"x_max":944,"o":"m 281 572 l 328 572 q 371 580 354 572 q 401 603 388 587 l 703 964 q 736 992 719 984 q 779 1000 753 1000 l 918 1000 l 560 578 q 532 548 546 560 q 503 528 519 535 q 540 507 524 520 q 573 471 557 493 l 944 0 l 802 0 q 776 2 787 0 q 757 8 765 4 q 743 19 749 13 q 733 33 738 25 l 420 415 q 406 430 413 424 q 390 440 399 436 q 369 446 381 444 q 341 448 357 448 l 281 448 l 281 0 l 119 0 l 119 1000 l 281 1000 l 281 572 z "},"L":{"ha":717,"x_min":119,"x_max":697,"o":"m 697 136 l 697 0 l 119 0 l 119 1000 l 281 1000 l 281 136 l 697 136 z "},"Ł":{"ha":739,"x_min":13,"x_max":717,"o":"m 717 136 l 717 0 l 140 0 l 140 374 l 13 310 l 13 423 q 32 453 13 445 l 140 510 l 140 1000 l 302 1000 l 302 584 l 560 714 l 560 603 q 538 569 560 578 l 302 447 l 302 136 l 717 136 z "},"Ľ":{"ha":717,"x_min":119,"x_max":697,"o":"m 697 136 l 697 0 l 119 0 l 119 1000 l 281 1000 l 281 136 l 697 136 m 538 1029 q 560 1021 556 1029 q 564 1005 564 1013 q 561 987 564 999 q 552 956 559 976 q 533 903 545 935 q 502 823 522 871 q 482 800 494 806 q 449 795 469 795 l 397 795 l 438 1029 l 538 1029 z "},"M":{"ha":1301,"x_min":119,"x_max":1183,"o":"m 1183 1000 l 1183 0 l 1040 0 l 1040 685 q 1041 722 1040 702 q 1044 762 1042 742 l 722 168 q 665 131 703 131 l 642 131 q 584 168 602 131 l 258 763 q 261 723 260 743 q 262 685 262 703 l 262 0 l 119 0 l 119 1000 l 240 1000 q 274 996 262 1000 q 295 973 285 992 l 616 392 q 636 350 626 372 q 653 307 645 329 q 670 351 661 329 q 690 393 680 373 l 1006 973 q 1028 996 1016 992 q 1061 1000 1040 1000 l 1183 1000 z "},"N":{"ha":1066,"x_min":119,"x_max":947,"o":"m 947 1000 l 947 0 l 864 0 q 832 7 845 0 q 807 28 819 13 l 258 734 q 261 694 260 714 q 262 658 262 674 l 262 0 l 119 0 l 119 1000 l 203 1000 q 221 999 214 1000 q 235 995 228 998 q 247 987 241 992 q 258 973 252 981 l 808 267 q 805 309 806 288 q 804 348 804 330 l 804 1000 l 947 1000 z "},"Ŋ":{"ha":1066,"x_min":119,"x_max":947,"o":"m 947 1000 l 947 17 q 933 -90 947 -41 q 891 -174 919 -139 q 816 -228 862 -209 q 706 -248 771 -248 q 643 -242 671 -248 q 582 -222 615 -235 l 599 -156 q 612 -133 603 -138 q 632 -127 621 -127 q 655 -132 642 -127 q 692 -136 668 -136 q 803 0 803 -136 l 803 33 l 258 734 q 261 694 260 714 q 262 658 262 674 l 262 0 l 119 0 l 119 1000 l 203 1000 q 221 999 214 1000 q 235 995 228 998 q 247 987 241 992 q 258 973 252 981 l 808 267 q 805 309 806 288 q 804 348 804 330 l 804 1000 l 947 1000 z "},"O":{"ha":1117,"x_min":58,"x_max":1058,"o":"m 1058 500 q 1022 295 1058 389 q 920 134 986 201 q 763 28 855 66 q 558 -10 671 -10 q 355 28 447 -10 q 197 134 263 66 q 94 295 131 201 q 58 500 58 389 q 94 705 58 611 q 197 867 131 799 q 355 973 263 935 q 558 1011 447 1011 q 763 973 671 1011 q 920 867 855 935 q 1022 705 986 799 q 1058 500 1058 611 m 892 500 q 869 655 892 586 q 802 772 846 724 q 697 845 759 819 q 558 871 635 871 q 420 845 482 871 q 315 772 358 819 q 247 655 271 724 q 224 500 224 586 q 247 344 224 413 q 315 228 271 276 q 420 155 358 181 q 558 130 482 130 q 697 155 635 130 q 802 228 759 181 q 869 344 846 276 q 892 500 892 413 z "},"Ø":{"ha":1117,"x_min":58,"x_max":1058,"o":"m 391 169 q 558 130 463 130 q 697 155 635 130 q 802 228 759 181 q 869 344 846 276 q 892 500 892 413 q 873 643 892 579 q 817 753 854 706 l 391 169 m 744 821 q 659 858 706 845 q 558 871 613 871 q 420 845 482 871 q 315 772 358 819 q 247 655 271 724 q 224 500 224 586 q 247 345 224 413 q 313 230 269 278 l 744 821 m 908 878 q 1019 713 980 809 q 1058 500 1058 617 q 1022 295 1058 389 q 920 134 986 201 q 763 28 855 66 q 558 -10 671 -10 q 423 6 487 -10 q 305 51 359 22 l 244 -32 q 202 -66 226 -56 q 154 -76 178 -76 l 90 -76 l 224 108 q 102 277 145 176 q 58 500 58 377 q 94 705 58 611 q 197 867 131 799 q 355 973 263 935 q 558 1011 447 1011 q 705 992 637 1011 q 831 938 774 974 l 879 1005 q 894 1024 888 1016 q 908 1036 901 1031 q 925 1043 915 1041 q 947 1046 934 1046 l 1031 1046 l 908 878 z "},"Œ":{"ha":1508,"x_min":60,"x_max":1451,"o":"m 527 126 q 651 152 596 126 q 746 226 707 178 q 806 344 785 274 q 826 500 826 413 q 806 656 826 586 q 746 774 785 726 q 651 849 707 823 q 527 876 596 876 q 402 849 458 876 q 307 774 346 823 q 247 656 268 726 q 226 500 226 586 q 247 344 226 413 q 307 226 268 274 q 402 152 346 178 q 527 126 458 126 m 1451 131 l 1450 0 l 846 0 l 846 145 q 702 31 787 72 q 510 -10 617 -10 q 327 28 410 -10 q 184 134 244 66 q 92 295 125 201 q 60 500 60 389 q 92 705 60 611 q 184 867 125 799 q 327 973 244 935 q 510 1011 410 1011 q 702 970 617 1011 q 846 855 787 928 l 846 1000 l 1450 1000 l 1450 869 l 990 869 l 990 567 l 1358 567 l 1358 440 l 990 440 l 990 131 l 1451 131 z "},"P":{"ha":848,"x_min":119,"x_max":811,"o":"m 430 490 q 525 504 484 490 q 594 543 567 518 q 635 605 622 569 q 649 685 649 641 q 636 764 649 729 q 595 823 622 799 q 527 860 568 847 q 430 873 485 873 l 281 873 l 281 490 l 430 490 m 430 1000 q 600 977 528 1000 q 718 913 672 954 q 788 814 765 872 q 811 685 811 756 q 787 555 811 614 q 715 452 763 495 q 595 386 667 410 q 430 362 524 362 l 281 362 l 281 0 l 119 0 l 119 1000 l 430 1000 z "},"Þ":{"ha":844,"x_min":119,"x_max":811,"o":"m 430 313 q 525 327 484 313 q 594 366 567 341 q 635 428 622 392 q 649 508 649 464 q 595 645 649 595 q 430 696 541 696 l 281 696 l 281 313 l 430 313 m 430 823 q 600 800 528 823 q 718 735 672 777 q 788 636 765 694 q 811 508 811 578 q 787 377 811 437 q 715 275 763 318 q 595 209 667 233 q 430 185 524 185 l 281 185 l 281 0 l 119 0 l 119 1000 l 281 1000 l 281 823 l 430 823 z "},"Q":{"ha":1117,"x_min":59,"x_max":1108,"o":"m 224 500 q 248 344 224 413 q 315 228 272 276 q 421 155 359 181 q 559 130 483 130 q 698 155 636 130 q 803 228 760 181 q 870 344 847 276 q 893 500 893 413 q 870 655 893 586 q 803 772 847 724 q 698 845 760 819 q 559 871 636 871 q 421 845 483 871 q 315 772 359 819 q 248 655 272 724 q 224 500 224 586 m 1108 -200 l 975 -200 q 922 -192 945 -200 q 880 -163 899 -184 l 720 13 q 559 -10 645 -10 q 355 28 447 -10 q 197 134 263 66 q 95 295 131 201 q 59 500 59 389 q 95 705 59 611 q 197 867 131 799 q 355 973 263 935 q 559 1011 447 1011 q 764 973 672 1011 q 921 867 856 935 q 1023 705 987 799 q 1059 500 1059 611 q 1045 369 1059 431 q 1005 253 1031 307 q 940 155 978 199 q 853 76 902 110 l 1108 -200 z "},"R":{"ha":882,"x_min":119,"x_max":880,"o":"m 409 521 q 506 534 465 521 q 576 572 548 548 q 617 630 603 597 q 631 705 631 664 q 577 830 631 787 q 413 873 523 873 l 281 873 l 281 521 l 409 521 m 880 0 l 735 0 q 672 33 692 0 l 439 370 q 413 395 427 388 q 372 403 399 403 l 281 403 l 281 0 l 119 0 l 119 1000 l 413 1000 q 583 980 512 1000 q 700 923 654 960 q 768 833 746 885 q 790 717 790 781 q 774 620 790 665 q 729 538 758 575 q 656 474 699 501 q 558 432 613 447 q 610 381 588 414 l 880 0 z "},"S":{"ha":758,"x_min":38,"x_max":701,"o":"m 642 829 q 626 811 634 817 q 605 805 617 805 q 575 816 592 805 q 535 841 559 827 q 478 866 511 854 q 401 877 446 877 q 327 867 359 877 q 274 838 296 856 q 242 793 253 819 q 231 738 231 768 q 251 675 231 700 q 305 631 272 649 q 380 600 338 613 q 466 571 422 586 q 553 536 510 556 q 628 487 595 517 q 681 414 661 457 q 701 309 701 371 q 678 184 701 242 q 612 82 656 126 q 505 14 569 39 q 360 -11 442 -11 q 267 -2 313 -11 q 180 25 222 8 q 103 66 139 42 q 38 120 67 90 l 85 198 q 101 213 92 208 q 123 219 111 219 q 158 204 139 219 q 205 171 178 189 q 272 139 233 153 q 365 124 310 124 q 501 167 453 124 q 549 285 549 210 q 529 355 549 328 q 476 399 509 381 q 401 430 443 417 q 315 457 358 442 q 228 490 271 471 q 153 540 186 509 q 100 616 120 571 q 80 730 80 662 q 101 835 80 784 q 163 925 122 885 q 263 988 203 964 q 399 1011 323 1011 q 557 984 485 1011 q 681 907 629 957 l 642 829 z "},"Ş":{"ha":758,"x_min":38,"x_max":701,"o":"m 642 829 q 626 811 634 817 q 605 805 617 805 q 575 816 592 805 q 535 841 559 827 q 478 866 511 854 q 401 877 446 877 q 327 867 359 877 q 274 838 296 856 q 242 793 253 819 q 231 738 231 768 q 251 675 231 700 q 305 631 272 649 q 380 600 338 613 q 466 571 422 586 q 553 536 510 556 q 628 487 595 517 q 681 414 661 457 q 701 309 701 371 q 683 196 701 249 q 629 101 665 143 q 542 31 594 59 q 425 -6 491 3 l 414 -47 q 507 -86 479 -60 q 534 -149 534 -111 q 522 -190 534 -172 q 489 -221 510 -208 q 439 -241 468 -234 q 374 -248 409 -248 q 320 -243 345 -248 q 272 -229 294 -238 l 285 -183 q 303 -168 290 -168 q 314 -170 308 -168 q 326 -175 319 -172 q 343 -179 333 -177 q 365 -181 352 -181 q 404 -171 391 -181 q 417 -147 417 -161 q 390 -114 417 -123 q 310 -97 363 -104 l 339 -10 q 251 2 294 -8 q 171 29 209 12 q 99 69 133 46 q 38 120 65 92 l 85 198 q 101 213 92 208 q 123 219 111 219 q 158 204 139 219 q 205 171 178 189 q 272 139 233 153 q 365 124 310 124 q 501 167 453 124 q 549 285 549 210 q 529 355 549 328 q 476 399 509 381 q 401 430 443 417 q 315 457 358 442 q 228 490 271 471 q 153 540 186 509 q 100 616 120 571 q 80 730 80 662 q 101 835 80 784 q 163 925 122 885 q 263 988 203 964 q 399 1011 323 1011 q 557 984 485 1011 q 681 907 629 957 l 642 829 z "},"T":{"ha":827,"x_min":21,"x_max":807,"o":"m 807 865 l 495 865 l 495 0 l 333 0 l 333 865 l 21 865 l 21 1000 l 807 1000 l 807 865 z "},"Ŧ":{"ha":846,"x_min":30,"x_max":816,"o":"m 504 865 l 504 592 l 726 592 l 726 498 l 504 498 l 504 0 l 342 0 l 342 498 l 120 498 l 120 592 l 342 592 l 342 865 l 30 865 l 30 1000 l 816 1000 l 816 865 l 504 865 z "},"U":{"ha":1027,"x_min":106,"x_max":920,"o":"m 513 131 q 616 151 571 131 q 693 205 662 170 q 742 289 725 240 q 758 397 758 338 l 758 1000 l 920 1000 l 920 397 q 892 234 920 309 q 811 105 864 159 q 683 19 758 50 q 513 -12 608 -12 q 343 19 419 -12 q 215 105 268 50 q 134 234 163 159 q 106 397 106 309 l 106 1000 l 269 1000 l 269 398 q 285 289 269 338 q 333 205 302 240 q 410 151 365 170 q 513 131 456 131 z "},"Ų":{"ha":1027,"x_min":106,"x_max":920,"o":"m 920 1000 l 920 397 q 897 249 920 317 q 831 127 874 180 q 725 39 788 74 q 584 -7 663 4 q 559 -25 572 -15 q 537 -47 547 -35 q 521 -73 527 -59 q 515 -102 515 -87 q 530 -139 515 -125 q 572 -152 545 -152 q 595 -150 586 -152 q 610 -146 604 -148 q 621 -142 617 -144 q 628 -140 625 -140 q 643 -149 640 -140 l 666 -205 q 611 -231 644 -221 q 540 -240 578 -240 q 439 -212 475 -240 q 403 -139 403 -185 q 426 -70 403 -103 q 487 -11 448 -37 q 327 26 398 -7 q 208 113 257 58 q 133 239 159 167 q 106 397 106 312 l 106 1000 l 269 1000 l 269 398 q 285 289 269 338 q 333 205 302 240 q 410 151 365 170 q 513 131 456 131 q 616 151 571 131 q 693 205 662 170 q 742 289 725 240 q 758 397 758 338 l 758 1000 l 920 1000 z "},"V":{"ha":953,"x_min":-2,"x_max":956,"o":"m 956 1000 l 550 0 l 403 0 l -2 1000 l 128 1000 q 163 989 149 1000 q 183 963 176 978 l 440 310 q 478 184 461 256 q 495 251 486 219 q 514 310 503 283 l 771 963 q 790 988 776 976 q 825 1000 804 1000 l 956 1000 z "},"W":{"ha":1449,"x_min":16,"x_max":1433,"o":"m 1433 1000 l 1122 0 l 976 0 l 741 718 q 733 744 737 730 q 726 774 729 758 q 718 744 722 758 q 710 718 715 730 l 474 0 l 327 0 l 16 1000 l 152 1000 q 187 990 173 1000 q 206 963 201 980 l 394 322 q 404 276 399 301 q 414 226 409 252 q 425 277 419 252 q 438 322 431 301 l 652 963 q 672 988 657 976 q 706 1000 686 1000 l 753 1000 q 788 989 775 1000 q 808 963 801 978 l 1022 322 q 1035 278 1029 301 q 1046 229 1041 255 q 1055 278 1051 255 q 1065 322 1060 301 l 1252 963 q 1271 989 1256 978 q 1306 1000 1286 1000 l 1433 1000 z "},"X":{"ha":917,"x_min":8,"x_max":908,"o":"m 908 0 l 747 0 q 719 9 730 0 q 703 29 709 18 l 454 430 q 448 414 451 422 q 441 399 445 406 l 201 29 q 184 9 193 18 q 159 0 174 0 l 8 0 l 345 514 l 22 1000 l 183 1000 q 208 995 200 1000 q 222 979 216 990 l 465 597 q 472 614 469 606 q 481 631 476 622 l 708 976 q 723 994 715 988 q 743 1000 731 1000 l 898 1000 l 572 521 l 908 0 z "},"Y":{"ha":884,"x_min":-4,"x_max":888,"o":"m 523 392 l 523 0 l 361 0 l 361 392 l -4 1000 l 138 1000 q 172 990 160 1000 q 193 963 185 979 l 398 605 q 423 553 412 578 q 444 506 435 529 q 463 554 451 530 q 488 605 474 578 l 691 963 q 711 989 698 977 q 745 1000 724 1000 l 888 1000 l 523 392 z "},"Z":{"ha":839,"x_min":32,"x_max":798,"o":"m 798 940 q 793 913 798 926 q 781 888 789 899 l 244 131 l 788 131 l 788 0 l 32 0 l 32 64 q 36 89 32 77 q 47 110 40 100 l 586 869 l 62 869 l 62 1000 l 798 1000 l 798 940 z "},"a":{"ha":698,"x_min":40,"x_max":615,"o":"m 469 310 q 335 297 390 307 q 246 271 280 287 q 197 234 212 256 q 182 187 182 213 q 190 144 182 162 q 212 115 198 126 q 245 98 226 103 q 288 93 265 93 q 388 115 346 93 q 469 178 430 137 l 469 310 m 74 610 q 360 722 194 722 q 468 702 421 722 q 548 646 516 682 q 598 560 581 610 q 615 450 615 510 l 615 0 l 548 0 q 515 7 526 0 q 497 33 504 13 l 482 91 q 428 48 455 67 q 374 15 402 28 q 314 -5 346 2 q 242 -11 281 -11 q 162 1 199 -11 q 98 36 125 13 q 55 96 71 60 q 40 179 40 131 q 61 259 40 220 q 134 329 83 298 q 266 380 184 360 q 469 403 349 400 l 469 450 q 437 564 469 526 q 341 601 404 601 q 269 591 298 601 q 218 567 240 580 q 180 544 197 555 q 144 533 163 533 q 118 541 129 533 q 101 561 108 549 l 74 610 z "},"ą":{"ha":698,"x_min":40,"x_max":688,"o":"m 469 310 q 335 297 390 307 q 246 271 280 287 q 197 234 212 256 q 182 187 182 213 q 190 144 182 162 q 212 115 198 126 q 245 98 226 103 q 288 93 265 93 q 388 115 346 93 q 469 178 430 137 l 469 310 m 688 -203 q 633 -228 666 -219 q 563 -238 600 -238 q 461 -210 497 -238 q 426 -137 426 -183 q 453 -61 426 -97 q 526 2 481 -26 q 497 33 506 7 l 482 91 q 428 48 455 67 q 374 15 402 28 q 314 -5 346 2 q 242 -11 281 -11 q 162 1 199 -11 q 98 36 125 13 q 55 96 71 60 q 40 179 40 131 q 61 259 40 220 q 134 329 83 298 q 266 380 184 360 q 469 403 349 400 l 469 450 q 437 564 469 526 q 341 601 404 601 q 269 591 298 601 q 218 567 240 580 q 180 544 197 555 q 144 533 163 533 q 118 541 129 533 q 101 561 108 549 l 74 610 q 360 722 194 722 q 468 702 421 722 q 548 646 516 682 q 598 560 581 610 q 615 450 615 510 l 615 0 q 587 -18 601 -8 q 563 -41 574 -28 q 544 -68 551 -53 q 538 -100 538 -83 q 552 -136 538 -123 q 594 -150 567 -150 q 617 -148 608 -150 q 633 -144 626 -146 q 643 -140 639 -142 q 651 -137 647 -137 q 665 -147 662 -137 l 688 -203 z "},"æ":{"ha":1122,"x_min":41,"x_max":1072,"o":"m 471 328 q 336 314 391 325 q 248 285 281 303 q 199 244 214 267 q 184 196 184 222 q 215 118 184 142 q 297 93 245 93 q 365 105 333 93 q 420 140 397 116 q 457 199 444 163 q 471 285 471 235 l 471 328 m 939 420 q 929 494 939 460 q 900 555 919 529 q 853 596 881 581 q 788 611 825 611 q 666 561 710 611 q 613 420 623 510 l 939 420 m 612 328 q 631 231 616 272 q 671 161 646 189 q 730 120 696 134 q 805 107 764 107 q 883 116 853 107 q 934 137 914 126 q 968 158 955 149 q 994 168 981 168 q 1024 154 1016 168 l 1065 103 q 1006 50 1039 72 q 938 15 974 28 q 865 -5 902 1 q 791 -10 827 -10 q 647 26 713 -10 q 541 138 581 63 q 491 70 521 99 q 423 24 460 42 q 345 -3 386 6 q 262 -11 303 -11 q 171 1 212 -11 q 101 39 131 14 q 57 101 72 64 q 41 188 41 139 q 63 269 41 229 q 135 342 85 310 q 268 397 185 375 q 471 421 350 418 l 471 450 q 438 566 471 526 q 342 606 406 606 q 270 595 299 606 q 219 570 241 583 q 181 545 198 556 q 146 533 165 533 q 120 541 131 533 q 102 561 109 549 l 75 610 q 200 693 135 665 q 345 722 265 722 q 478 689 427 722 q 555 599 529 656 q 653 687 593 655 q 794 719 713 719 q 903 697 853 719 q 992 631 954 674 q 1050 526 1029 588 q 1072 387 1072 465 q 1065 340 1072 352 q 1038 328 1058 328 l 612 328 z "},"b":{"ha":783,"x_min":91,"x_max":730,"o":"m 240 178 q 309 121 272 138 q 390 105 346 105 q 527 169 478 105 q 576 367 576 233 q 534 545 576 489 q 412 601 491 601 q 316 577 357 601 q 240 506 276 552 l 240 178 m 240 615 q 338 691 284 663 q 462 719 392 719 q 573 695 524 719 q 658 626 623 672 q 711 517 692 581 q 730 372 730 453 q 709 216 730 286 q 648 95 688 145 q 552 17 608 44 q 426 -10 496 -10 q 365 -4 392 -10 q 313 15 337 3 q 270 45 290 28 q 232 85 250 63 l 226 30 q 213 7 222 14 q 188 0 204 0 l 91 0 l 91 1028 l 240 1028 l 240 615 z "},"c":{"ha":667,"x_min":52,"x_max":638,"o":"m 592 569 q 578 556 585 560 q 560 551 572 551 q 536 559 549 551 q 505 577 523 567 q 463 596 488 588 q 400 604 438 604 q 315 587 351 604 q 254 537 278 569 q 217 459 229 505 q 205 355 205 413 q 218 249 205 295 q 256 170 231 202 q 316 122 281 138 q 394 105 351 105 q 465 115 438 105 q 510 138 492 126 q 541 161 528 151 q 568 172 553 172 q 596 158 586 172 l 638 103 q 581 50 613 72 q 515 15 550 28 q 443 -5 481 1 q 367 -10 406 -10 q 244 14 301 -10 q 144 86 187 39 q 77 200 101 133 q 52 355 52 268 q 74 500 52 433 q 139 616 97 567 q 245 692 182 665 q 391 719 308 719 q 527 694 468 719 q 631 624 585 669 l 592 569 z "},"ç":{"ha":667,"x_min":52,"x_max":638,"o":"m 638 103 q 536 24 594 50 q 413 -8 478 -2 l 403 -47 q 495 -86 467 -60 q 522 -149 522 -112 q 510 -190 522 -172 q 477 -221 499 -208 q 427 -241 456 -234 q 362 -248 397 -248 q 308 -243 333 -248 q 260 -229 283 -238 l 274 -183 q 292 -168 278 -168 q 302 -170 297 -168 q 314 -175 307 -172 q 331 -179 322 -177 q 353 -181 340 -181 q 392 -171 379 -181 q 405 -147 405 -161 q 378 -114 405 -123 q 299 -97 351 -104 l 328 -8 q 219 26 269 -1 q 132 100 169 53 q 73 210 94 147 q 52 355 52 274 q 74 500 52 433 q 139 616 97 567 q 245 692 182 665 q 391 719 308 719 q 527 694 468 719 q 631 624 585 669 l 592 569 q 578 556 585 560 q 560 551 572 551 q 536 559 549 551 q 505 577 523 567 q 463 596 488 588 q 400 604 438 604 q 315 587 351 604 q 254 537 278 569 q 217 459 229 505 q 205 355 205 413 q 218 249 205 295 q 256 170 231 202 q 316 122 281 138 q 394 105 351 105 q 465 115 438 105 q 510 138 492 126 q 541 161 528 151 q 568 172 553 172 q 596 158 586 172 l 638 103 z "},"d":{"ha":783,"x_min":53,"x_max":692,"o":"m 543 534 q 474 590 512 574 q 393 606 437 606 q 256 542 306 606 q 207 352 207 478 q 218 241 207 287 q 250 165 229 194 q 301 123 271 136 q 368 110 331 110 q 466 134 425 110 q 543 204 508 159 l 543 534 m 692 1028 l 692 0 l 602 0 q 564 28 572 0 l 551 106 q 450 22 506 53 q 318 -10 393 -10 q 210 14 258 -10 q 126 83 161 38 q 73 197 92 129 q 53 352 53 265 q 75 499 53 431 q 135 616 96 566 q 232 693 175 665 q 358 722 288 722 q 465 702 421 722 q 543 647 508 682 l 543 1028 l 692 1028 z "},"ď":{"ha":783,"x_min":53,"x_max":921,"o":"m 543 534 q 474 590 512 574 q 393 606 437 606 q 256 542 306 606 q 207 352 207 478 q 218 241 207 287 q 250 165 229 194 q 301 123 271 136 q 368 110 331 110 q 466 134 425 110 q 543 204 508 159 l 543 534 m 692 1028 l 692 0 l 602 0 q 564 28 572 0 l 551 106 q 450 22 506 53 q 318 -10 393 -10 q 210 14 258 -10 q 126 83 161 38 q 73 197 92 129 q 53 352 53 265 q 75 499 53 431 q 135 616 96 566 q 232 693 175 665 q 358 722 288 722 q 465 702 421 722 q 543 647 508 682 l 543 1028 l 692 1028 m 895 1029 q 917 1021 913 1029 q 921 1005 921 1013 q 918 987 921 999 q 909 956 916 976 q 890 903 902 935 q 859 823 878 871 q 839 800 851 806 q 806 795 826 795 l 754 795 l 795 1029 l 895 1029 z "},"đ":{"ha":784,"x_min":54,"x_max":794,"o":"m 544 515 q 476 571 513 555 q 394 588 439 588 q 316 573 350 588 q 257 528 281 558 q 221 452 233 498 q 208 342 208 406 q 219 233 208 277 q 251 161 230 188 q 301 122 272 133 q 369 110 331 110 q 468 134 426 110 q 544 205 509 159 l 544 515 m 794 789 l 693 789 l 693 0 l 603 0 q 565 28 573 0 l 551 106 q 451 22 508 53 q 319 -10 394 -10 q 211 12 260 -10 q 127 78 162 34 q 73 189 92 123 q 54 342 54 255 q 75 488 54 422 q 136 601 97 553 q 232 676 176 649 q 360 703 289 703 q 466 683 422 703 q 544 627 510 663 l 544 789 l 383 789 l 383 883 l 544 883 l 544 1028 l 693 1028 l 693 883 l 794 883 l 794 789 z "},"ð":{"ha":790,"x_min":51,"x_max":730,"o":"m 385 106 q 466 122 430 106 q 530 173 503 138 q 572 262 556 208 q 590 391 588 316 q 561 444 578 419 q 520 489 544 469 q 465 519 496 508 q 394 530 433 530 q 309 514 346 530 q 248 470 273 498 q 211 406 224 443 q 199 326 199 368 q 213 231 199 272 q 253 162 228 190 q 313 120 279 134 q 385 106 347 106 m 551 848 q 624 770 591 813 q 681 674 658 727 q 717 558 704 621 q 730 421 730 494 q 707 240 730 320 q 641 105 685 160 q 532 20 597 49 q 381 -10 467 -10 q 251 13 311 -10 q 146 80 191 36 q 76 185 101 123 q 51 326 51 247 q 73 449 51 391 q 135 550 94 506 q 234 619 176 594 q 365 645 292 645 q 490 619 433 645 q 592 540 548 592 q 540 682 576 623 q 440 782 503 740 l 308 691 l 280 738 q 274 766 270 753 q 292 789 277 780 l 353 828 q 298 848 327 839 q 235 866 268 858 q 217 875 225 869 q 204 889 209 881 q 199 910 199 898 q 204 937 199 922 l 222 989 q 354 957 290 978 q 475 902 418 935 l 594 983 l 623 935 q 628 908 631 921 q 611 886 625 894 l 551 848 z "},"e":{"ha":738,"x_min":51,"x_max":690,"o":"m 556 434 q 545 504 556 472 q 513 560 534 536 q 461 598 492 584 q 390 611 431 611 q 263 565 309 611 q 203 434 216 518 l 556 434 m 199 342 q 218 238 202 282 q 261 165 234 194 q 325 121 288 135 q 408 107 362 107 q 483 117 451 107 q 539 139 515 127 q 579 161 563 151 q 610 172 596 172 q 638 158 628 172 l 680 103 q 620 50 653 72 q 549 15 587 28 q 472 -5 512 1 q 395 -10 433 -10 q 259 14 322 -10 q 150 87 196 39 q 77 206 103 135 q 51 369 51 276 q 75 506 51 442 q 141 617 98 570 q 247 692 185 665 q 388 719 309 719 q 508 698 453 719 q 604 636 564 677 q 667 536 644 595 q 690 401 690 476 q 682 354 690 366 q 654 342 674 342 l 199 342 z "},"ę":{"ha":738,"x_min":51,"x_max":690,"o":"m 556 434 q 545 504 556 472 q 513 560 534 536 q 461 598 492 584 q 390 611 431 611 q 263 565 309 611 q 203 434 216 518 l 556 434 m 199 342 q 218 238 202 282 q 261 165 234 194 q 325 121 288 135 q 408 107 362 107 q 483 117 451 107 q 539 139 515 127 q 579 161 563 151 q 610 172 596 172 q 638 158 628 172 l 680 103 q 587 31 641 57 q 475 -4 533 6 q 450 -22 463 -12 q 427 -44 437 -32 q 411 -70 417 -56 q 405 -100 405 -85 q 420 -136 405 -123 q 461 -150 435 -150 q 485 -148 476 -150 q 500 -144 494 -146 q 510 -140 506 -142 q 518 -137 515 -137 q 533 -147 529 -137 l 556 -203 q 500 -228 533 -219 q 430 -238 467 -238 q 329 -210 365 -238 q 293 -137 293 -183 q 315 -69 293 -101 q 375 -10 337 -36 q 246 19 305 -7 q 143 94 187 46 q 76 211 100 142 q 51 369 51 280 q 75 506 51 442 q 141 617 98 570 q 247 692 185 665 q 388 719 309 719 q 508 698 453 719 q 604 636 564 677 q 667 536 644 595 q 690 401 690 476 q 682 354 690 366 q 654 342 674 342 l 199 342 z "},"f":{"ha":492,"x_min":31,"x_max":483,"o":"m 139 0 l 139 590 l 69 599 q 41 612 52 603 q 31 638 31 621 l 31 699 l 139 699 l 139 758 q 157 867 139 819 q 207 948 174 915 q 288 999 240 981 q 394 1017 335 1017 q 440 1013 418 1017 q 483 1003 462 1010 l 480 928 q 461 906 478 909 q 419 902 444 902 q 363 895 388 902 q 320 870 338 888 q 293 824 302 853 q 283 753 283 796 l 283 699 l 477 699 l 477 591 l 288 591 l 288 0 l 139 0 z "},"ﬀ":{"ha":937,"x_min":31,"x_max":927,"o":"m 139 0 l 139 590 l 69 599 q 41 612 52 603 q 31 638 31 621 l 31 699 l 139 699 l 139 747 q 157 856 139 808 q 207 937 174 903 q 288 988 240 970 q 394 1005 335 1005 q 440 1001 418 1005 q 483 992 462 998 l 480 916 q 461 894 478 898 q 419 890 444 890 q 363 883 388 890 q 320 858 338 876 q 293 813 302 841 q 283 742 283 784 l 283 699 l 583 699 l 583 767 q 601 876 583 828 q 652 958 619 924 q 732 1008 685 991 q 838 1026 779 1026 q 884 1022 862 1026 q 927 1013 906 1019 l 924 937 q 905 915 922 919 q 863 911 888 911 q 806 904 831 911 q 764 879 781 897 q 736 833 746 862 q 727 763 727 805 l 727 699 l 921 699 l 921 591 l 732 591 l 732 0 l 583 0 l 583 591 l 288 591 l 288 0 l 139 0 z "},"ﬁ":{"ha":816,"x_min":31,"x_max":718,"o":"m 140 0 l 140 590 l 70 599 q 42 612 53 603 q 31 638 31 621 l 31 699 l 140 699 l 140 728 q 160 849 140 794 q 224 944 181 903 q 330 1007 266 984 q 478 1029 393 1029 q 536 1026 506 1029 q 586 1015 565 1022 l 581 938 q 564 921 580 923 q 522 919 548 919 q 412 907 457 919 q 338 870 367 895 q 297 809 310 846 q 284 724 284 773 l 284 699 l 718 699 l 718 0 l 569 0 l 569 591 l 289 591 l 289 0 l 140 0 z "},"ﬃ":{"ha":1260,"x_min":31,"x_max":1162,"o":"m 140 0 l 140 590 l 70 599 q 42 612 53 603 q 31 638 31 621 l 31 699 l 140 699 l 140 747 q 157 856 140 808 q 208 937 175 903 q 288 988 241 970 q 394 1005 335 1005 q 441 1001 419 1005 q 483 992 463 998 l 481 916 q 462 894 479 898 q 419 890 445 890 q 363 883 388 890 q 320 858 338 876 q 293 813 303 841 q 284 742 284 784 l 284 699 l 584 699 l 584 728 q 605 849 584 794 q 668 944 626 903 q 774 1007 710 984 q 923 1029 838 1029 q 980 1026 950 1029 q 1030 1015 1009 1022 l 1025 938 q 1008 921 1024 923 q 965 919 992 919 q 856 907 901 919 q 782 870 810 895 q 741 809 753 846 q 728 724 728 773 l 728 699 l 1162 699 l 1162 0 l 1013 0 l 1013 591 l 733 591 l 733 0 l 584 0 l 584 591 l 289 591 l 289 0 l 140 0 z "},"ﬂ":{"ha":835,"x_min":31,"x_max":741,"o":"m 140 0 l 140 590 l 70 599 q 42 612 53 603 q 31 638 31 621 l 31 699 l 140 699 l 140 732 q 158 842 140 790 q 212 933 176 894 q 304 997 249 973 q 434 1020 359 1020 q 541 1016 490 1020 q 642 1011 592 1012 l 741 1011 l 741 0 l 593 0 l 593 907 q 519 910 556 908 q 457 913 483 913 q 329 865 374 913 q 284 732 284 818 l 284 699 l 460 699 l 460 591 l 289 591 l 289 0 l 140 0 z "},"ﬄ":{"ha":1278,"x_min":31,"x_max":1184,"o":"m 139 0 l 139 590 l 69 599 q 41 612 52 603 q 31 638 31 621 l 31 699 l 139 699 l 139 747 q 157 856 139 808 q 207 937 174 903 q 288 988 240 970 q 394 1005 335 1005 q 440 1001 418 1005 q 483 992 462 998 l 480 916 q 461 894 478 898 q 419 890 444 890 q 363 883 388 890 q 320 858 338 876 q 293 813 302 841 q 283 742 283 784 l 283 699 l 583 699 l 583 732 q 601 842 583 790 q 655 933 619 894 q 747 997 692 973 q 877 1020 802 1020 q 984 1016 933 1020 q 1085 1011 1035 1012 l 1184 1011 l 1184 0 l 1036 0 l 1036 907 q 963 910 999 908 q 900 913 926 913 q 772 865 817 913 q 727 732 727 818 l 727 699 l 921 699 l 921 591 l 732 591 l 732 0 l 583 0 l 583 591 l 288 591 l 288 0 l 139 0 z "},"g":{"ha":728,"x_min":38,"x_max":701,"o":"m 344 360 q 448 396 413 360 q 483 488 483 431 q 448 581 483 547 q 344 615 413 615 q 240 581 275 615 q 205 488 205 547 q 214 437 205 460 q 240 396 223 413 q 284 370 258 379 q 344 360 310 360 m 551 -35 q 538 3 551 -11 q 501 25 524 17 q 448 37 478 33 q 383 43 417 41 q 313 46 349 44 q 244 53 277 48 q 189 11 210 35 q 168 -45 168 -13 q 179 -84 168 -66 q 212 -115 190 -102 q 270 -136 235 -128 q 354 -144 305 -144 q 502 -113 453 -144 q 551 -35 551 -83 m 701 683 l 701 627 q 668 593 701 599 l 597 581 q 615 492 615 541 q 595 397 615 440 q 538 325 574 355 q 452 279 502 295 q 344 263 402 263 q 300 266 322 263 q 259 272 279 268 q 229 247 239 260 q 219 220 219 234 q 240 186 219 197 q 293 170 260 175 q 368 164 326 165 q 454 159 410 163 q 540 148 498 156 q 616 121 583 140 q 669 72 649 103 q 689 -10 689 40 q 666 -99 689 -56 q 600 -177 643 -143 q 494 -232 556 -211 q 351 -252 431 -252 q 214 -237 272 -252 q 116 -195 155 -222 q 57 -135 76 -169 q 38 -65 38 -101 q 70 21 38 -15 q 156 76 101 56 q 109 115 126 90 q 91 178 91 139 q 114 244 91 210 q 183 301 137 278 q 99 379 130 331 q 69 492 69 427 q 89 587 69 544 q 147 659 110 629 q 234 705 183 689 q 344 721 284 721 q 503 683 435 721 l 701 683 z "},"h":{"ha":779,"x_min":91,"x_max":695,"o":"m 240 624 q 336 693 284 667 q 458 719 388 719 q 560 700 516 719 q 634 645 604 681 q 680 560 665 610 q 695 451 695 510 l 695 0 l 547 0 l 547 451 q 514 562 547 522 q 413 601 481 601 q 320 578 363 601 q 240 516 278 556 l 240 0 l 91 0 l 91 1028 l 240 1028 l 240 624 z "},"ĥ":{"ha":779,"x_min":-69,"x_max":695,"o":"m 240 624 q 336 693 284 667 q 458 719 388 719 q 560 700 516 719 q 634 645 604 681 q 680 560 665 610 q 695 451 695 510 l 695 0 l 547 0 l 547 451 q 514 562 547 522 q 413 601 481 601 q 320 578 363 601 q 240 516 278 556 l 240 0 l 91 0 l 91 1028 l 240 1028 l 240 624 m 399 1074 l 290 1074 q 267 1078 281 1074 q 240 1099 254 1081 l 172 1183 q 163 1197 166 1190 q 153 1183 159 1190 l 85 1099 q 58 1078 71 1081 q 35 1074 44 1074 l -69 1074 l 98 1265 l 232 1265 l 399 1074 z "},"ħ":{"ha":779,"x_min":-12,"x_max":695,"o":"m 240 605 q 335 674 283 648 q 457 701 388 701 q 560 681 515 701 q 634 626 604 662 q 680 542 665 591 q 695 433 695 492 l 695 0 l 546 0 l 546 433 q 513 543 546 504 q 413 583 480 583 q 320 560 363 583 q 240 497 277 537 l 240 0 l 91 0 l 91 796 l -12 796 l -12 890 l 91 890 l 91 1028 l 240 1028 l 240 890 l 439 890 l 439 796 l 240 796 l 240 605 z "},"i":{"ha":344,"x_min":72,"x_max":272,"o":"m 247 708 l 247 0 l 97 0 l 97 708 l 247 708 m 272 922 q 264 884 272 902 q 242 852 256 866 q 209 831 228 839 q 170 823 191 823 q 132 831 150 823 q 101 852 115 839 q 80 884 88 866 q 72 922 72 902 q 80 961 72 943 q 101 993 88 979 q 132 1014 115 1006 q 170 1022 150 1022 q 209 1014 191 1022 q 242 993 228 1006 q 264 961 256 979 q 272 922 272 943 z "},"į":{"ha":344,"x_min":44,"x_max":307,"o":"m 170 823 q 132 831 150 823 q 101 852 115 839 q 80 884 88 866 q 72 922 72 902 q 80 961 72 943 q 101 993 88 979 q 132 1014 115 1006 q 170 1022 150 1022 q 209 1014 191 1022 q 242 993 228 1006 q 264 961 256 979 q 272 922 272 943 q 264 884 272 902 q 242 852 256 866 q 209 831 228 839 q 170 823 191 823 m 307 -203 q 252 -228 285 -219 q 181 -238 219 -238 q 80 -210 116 -238 q 44 -137 44 -183 q 70 -63 44 -98 q 142 0 97 -28 l 97 0 l 97 708 l 247 708 l 247 0 l 233 0 q 206 -18 219 -8 q 181 -41 192 -28 q 163 -68 170 -53 q 156 -100 156 -83 q 171 -136 156 -123 q 213 -150 186 -150 q 236 -148 227 -150 q 251 -144 245 -146 q 262 -140 258 -142 q 269 -137 266 -137 q 284 -147 281 -137 l 307 -203 z "},"ı":{"ha":344,"x_min":98,"x_max":247,"o":"m 247 708 l 247 0 l 98 0 l 98 708 l 247 708 z "},"j":{"ha":344,"x_min":-51,"x_max":271,"o":"m 247 708 l 247 -37 q 235 -120 247 -81 q 197 -189 223 -160 q 131 -235 172 -218 q 33 -251 90 -251 q -11 -248 8 -251 q -51 -238 -31 -244 l -45 -157 q -34 -141 -43 -143 q 2 -139 -24 -139 q 76 -116 55 -139 q 97 -37 97 -92 l 97 708 l 247 708 m 271 922 q 263 884 271 902 q 241 852 255 866 q 209 831 227 839 q 170 823 191 823 q 132 831 150 823 q 101 852 115 839 q 80 884 88 866 q 72 922 72 902 q 80 961 72 943 q 101 993 88 979 q 132 1014 115 1006 q 170 1022 150 1022 q 209 1014 191 1022 q 241 993 227 1006 q 263 961 255 979 q 271 922 271 943 z "},"ȷ":{"ha":344,"x_min":-51,"x_max":247,"o":"m 247 708 l 247 -37 q 235 -120 247 -81 q 198 -189 223 -160 q 132 -235 172 -218 q 33 -251 91 -251 q -11 -248 9 -251 q -51 -238 -31 -244 l -45 -157 q -41 -147 -44 -150 q -33 -141 -38 -143 q -19 -139 -28 -140 q 2 -139 -11 -139 q 47 -133 28 -139 q 77 -116 65 -128 q 93 -84 88 -103 q 98 -37 98 -65 l 98 708 l 247 708 z "},"k":{"ha":725,"x_min":91,"x_max":721,"o":"m 240 1028 l 240 432 l 272 432 q 297 436 288 432 q 317 453 307 440 l 516 681 q 539 701 526 694 q 571 708 551 708 l 706 708 l 467 439 q 422 396 447 412 q 446 374 435 386 q 466 347 456 362 l 721 0 l 588 0 q 557 6 569 0 q 534 28 544 12 l 329 306 q 308 326 319 322 q 277 331 298 331 l 240 331 l 240 0 l 91 0 l 91 1028 l 240 1028 z "},"ĸ":{"ha":725,"x_min":91,"x_max":721,"o":"m 240 708 l 240 432 l 272 432 q 297 436 288 432 q 317 453 307 440 l 516 681 q 539 701 526 694 q 571 708 551 708 l 706 708 l 467 439 q 422 396 447 412 q 446 374 435 386 q 466 347 456 362 l 721 0 l 588 0 q 557 6 569 0 q 534 28 544 12 l 329 306 q 308 326 319 322 q 277 331 298 331 l 240 331 l 240 0 l 91 0 l 91 708 l 240 708 z "},"ł":{"ha":444,"x_min":28,"x_max":425,"o":"m 425 710 l 425 624 q 403 589 425 598 l 298 543 l 298 0 l 149 0 l 149 490 l 28 440 l 28 528 q 48 559 28 550 l 149 603 l 149 1028 l 298 1028 l 298 657 l 425 710 z "},"ľ":{"ha":337,"x_min":94,"x_max":482,"o":"m 243 1028 l 243 0 l 94 0 l 94 1028 l 243 1028 m 456 1029 q 478 1021 474 1029 q 482 1005 482 1013 q 480 987 482 999 q 470 956 477 976 q 451 903 463 935 q 420 823 440 871 q 400 800 412 806 q 367 795 388 795 l 315 795 l 356 1029 l 456 1029 z "},"m":{"ha":1153,"x_min":91,"x_max":1069,"o":"m 91 0 l 91 708 l 181 708 q 220 680 212 708 l 230 618 q 270 659 249 640 q 315 691 291 677 q 366 712 339 704 q 426 719 394 719 q 488 710 460 719 q 539 682 517 700 q 576 638 560 664 q 603 581 592 613 q 643 644 619 617 q 697 687 667 670 q 761 711 727 703 q 829 719 794 719 q 931 701 886 719 q 1007 649 976 683 q 1053 565 1038 615 q 1069 451 1069 515 l 1069 0 l 920 0 l 920 451 q 888 564 920 526 q 792 601 856 601 q 739 592 764 601 q 695 563 714 582 q 666 516 676 544 q 655 451 655 488 l 655 0 l 506 0 l 506 451 q 474 565 506 528 q 383 601 443 601 q 306 580 341 601 q 240 522 270 559 l 240 0 l 91 0 z "},"n":{"ha":779,"x_min":91,"x_max":695,"o":"m 231 615 q 278 657 253 638 q 331 690 303 676 q 390 712 358 704 q 458 719 421 719 q 560 700 516 719 q 634 645 604 681 q 680 560 665 610 q 695 451 695 510 l 695 0 l 547 0 l 547 451 q 514 562 547 522 q 413 601 481 601 q 320 578 363 601 q 240 516 278 556 l 240 0 l 91 0 l 91 708 l 181 708 q 220 680 212 708 l 231 615 z "},"ŋ":{"ha":779,"x_min":91,"x_max":695,"o":"m 231 615 q 278 657 253 638 q 331 690 303 676 q 390 712 358 704 q 458 719 421 719 q 560 700 516 719 q 634 645 604 681 q 680 560 665 610 q 695 451 695 510 l 695 14 q 681 -94 695 -45 q 636 -178 667 -143 q 560 -233 606 -213 q 449 -252 513 -252 q 385 -246 413 -252 q 325 -226 357 -240 l 341 -160 q 355 -136 346 -142 q 374 -131 364 -131 q 398 -135 384 -131 q 435 -140 411 -140 q 518 -106 490 -140 q 547 -3 547 -73 l 547 451 q 514 562 547 522 q 413 601 481 601 q 320 578 363 601 q 240 516 278 556 l 240 0 l 91 0 l 91 708 l 181 708 q 220 680 212 708 l 231 615 z "},"o":{"ha":793,"x_min":52,"x_max":741,"o":"m 397 719 q 539 694 476 719 q 648 621 603 668 q 717 506 692 574 q 741 355 741 439 q 717 203 741 271 q 648 89 692 136 q 539 15 603 41 q 397 -10 476 -10 q 255 15 318 -10 q 146 89 191 41 q 76 203 101 136 q 52 355 52 271 q 76 506 52 439 q 146 621 101 574 q 255 694 191 668 q 397 719 318 719 m 397 106 q 540 170 493 106 q 587 354 587 235 q 540 539 587 474 q 397 603 493 603 q 253 539 300 603 q 206 354 206 474 q 253 170 206 235 q 397 106 300 106 z "},"ø":{"ha":792,"x_min":42,"x_max":765,"o":"m 289 128 q 397 101 333 101 q 482 118 445 101 q 545 168 519 135 q 583 248 570 201 q 597 354 597 294 q 568 506 597 446 l 289 128 m 508 578 q 397 608 464 608 q 311 590 349 608 q 248 540 274 573 q 210 461 223 508 q 197 354 197 414 q 227 197 197 257 l 508 578 m 651 618 q 718 504 694 570 q 741 355 741 438 q 717 203 741 271 q 648 89 692 136 q 539 15 603 41 q 397 -10 476 -10 q 301 1 346 -10 q 218 33 256 12 l 188 -8 q 147 -44 172 -34 q 98 -53 122 -53 l 42 -53 l 147 88 q 76 203 101 135 q 52 355 52 270 q 76 506 52 439 q 146 621 101 574 q 255 694 191 668 q 397 719 318 719 q 495 708 450 719 q 580 674 541 697 l 622 731 q 636 751 629 743 q 650 764 642 759 q 667 770 658 768 q 690 772 677 772 l 765 772 l 651 618 z "},"œ":{"ha":1215,"x_min":52,"x_max":1164,"o":"m 1032 420 q 1022 494 1032 460 q 994 555 1013 529 q 947 596 975 581 q 882 611 919 611 q 760 561 803 611 q 707 420 717 510 l 1032 420 m 383 106 q 515 170 472 106 q 558 354 558 234 q 515 539 558 474 q 383 603 472 603 q 249 539 292 603 q 206 354 206 474 q 249 170 206 235 q 383 106 292 106 m 706 328 q 765 161 714 215 q 899 107 817 107 q 969 117 940 107 q 1020 139 998 127 q 1058 161 1042 151 q 1088 172 1074 172 q 1115 158 1106 172 l 1158 103 q 1100 50 1133 72 q 1032 15 1068 28 q 959 -5 997 1 q 885 -10 922 -10 q 741 26 807 -10 q 634 140 675 63 q 527 29 594 68 q 369 -10 460 -10 q 240 15 299 -10 q 140 89 182 41 q 75 203 99 136 q 52 355 52 271 q 75 506 52 439 q 141 621 99 574 q 243 694 183 668 q 374 719 302 719 q 528 681 463 719 q 633 572 594 643 q 734 680 670 640 q 888 719 797 719 q 998 697 947 719 q 1085 631 1048 674 q 1143 526 1122 588 q 1164 387 1164 465 q 1157 340 1164 352 q 1131 328 1151 328 l 706 328 z "},"p":{"ha":784,"x_min":91,"x_max":730,"o":"m 240 178 q 309 121 272 138 q 391 105 346 105 q 527 169 478 105 q 576 359 576 233 q 565 470 576 424 q 533 546 554 517 q 483 588 513 575 q 415 601 453 601 q 317 577 358 601 q 240 506 276 552 l 240 178 m 233 606 q 334 690 277 658 q 465 722 390 722 q 574 698 525 722 q 657 628 622 674 q 711 514 692 582 q 730 359 730 447 q 709 213 730 281 q 648 95 688 145 q 552 18 608 46 q 425 -10 496 -10 q 319 10 363 -10 q 240 65 276 30 l 240 -235 l 91 -235 l 91 708 l 181 708 q 220 680 212 708 l 233 606 z "},"þ":{"ha":784,"x_min":91,"x_max":730,"o":"m 240 178 q 309 121 272 138 q 391 105 346 105 q 527 169 478 105 q 576 359 576 233 q 565 470 576 424 q 533 546 554 517 q 483 588 513 575 q 415 601 453 601 q 317 577 358 601 q 240 506 276 552 l 240 178 m 240 615 q 339 691 284 663 q 465 719 394 719 q 574 696 525 719 q 657 627 622 672 q 711 514 692 581 q 730 359 730 447 q 709 213 730 281 q 648 95 688 145 q 552 18 608 46 q 425 -10 496 -10 q 318 13 362 -10 q 240 75 275 35 l 240 -235 l 91 -235 l 91 1028 l 240 1028 l 240 615 z "},"q":{"ha":783,"x_min":53,"x_max":692,"o":"m 543 534 q 474 590 512 574 q 393 606 437 606 q 256 542 306 606 q 207 352 207 478 q 218 241 207 287 q 250 165 229 194 q 301 123 271 136 q 368 110 331 110 q 466 134 425 110 q 543 204 508 159 l 543 534 m 692 708 l 692 -235 l 543 -235 l 543 97 q 445 19 499 49 q 318 -10 390 -10 q 210 14 258 -10 q 126 83 161 38 q 73 197 92 129 q 53 352 53 265 q 75 499 53 431 q 135 616 96 566 q 232 693 175 665 q 358 722 288 722 q 420 716 392 722 q 473 698 449 710 q 517 670 497 687 q 555 633 537 654 l 564 680 q 602 708 572 708 l 692 708 z "},"r":{"ha":513,"x_min":91,"x_max":505,"o":"m 232 577 q 313 683 265 644 q 426 722 360 722 q 469 716 449 722 q 505 701 489 711 l 494 588 q 486 572 492 576 q 470 567 480 567 q 440 571 460 567 q 399 575 421 575 q 344 566 368 575 q 301 540 320 557 q 267 497 282 522 q 240 440 253 472 l 240 0 l 91 0 l 91 708 l 178 708 q 210 700 201 708 q 223 669 219 691 l 232 577 z "},"s":{"ha":606,"x_min":40,"x_max":557,"o":"m 514 580 q 501 566 508 570 q 484 562 494 562 q 458 569 472 562 q 426 585 444 576 q 382 602 407 594 q 322 609 356 609 q 272 602 294 609 q 234 584 249 596 q 210 555 218 572 q 201 520 201 539 q 217 478 201 495 q 257 450 232 462 q 314 428 282 438 q 379 407 346 418 q 444 381 413 396 q 501 345 476 367 q 542 294 526 324 q 557 221 557 264 q 539 128 557 171 q 486 55 521 86 q 400 6 451 24 q 281 -11 348 -11 q 210 -5 244 -11 q 145 14 176 2 q 87 41 114 25 q 40 76 60 57 l 74 133 q 90 149 81 143 q 113 155 99 155 q 142 145 128 155 q 175 125 156 136 q 222 105 194 114 q 289 95 249 95 q 347 103 322 95 q 387 125 371 111 q 410 157 403 139 q 418 194 418 174 q 403 239 418 222 q 362 269 388 256 q 305 291 337 281 q 239 312 272 301 q 173 338 206 323 q 116 375 141 352 q 75 430 90 397 q 60 508 60 462 q 77 589 60 551 q 127 656 94 627 q 208 702 160 685 q 319 719 256 719 q 449 697 391 719 q 547 634 508 674 l 514 580 z "},"ş":{"ha":606,"x_min":40,"x_max":557,"o":"m 514 580 q 501 566 508 570 q 484 562 494 562 q 458 569 472 562 q 426 585 444 576 q 382 602 407 594 q 322 609 356 609 q 272 602 294 609 q 234 584 249 596 q 210 555 218 572 q 201 520 201 539 q 217 478 201 495 q 257 450 232 462 q 314 428 282 438 q 379 407 346 418 q 444 381 413 396 q 501 345 476 367 q 542 294 526 324 q 557 221 557 264 q 542 136 557 176 q 498 67 527 97 q 427 17 469 37 q 329 -8 385 -2 l 318 -47 q 411 -86 383 -60 q 438 -149 438 -111 q 426 -190 438 -172 q 393 -221 415 -208 q 343 -241 372 -234 q 278 -248 313 -248 q 224 -243 249 -248 q 176 -229 199 -238 l 190 -183 q 208 -168 194 -168 q 218 -170 213 -168 q 230 -175 223 -172 q 247 -179 238 -177 q 269 -181 256 -181 q 308 -171 295 -181 q 321 -147 321 -161 q 294 -114 321 -123 q 215 -97 267 -104 l 243 -9 q 128 19 181 -3 q 40 76 76 42 l 74 133 q 90 149 81 143 q 113 155 99 155 q 142 145 128 155 q 175 125 156 136 q 222 105 194 114 q 289 95 249 95 q 347 103 322 95 q 387 125 371 111 q 410 157 403 139 q 418 194 418 174 q 403 239 418 222 q 362 269 388 256 q 305 291 337 281 q 239 312 272 301 q 173 338 206 323 q 116 375 141 352 q 75 430 90 397 q 60 508 60 462 q 77 589 60 551 q 127 656 94 627 q 208 702 160 685 q 319 719 256 719 q 449 697 391 719 q 547 634 508 674 l 514 580 z "},"ß":{"ha":822,"x_min":91,"x_max":782,"o":"m 442 1017 q 574 994 519 1017 q 664 938 629 972 q 716 864 699 904 q 733 789 733 824 q 718 719 733 748 q 683 668 704 690 q 637 629 662 646 q 591 597 612 612 q 555 565 569 581 q 541 527 541 548 q 559 485 541 502 q 603 452 576 467 q 661 419 631 436 q 719 376 692 401 q 764 315 747 351 q 782 225 782 278 q 761 124 782 168 q 704 50 740 81 q 619 5 668 20 q 516 -11 571 -11 q 393 14 451 -11 q 294 76 336 38 l 329 133 q 345 149 335 143 q 368 155 354 155 q 397 145 383 155 q 429 125 410 136 q 471 105 447 114 q 529 95 495 95 q 576 103 555 95 q 611 125 597 111 q 634 159 626 140 q 642 201 642 178 q 623 259 642 236 q 576 299 604 282 q 514 332 547 317 q 452 369 481 348 q 405 420 424 390 q 385 497 385 451 q 400 564 385 535 q 438 614 415 592 q 487 654 460 635 q 536 692 513 672 q 573 734 558 711 q 588 788 588 757 q 580 832 588 811 q 553 870 572 853 q 506 897 535 887 q 436 907 477 907 q 292 850 344 907 q 240 681 240 792 l 240 0 l 91 0 l 91 685 q 116 819 91 758 q 186 924 140 880 q 297 992 232 968 q 442 1017 362 1017 z "},"ſ":{"ha":408,"x_min":31,"x_max":484,"o":"m 140 758 q 157 867 140 819 q 208 948 175 915 q 289 999 242 981 q 394 1017 336 1017 q 484 1003 441 1017 l 479 925 q 474 914 478 917 q 461 908 469 910 q 442 907 453 907 q 419 907 431 907 q 364 899 388 907 q 323 872 340 890 q 298 825 306 854 q 289 753 289 796 l 289 0 l 140 0 l 140 590 l 70 599 q 42 612 53 603 q 31 638 31 621 l 31 699 l 140 699 l 140 758 z "},"t":{"ha":508,"x_min":26,"x_max":497,"o":"m 318 -11 q 182 39 230 -11 q 135 178 135 88 l 135 591 l 57 591 q 35 599 44 591 q 26 623 26 607 l 26 683 l 141 700 l 174 905 q 185 924 177 917 q 208 931 194 931 l 284 931 l 284 699 l 481 699 l 481 591 l 284 591 l 284 189 q 303 131 284 151 q 353 110 322 110 q 383 115 370 110 q 404 125 395 119 q 420 134 413 130 q 433 139 426 139 q 453 125 445 139 l 497 52 q 415 5 463 22 q 318 -11 368 -11 z "},"ť":{"ha":507,"x_min":26,"x_max":582,"o":"m 317 -11 q 182 39 229 -11 q 134 178 134 88 l 134 591 l 56 591 q 35 599 44 591 q 26 623 26 607 l 26 683 l 140 700 l 173 905 q 185 924 176 917 q 207 931 193 931 l 283 931 l 283 699 l 480 699 l 480 591 l 283 591 l 283 189 q 302 131 283 151 q 352 110 321 110 q 382 115 369 110 q 403 125 394 119 q 419 134 413 130 q 432 139 426 139 q 452 125 444 139 l 497 52 q 415 5 462 22 q 317 -11 367 -11 m 556 1029 q 578 1021 574 1029 q 582 1005 582 1013 q 580 987 582 999 q 570 956 577 976 q 551 903 563 935 q 520 823 540 871 q 500 800 512 806 q 467 795 488 795 l 415 795 l 456 1029 l 556 1029 z "},"ŧ":{"ha":513,"x_min":28,"x_max":499,"o":"m 42 481 l 137 481 l 137 591 l 59 591 q 38 599 47 591 q 28 623 28 607 l 28 683 l 143 700 l 176 905 q 188 924 179 917 q 210 931 196 931 l 286 931 l 286 699 l 483 699 l 483 591 l 286 591 l 286 481 l 485 481 l 485 388 l 286 388 l 286 189 q 305 131 286 151 q 355 110 324 110 q 385 115 372 110 q 406 125 397 119 q 422 134 415 130 q 435 139 428 139 q 455 125 447 139 l 499 52 q 417 5 465 22 q 320 -11 370 -11 q 184 39 232 -11 q 137 178 137 88 l 137 388 l 42 388 l 42 481 z "},"u":{"ha":779,"x_min":84,"x_max":688,"o":"m 688 708 l 688 0 l 598 0 q 560 28 568 0 l 549 94 q 502 51 526 71 q 449 18 477 32 q 390 -3 422 4 q 322 -11 358 -11 q 219 8 264 -11 q 145 63 175 28 q 99 148 115 99 q 84 258 84 198 l 84 708 l 233 708 l 233 258 q 266 147 233 186 q 367 107 299 107 q 459 130 416 107 q 539 192 501 152 l 539 708 l 688 708 z "},"ų":{"ha":779,"x_min":84,"x_max":762,"o":"m 762 -203 q 707 -228 740 -219 q 636 -238 674 -238 q 535 -210 571 -238 q 499 -137 499 -183 q 525 -63 499 -98 q 597 0 551 -28 q 560 28 568 1 l 549 94 q 502 51 526 71 q 449 18 477 32 q 390 -3 422 4 q 322 -11 358 -11 q 219 8 264 -11 q 145 63 175 28 q 99 148 115 99 q 84 258 84 198 l 84 708 l 233 708 l 233 258 q 266 147 233 186 q 367 107 299 107 q 459 130 416 107 q 539 192 501 152 l 539 708 l 688 708 l 688 0 q 661 -18 674 -8 q 636 -41 647 -28 q 618 -68 625 -53 q 611 -100 611 -83 q 626 -136 611 -123 q 667 -150 641 -150 q 691 -148 682 -150 q 706 -144 700 -146 q 717 -140 713 -142 q 724 -137 721 -137 q 739 -147 735 -137 l 762 -203 z "},"v":{"ha":726,"x_min":10,"x_max":715,"o":"m 715 708 l 430 0 l 295 0 l 10 708 l 133 708 q 162 700 151 708 q 177 679 174 691 l 334 267 q 351 209 344 238 q 365 151 359 181 q 378 209 370 181 q 396 267 386 237 l 556 679 q 571 700 560 692 q 598 708 582 708 l 715 708 z "},"w":{"ha":1103,"x_min":17,"x_max":1086,"o":"m 1086 708 l 859 0 l 740 0 q 711 27 719 0 l 570 468 q 560 506 565 487 q 552 542 556 524 q 533 467 544 505 l 390 27 q 358 0 383 0 l 244 0 l 17 708 l 135 708 q 164 700 153 708 q 179 679 176 691 l 297 267 q 309 211 304 238 q 319 158 315 185 q 333 211 326 185 q 349 267 341 238 l 482 681 q 496 702 485 694 q 522 710 507 710 l 588 710 q 615 702 603 710 q 629 681 626 694 l 758 267 q 774 211 767 238 q 788 157 781 184 q 798 210 792 183 q 811 267 803 238 l 931 679 q 947 700 935 692 q 974 708 958 708 l 1086 708 z "},"x":{"ha":709,"x_min":10,"x_max":699,"o":"m 699 0 l 556 0 q 529 9 539 0 q 513 29 519 18 l 349 291 q 333 250 343 267 l 185 29 q 168 9 177 18 q 143 0 158 0 l 10 0 l 255 365 l 19 708 l 163 708 q 188 703 180 708 q 202 688 196 698 l 363 438 q 382 481 369 460 l 517 685 q 553 708 531 708 l 690 708 l 454 372 l 699 0 z "},"y":{"ha":725,"x_min":9,"x_max":719,"o":"m 719 708 l 329 -201 q 311 -226 322 -217 q 278 -235 300 -235 l 167 -235 l 298 48 l 9 708 l 139 708 q 168 700 158 708 q 183 679 178 691 l 351 277 q 363 243 358 260 q 373 208 368 226 q 384 243 378 226 q 397 278 390 260 l 558 679 q 575 700 563 692 q 600 708 586 708 l 719 708 z "},"z":{"ha":633,"x_min":38,"x_max":590,"o":"m 590 646 q 585 615 590 630 q 570 589 580 599 l 211 116 l 578 116 l 578 0 l 38 0 l 38 63 q 43 88 38 73 q 58 115 48 102 l 419 592 l 59 592 l 59 708 l 590 708 l 590 646 z "},"ª":{"ha":510,"x_min":63,"x_max":426,"o":"m 321 761 q 247 755 276 760 q 199 741 217 749 q 173 722 181 733 q 165 698 165 710 q 181 663 165 674 q 222 653 197 653 q 276 664 253 653 q 321 697 299 675 l 321 761 m 84 946 q 166 997 122 981 q 263 1013 210 1013 q 331 1001 301 1013 q 383 967 362 989 q 415 915 404 945 q 426 849 426 885 l 426 584 l 376 584 q 354 588 361 584 q 340 606 347 592 l 331 635 q 299 611 314 622 q 267 593 283 600 q 231 582 250 585 q 189 578 212 578 q 138 585 161 578 q 98 607 115 592 q 72 643 81 622 q 63 693 63 665 q 75 740 63 717 q 117 783 88 764 q 197 815 147 802 q 321 828 247 827 l 321 849 q 303 908 321 890 q 250 926 285 926 q 209 920 225 926 q 180 908 192 915 q 157 897 167 902 q 134 891 147 891 q 116 897 123 891 q 103 911 108 903 l 84 946 z "},"º":{"ha":558,"x_min":58,"x_max":500,"o":"m 280 1013 q 370 997 329 1013 q 439 954 410 982 q 484 885 468 926 q 500 795 500 845 q 484 703 500 744 q 439 634 468 663 q 370 591 410 606 q 280 576 329 576 q 189 591 230 576 q 119 634 148 606 q 74 703 90 663 q 58 795 58 744 q 74 885 58 845 q 119 954 90 926 q 189 997 148 982 q 280 1013 230 1013 m 280 664 q 383 794 383 664 q 280 924 383 924 q 200 891 226 924 q 174 794 174 859 q 200 696 174 728 q 280 664 226 664 z "},"ⁿ":{"ha":429,"x_min":53,"x_max":380,"o":"m 142 952 q 192 991 165 976 q 257 1006 218 1006 q 310 995 287 1006 q 348 966 333 985 q 372 923 364 948 q 380 867 380 897 l 380 636 l 276 636 l 276 867 q 224 922 276 922 q 190 915 206 922 q 158 893 173 907 l 158 636 l 53 636 l 53 1000 l 109 1000 q 137 978 129 1000 l 142 952 z "},"`":{"ha":556,"x_min":72,"x_max":374,"o":"m 213 1011 q 251 1003 238 1011 q 273 977 263 994 l 374 809 l 290 809 q 261 814 272 809 q 240 831 251 819 l 72 1011 l 213 1011 z "},"´":{"ha":556,"x_min":194,"x_max":500,"o":"m 500 1011 l 333 831 q 311 814 322 819 q 283 809 300 809 l 194 809 l 294 977 q 317 1003 304 994 q 355 1011 330 1011 l 500 1011 z "},"ˆ":{"ha":556,"x_min":51,"x_max":505,"o":"m 505 812 l 405 812 q 387 815 396 812 q 369 827 378 817 l 293 908 q 281 922 287 914 q 274 915 277 918 q 267 908 271 911 l 190 827 q 173 816 182 819 q 154 812 164 812 l 51 812 l 208 1000 l 347 1000 l 505 812 z "},"ˇ":{"ha":556,"x_min":51,"x_max":505,"o":"m 505 1000 l 347 812 l 208 812 l 51 1000 l 154 1000 q 172 997 164 1000 q 185 989 181 993 l 266 904 q 280 888 272 897 q 286 897 283 893 q 293 904 290 901 l 374 989 q 388 996 379 992 q 405 1000 396 1000 l 505 1000 z "},"̕":{"ha":0,"x_min":200,"x_max":367,"o":"m 341 1029 q 363 1021 358 1029 q 367 1005 367 1013 q 364 987 367 999 q 355 956 362 976 q 336 903 348 935 q 305 823 324 871 q 284 800 297 806 q 252 795 272 795 l 200 795 l 241 1029 l 341 1029 z "},"˜":{"ha":556,"x_min":67,"x_max":492,"o":"m 353 933 q 388 946 376 933 q 401 989 401 959 l 492 989 q 483 923 492 953 q 455 873 473 894 q 413 840 438 851 q 359 828 388 828 q 313 838 335 828 q 273 858 292 847 q 238 879 254 869 q 206 888 221 888 q 172 875 184 888 q 159 831 159 861 l 67 831 q 77 897 67 867 q 105 948 87 927 q 147 981 122 969 q 201 993 172 993 q 247 984 226 993 q 288 963 269 974 q 323 943 306 952 q 353 933 339 933 z "},"¨":{"ha":556,"x_min":53,"x_max":502,"o":"m 228 897 q 222 863 228 878 q 202 836 215 847 q 174 817 190 824 q 140 810 158 810 q 107 817 122 810 q 79 836 91 824 q 60 863 67 847 q 53 897 53 878 q 60 931 53 915 q 79 959 67 947 q 107 978 91 972 q 140 985 122 985 q 174 978 158 985 q 202 959 190 972 q 222 931 215 947 q 228 897 228 915 m 502 897 q 495 863 502 878 q 476 836 488 847 q 448 817 464 824 q 414 810 432 810 q 380 817 396 810 q 353 836 365 824 q 334 863 341 847 q 327 897 327 878 q 334 931 327 915 q 353 959 341 947 q 380 978 365 972 q 414 985 396 985 q 448 978 432 985 q 476 959 464 972 q 495 931 488 947 q 502 897 502 915 z "},"¯":{"ha":556,"x_min":74,"x_max":481,"o":"m 74 945 l 481 945 l 481 849 l 74 849 l 74 945 z "},"˘":{"ha":556,"x_min":77,"x_max":478,"o":"m 278 808 q 183 823 222 808 q 121 865 144 838 q 87 926 97 891 q 77 1000 77 960 l 182 1000 q 186 960 182 978 q 202 930 191 942 q 231 910 213 917 q 278 903 249 903 q 324 910 306 903 q 354 930 343 917 q 369 960 365 942 q 374 1000 374 978 l 478 1000 q 468 926 478 960 q 435 865 458 891 q 373 823 411 838 q 278 808 334 808 z "},"˚":{"ha":556,"x_min":131,"x_max":426,"o":"m 131 917 q 142 973 131 948 q 174 1017 154 999 q 221 1044 194 1035 q 277 1054 248 1054 q 334 1044 307 1054 q 381 1017 361 1035 q 414 973 401 999 q 426 917 426 948 q 414 862 426 887 q 381 820 401 838 q 334 792 361 802 q 277 783 307 783 q 221 792 248 783 q 174 820 194 802 q 142 862 154 838 q 131 917 131 887 m 213 917 q 230 870 213 888 q 278 852 247 852 q 326 870 308 852 q 344 917 344 888 q 326 965 344 947 q 278 983 308 983 q 230 965 247 983 q 213 917 213 947 z "},"˝":{"ha":556,"x_min":116,"x_max":597,"o":"m 366 1011 l 228 831 q 207 814 218 818 q 178 809 195 809 l 116 809 l 208 977 q 230 1003 217 994 q 269 1011 243 1011 l 366 1011 m 597 1011 l 425 831 q 403 814 414 819 q 375 809 392 809 l 304 809 l 428 977 q 440 992 434 985 q 452 1002 445 998 q 467 1009 458 1007 q 489 1011 476 1011 l 597 1011 z "},"˙":{"ha":556,"x_min":178,"x_max":378,"o":"m 378 926 q 370 888 378 906 q 348 857 362 870 q 316 835 334 843 q 277 827 297 827 q 239 835 257 827 q 208 857 222 843 q 186 888 194 870 q 178 926 178 906 q 186 965 178 947 q 208 997 194 983 q 239 1018 222 1010 q 277 1026 257 1026 q 316 1018 297 1026 q 348 997 334 1010 q 370 965 362 983 q 378 926 378 947 z "},"¸":{"ha":556,"x_min":163,"x_max":426,"o":"m 306 -47 q 398 -86 371 -60 q 426 -149 426 -111 q 414 -190 426 -172 q 381 -221 402 -208 q 330 -241 360 -234 q 265 -248 301 -248 q 211 -243 237 -248 q 163 -229 186 -238 l 177 -183 q 195 -168 181 -168 q 205 -170 200 -168 q 218 -175 210 -172 q 234 -179 225 -177 q 256 -181 244 -181 q 295 -171 283 -181 q 308 -147 308 -161 q 281 -114 308 -123 q 202 -97 254 -104 l 241 22 l 325 22 l 306 -47 z "},"˛":{"ha":556,"x_min":152,"x_max":415,"o":"m 377 -137 q 392 -147 388 -137 l 415 -203 q 359 -228 392 -219 q 289 -238 326 -238 q 188 -210 224 -238 q 152 -137 152 -183 q 183 -57 152 -95 q 265 9 213 -19 l 341 0 q 314 -18 327 -8 q 289 -41 300 -28 q 271 -68 278 -53 q 264 -100 264 -83 q 279 -136 264 -123 q 320 -150 294 -150 q 344 -148 335 -150 q 359 -144 353 -146 q 369 -140 365 -142 q 377 -137 374 -137 z "},"Γ":{"ha":763,"x_min":119,"x_max":742,"o":"m 742 873 l 282 873 l 282 0 l 119 0 l 119 1000 l 742 1000 l 742 873 z "},"Δ":{"ha":956,"x_min":15,"x_max":940,"o":"m 183 130 l 757 130 l 510 740 q 491 793 501 763 q 473 859 482 824 q 455 793 465 823 q 436 740 446 763 l 183 130 m 920 144 q 940 47 940 96 l 940 0 l 15 0 l 15 47 q 20 93 15 69 q 35 142 25 117 l 397 1000 l 562 1000 l 920 144 z "},"Θ":{"ha":1117,"x_min":58,"x_max":1058,"o":"m 368 569 l 748 569 l 748 438 l 368 438 l 368 569 m 1058 500 q 1022 295 1058 389 q 920 134 986 201 q 763 28 855 66 q 558 -10 671 -10 q 355 28 447 -10 q 197 134 263 66 q 94 295 131 201 q 58 500 58 389 q 94 705 58 611 q 197 867 131 799 q 355 973 263 935 q 558 1011 447 1011 q 763 973 671 1011 q 920 867 855 935 q 1022 705 986 799 q 1058 500 1058 611 m 892 500 q 869 655 892 586 q 802 772 846 724 q 697 845 759 819 q 558 871 635 871 q 420 845 482 871 q 315 772 358 819 q 247 655 271 724 q 224 500 224 586 q 247 344 224 413 q 315 228 271 276 q 420 155 358 181 q 558 130 482 130 q 697 155 635 130 q 802 228 759 181 q 869 344 846 276 q 892 500 892 413 z "},"Λ":{"ha":951,"x_min":-3,"x_max":954,"o":"m 954 0 l 815 0 q 780 11 793 0 q 760 38 767 22 l 503 690 q 482 750 492 717 q 464 817 472 782 q 448 750 456 782 q 428 690 439 717 l 172 38 q 152 12 166 24 q 118 0 138 0 l -3 0 l 402 1000 l 549 1000 l 954 0 z "},"Ξ":{"ha":863,"x_min":56,"x_max":810,"o":"m 810 1000 l 810 864 l 56 864 l 56 1000 l 810 1000 m 810 136 l 810 0 l 56 0 l 56 136 l 810 136 m 228 574 l 635 574 l 635 433 l 228 433 l 228 574 z "},"Π":{"ha":1066,"x_min":119,"x_max":947,"o":"m 947 0 l 784 0 l 784 873 l 282 873 l 282 0 l 119 0 l 119 1000 l 947 1000 l 947 0 z "},"Σ":{"ha":848,"x_min":44,"x_max":798,"o":"m 338 873 q 274 876 302 873 q 217 884 245 878 q 273 849 248 867 q 318 806 297 830 l 492 592 q 514 565 506 576 q 526 544 522 553 q 532 528 531 535 q 534 514 534 521 q 526 478 534 497 q 492 428 519 459 l 288 182 q 251 143 266 157 q 221 119 236 129 q 273 125 249 124 q 318 127 297 127 l 798 127 l 798 0 l 44 0 l 44 61 q 52 97 44 79 q 74 128 61 115 l 390 499 l 63 883 q 49 905 55 893 q 44 930 44 917 l 44 1000 l 798 1000 l 798 873 l 338 873 z "},"Φ":{"ha":1170,"x_min":44,"x_max":1127,"o":"m 663 182 q 790 209 733 183 q 886 278 847 235 q 948 378 926 321 q 970 502 970 436 q 948 625 970 567 q 886 727 926 683 q 790 796 847 770 q 663 823 733 822 l 663 182 m 508 823 q 381 796 438 822 q 284 727 324 770 q 222 625 244 683 q 201 502 201 567 q 222 378 201 436 q 284 278 244 321 q 381 209 324 235 q 508 182 438 183 l 508 823 m 663 949 q 856 913 769 948 q 1002 816 942 877 q 1095 675 1063 756 q 1127 502 1127 594 q 1095 330 1127 410 q 1002 188 1063 249 q 856 91 942 127 q 663 55 769 56 l 663 -78 l 508 -78 l 508 55 q 315 91 401 56 q 169 188 229 127 q 76 330 108 249 q 44 502 44 410 q 76 675 44 594 q 170 816 109 756 q 316 913 231 877 q 508 949 402 948 l 508 1078 l 663 1078 l 663 949 z "},"Ψ":{"ha":1146,"x_min":64,"x_max":1081,"o":"m 1081 1000 l 1081 642 q 1054 482 1081 553 q 973 358 1026 410 q 839 276 919 306 q 653 242 758 247 l 653 0 l 490 0 l 490 242 q 306 277 385 247 q 172 358 226 307 q 91 482 119 410 q 64 642 64 553 l 64 1000 l 172 1000 q 213 984 199 1000 q 226 944 226 968 l 226 642 q 241 531 226 579 q 286 449 255 483 q 368 397 318 415 q 490 374 419 378 l 490 1000 l 653 1000 l 653 373 q 775 396 725 377 q 858 449 826 415 q 904 531 890 483 q 918 642 918 579 l 918 944 q 932 984 918 968 q 972 1000 947 1000 l 1081 1000 z "},"Ω":{"ha":1128,"x_min":65,"x_max":1063,"o":"m 1063 136 l 1063 52 q 1048 15 1063 29 q 1008 0 1033 0 l 642 0 l 642 187 q 740 227 694 196 q 818 306 785 258 q 870 416 851 354 q 890 547 890 477 q 863 689 890 628 q 792 790 837 749 q 689 850 748 830 q 564 870 629 870 q 439 850 498 870 q 335 790 380 830 q 265 689 291 749 q 238 547 238 628 q 257 416 238 477 q 310 306 276 354 q 388 227 343 258 q 485 187 433 196 l 485 0 l 120 0 q 80 15 95 0 q 65 52 65 29 l 65 136 l 244 136 q 303 133 273 136 q 362 126 333 131 q 247 189 299 148 q 157 284 195 229 q 98 406 119 338 q 77 548 77 473 q 115 735 77 650 q 219 882 153 820 q 373 977 285 943 q 564 1011 462 1011 q 755 977 666 1011 q 909 882 843 943 q 1013 735 975 820 q 1051 548 1051 650 q 1030 406 1051 473 q 970 284 1008 338 q 881 189 933 229 q 766 126 828 148 q 825 133 795 131 q 884 136 855 136 l 1063 136 z "},"α":{"ha":830,"x_min":52,"x_max":824,"o":"m 559 496 q 534 538 549 517 q 497 573 518 558 q 450 597 476 588 q 394 606 424 606 q 322 591 356 606 q 262 544 288 576 q 221 463 236 513 q 206 345 206 414 q 219 237 206 282 q 255 164 232 192 q 307 123 277 136 q 370 110 337 110 q 431 122 402 110 q 483 160 460 134 q 521 226 506 186 q 542 323 536 267 l 559 496 m 824 105 l 824 45 q 798 9 824 25 q 727 -6 773 -6 q 676 1 701 -6 q 630 23 651 8 q 592 60 608 38 q 565 115 576 83 q 515 57 542 81 q 457 18 487 33 q 395 -3 426 3 q 334 -10 364 -10 q 223 14 274 -10 q 133 84 172 38 q 74 194 95 129 q 52 341 52 259 q 76 498 52 427 q 143 618 101 568 q 243 694 185 667 q 367 722 301 722 q 492 694 438 722 q 581 622 546 666 l 592 680 q 631 708 601 708 l 722 708 l 684 337 q 680 270 683 303 q 676 208 676 238 q 684 161 676 181 q 706 129 692 142 q 739 111 720 117 q 778 105 757 105 l 824 105 z "},"β":{"ha":782,"x_min":90,"x_max":734,"o":"m 240 182 q 302 124 267 142 q 386 106 336 106 q 472 122 435 106 q 534 165 509 138 q 570 230 558 192 q 583 308 583 267 q 566 395 583 360 q 522 450 550 430 q 458 480 494 471 q 383 488 422 488 l 340 488 l 340 606 l 365 606 q 433 614 402 606 q 485 639 463 622 q 518 683 506 656 q 530 750 530 710 q 493 863 530 826 q 390 901 456 901 q 322 886 351 901 q 275 840 294 872 q 248 757 257 808 q 240 633 240 706 l 240 182 m 90 638 q 109 795 90 726 q 165 912 127 864 q 259 985 202 960 q 393 1010 316 1010 q 518 990 465 1010 q 604 934 570 969 q 655 855 638 899 q 671 763 671 810 q 633 632 671 687 q 525 551 594 576 q 614 515 575 539 q 680 458 653 491 q 720 383 706 424 q 734 293 734 341 q 712 177 734 232 q 649 81 690 122 q 551 14 608 39 q 424 -10 494 -10 q 240 63 308 -10 l 240 -247 l 90 -247 l 90 638 z "},"γ":{"ha":767,"x_min":27,"x_max":751,"o":"m 751 708 q 703 541 733 626 q 635 374 673 456 q 552 213 597 291 q 461 64 508 134 l 461 -235 l 312 -235 l 312 65 q 283 201 298 135 q 249 328 267 268 q 210 438 231 388 q 165 525 189 488 q 113 582 140 562 q 53 603 85 603 l 27 603 l 27 658 q 30 680 27 669 q 42 698 33 690 q 65 709 50 705 q 102 714 79 714 q 219 678 169 714 q 308 575 270 642 q 371 411 345 508 q 414 194 397 315 q 470 303 444 245 q 517 420 496 360 q 553 541 538 481 q 581 660 569 602 q 598 698 585 688 q 626 708 610 708 l 751 708 z "},"δ":{"ha":772,"x_min":49,"x_max":722,"o":"m 387 105 q 463 119 428 105 q 521 160 497 133 q 559 226 546 188 q 573 315 573 265 q 558 408 573 367 q 517 481 542 449 q 458 539 491 513 q 388 585 424 564 q 318 550 351 572 q 259 497 285 528 q 218 424 233 466 q 203 326 203 382 q 214 241 203 281 q 248 170 225 201 q 306 123 271 140 q 387 105 340 105 m 629 888 q 617 862 626 868 q 590 856 608 856 q 556 861 579 856 q 503 873 533 866 q 442 884 474 879 q 382 890 410 890 q 306 874 328 890 q 283 834 283 858 q 302 792 283 812 q 352 753 321 773 q 422 712 383 733 q 502 664 461 690 q 583 606 544 638 q 653 532 622 574 q 703 438 684 490 q 722 319 722 385 q 698 187 722 247 q 632 83 675 126 q 527 15 589 40 q 387 -9 465 -9 q 244 16 307 -9 q 138 85 181 41 q 72 190 95 130 q 49 322 49 251 q 109 517 49 436 q 290 642 169 598 q 233 680 260 660 q 186 722 206 699 q 155 772 167 744 q 143 834 143 799 q 158 903 143 872 q 203 958 172 935 q 280 994 233 981 q 392 1007 327 1007 q 448 1005 417 1007 q 514 999 480 1003 q 580 991 547 996 q 641 979 613 985 l 629 888 z "},"ε":{"ha":633,"x_min":53,"x_max":602,"o":"m 602 103 q 545 50 576 72 q 479 16 513 29 q 409 -3 444 3 q 341 -9 374 -9 q 231 6 283 -9 q 140 48 179 20 q 77 115 100 75 q 53 205 53 154 q 88 307 53 265 q 179 371 122 349 q 128 402 149 384 q 94 440 107 419 q 75 483 81 461 q 69 526 69 505 q 86 600 69 565 q 139 661 104 635 q 227 704 174 688 q 349 719 279 719 q 487 695 429 719 q 585 633 545 672 l 551 576 q 536 558 543 563 q 518 554 528 554 q 495 562 508 554 q 464 579 483 569 q 417 596 444 588 q 351 604 390 604 q 291 597 317 604 q 248 578 265 590 q 222 549 231 566 q 213 513 213 533 q 253 445 213 472 q 365 418 292 418 l 479 418 l 479 319 l 365 319 q 244 292 283 319 q 205 217 205 265 q 215 173 205 193 q 243 137 224 152 q 289 113 262 122 q 349 105 315 105 q 422 115 393 105 q 470 138 450 126 q 503 161 490 151 q 532 172 517 172 q 560 158 550 172 l 602 103 z "},"ζ":{"ha":553,"x_min":51,"x_max":577,"o":"m 568 938 q 567 921 569 930 q 557 899 565 912 q 533 868 549 886 q 490 824 517 849 q 428 764 461 796 q 361 694 394 731 q 298 617 328 658 q 245 532 268 576 q 208 441 222 488 q 194 344 194 394 q 205 270 194 301 q 239 217 217 240 q 295 178 262 194 q 374 149 329 163 q 477 107 437 128 q 539 61 517 85 q 569 11 561 38 q 577 -44 577 -15 q 561 -136 577 -91 q 517 -228 546 -181 l 401 -182 q 414 -159 408 -172 q 426 -132 421 -146 q 435 -103 432 -118 q 439 -75 439 -89 q 434 -50 439 -62 q 414 -24 429 -37 q 372 2 399 -11 q 299 28 344 15 q 192 71 238 47 q 115 129 146 95 q 67 208 83 163 q 51 313 51 253 q 77 464 51 392 q 151 607 103 537 q 262 748 198 678 q 403 890 326 817 q 228 878 322 878 l 149 878 q 120 882 132 878 q 101 894 108 887 q 91 910 94 901 q 88 927 88 919 l 88 1000 l 554 1000 l 568 938 z "},"η":{"ha":817,"x_min":13,"x_max":733,"o":"m 13 665 q 17 683 13 674 q 30 700 21 692 q 54 711 39 707 q 90 715 69 715 q 189 690 146 715 q 251 609 232 664 q 302 654 275 633 q 360 689 330 674 q 424 711 390 703 q 496 719 458 719 q 598 700 554 719 q 673 645 642 681 q 718 560 703 610 q 733 451 733 510 l 733 -235 l 585 -235 l 585 451 q 552 562 585 522 q 451 601 519 601 q 359 578 401 601 q 278 516 316 556 l 278 0 l 129 0 l 129 507 q 108 581 129 557 q 44 604 86 604 l 13 604 l 13 665 z "},"θ":{"ha":833,"x_min":72,"x_max":762,"o":"m 217 458 q 234 300 220 366 q 274 191 249 234 q 335 127 299 148 q 418 107 372 107 q 499 127 463 107 q 560 191 535 148 q 600 300 585 234 q 617 458 614 366 l 217 458 m 616 561 q 598 711 613 648 q 558 815 583 774 q 498 876 533 856 q 418 896 463 896 q 276 815 327 896 q 218 561 225 735 l 616 561 m 418 1012 q 560 979 497 1012 q 668 882 624 947 q 738 722 713 817 q 762 501 762 626 q 738 280 762 376 q 668 119 713 184 q 560 22 624 55 q 418 -10 497 -10 q 275 22 339 -10 q 166 119 211 55 q 96 280 120 184 q 72 501 72 376 q 96 722 72 626 q 166 882 120 817 q 275 979 211 947 q 418 1012 339 1012 z "},"ι":{"ha":379,"x_min":86,"x_max":385,"o":"m 86 708 l 235 708 l 235 203 q 256 128 235 153 q 324 103 277 103 l 385 103 l 385 57 q 375 29 385 41 q 348 8 365 17 q 310 -4 331 0 q 265 -8 288 -8 q 188 7 222 -8 q 132 49 154 22 q 98 113 109 76 q 86 194 86 150 l 86 708 z "},"λ":{"ha":756,"x_min":23,"x_max":758,"o":"m 758 103 l 758 44 q 739 2 758 12 q 687 -8 721 -8 q 629 -2 658 -8 q 575 19 601 4 q 528 62 549 35 q 492 132 506 89 l 383 414 q 374 445 377 431 q 368 473 370 459 q 360 445 365 459 q 349 416 355 431 l 195 29 q 179 9 190 17 q 151 0 169 0 l 23 0 l 297 642 l 232 826 q 216 861 224 847 q 195 883 207 875 q 166 895 183 892 q 126 898 149 898 l 74 898 l 74 953 q 78 975 74 965 q 92 993 82 985 q 119 1005 102 1001 q 163 1010 136 1010 q 221 1004 192 1010 q 276 984 250 999 q 322 945 301 969 q 357 883 343 920 l 619 176 q 655 121 633 138 q 715 103 676 103 l 758 103 z "},"μ":{"ha":835,"x_min":91,"x_max":833,"o":"m 833 104 l 833 44 q 808 9 833 24 q 737 -7 783 -7 q 681 1 708 -7 q 632 27 654 10 q 593 71 609 44 q 568 134 576 98 q 478 41 528 74 q 364 8 428 8 q 282 21 317 8 q 221 60 247 35 q 228 1 226 31 q 231 -56 231 -30 l 231 -235 l 157 -235 q 108 -219 126 -235 q 91 -172 91 -203 l 91 708 l 240 708 l 240 285 q 274 173 240 215 q 374 131 307 131 q 476 163 433 131 q 547 253 519 194 l 547 708 l 696 708 l 696 201 q 721 128 696 151 q 788 104 746 104 l 833 104 z "},"ν":{"ha":719,"x_min":10,"x_max":704,"o":"m 704 708 q 651 520 683 615 q 579 334 619 425 q 490 158 538 243 q 387 0 441 74 l 295 0 l 10 708 l 133 708 q 161 700 150 708 q 176 679 173 691 l 334 267 q 350 212 344 239 q 363 158 357 185 q 422 273 396 211 q 469 401 449 335 q 506 534 490 467 q 534 664 522 601 q 550 698 538 688 q 578 708 563 708 l 704 708 z "},"ξ":{"ha":555,"x_min":51,"x_max":560,"o":"m 546 938 q 541 914 546 924 q 528 895 536 903 q 509 884 519 888 q 488 880 499 880 l 424 880 q 345 867 381 880 q 284 832 310 854 q 244 778 258 809 q 231 710 231 747 q 279 617 231 649 q 417 585 327 585 l 483 585 l 483 467 l 383 467 q 301 456 335 467 q 243 425 266 445 q 210 376 221 404 q 199 313 199 347 q 212 252 199 278 q 250 206 224 226 q 316 167 276 185 q 410 130 356 149 q 482 97 453 115 q 528 59 510 79 q 552 15 545 38 q 560 -37 560 -9 q 544 -135 560 -88 q 499 -228 528 -181 l 383 -182 q 409 -132 397 -160 q 422 -77 422 -103 q 418 -50 422 -62 q 403 -26 414 -37 q 375 -6 393 -15 q 327 13 356 4 q 223 50 273 28 q 135 106 174 72 q 74 186 97 140 q 51 299 51 233 q 59 364 51 330 q 85 429 67 397 q 132 488 103 460 q 204 534 161 515 q 122 600 150 559 q 93 699 93 642 q 103 759 93 731 q 132 810 114 787 q 175 853 150 833 q 228 887 199 872 l 121 887 q 74 902 88 887 q 60 944 60 918 l 60 1000 l 546 1000 l 546 938 z "},"π":{"ha":867,"x_min":49,"x_max":825,"o":"m 825 633 q 813 600 825 613 q 778 586 801 586 l 683 586 q 682 542 683 563 q 682 499 682 520 q 684 346 682 410 q 692 239 687 283 q 705 169 697 195 q 724 128 713 142 q 748 110 734 115 q 777 106 761 106 l 806 106 l 806 45 q 779 8 806 21 q 712 -5 751 -5 q 582 55 624 -5 q 540 238 540 114 q 542 305 540 269 q 549 382 545 340 q 558 474 553 424 q 564 586 562 524 l 326 586 q 316 376 324 467 q 294 220 308 285 q 264 111 281 154 q 224 41 246 67 q 175 5 201 15 q 119 -6 149 -6 q 98 -4 109 -6 q 78 1 88 -2 q 64 10 69 5 q 58 23 58 15 l 58 124 l 72 124 q 114 149 93 124 q 152 228 135 174 q 181 372 169 283 q 197 586 192 460 l 49 586 l 49 649 q 53 668 49 658 q 64 686 57 678 q 82 699 72 694 q 106 704 92 704 l 825 704 l 825 633 z "},"ρ":{"ha":786,"x_min":82,"x_max":735,"o":"m 231 191 q 307 125 264 145 q 395 105 350 105 q 532 169 483 105 q 581 359 581 233 q 568 470 581 424 q 532 546 555 517 q 476 588 508 575 q 404 601 443 601 q 336 588 368 601 q 281 550 305 575 q 244 488 258 525 q 231 403 231 451 l 231 191 m 82 403 q 104 534 82 476 q 167 634 126 592 q 268 698 208 675 q 404 720 328 720 q 532 696 472 720 q 638 625 592 672 q 709 512 683 579 q 735 359 735 444 q 714 213 735 281 q 653 95 692 145 q 557 18 613 46 q 429 -10 500 -10 q 319 10 369 -10 q 231 68 269 31 l 231 -235 l 82 -235 l 82 403 z "},"σ":{"ha":843,"x_min":51,"x_max":843,"o":"m 448 592 q 338 576 383 592 q 262 528 292 560 q 219 451 233 497 q 206 343 206 404 q 254 166 206 225 q 397 106 302 106 q 540 168 494 106 q 587 352 587 230 q 581 432 587 393 q 562 503 574 471 q 530 558 549 535 q 483 592 510 581 l 448 592 m 843 706 l 843 635 q 840 620 843 628 q 831 606 837 613 q 815 596 824 600 q 795 592 806 592 l 638 592 q 713 491 686 553 q 740 345 740 430 q 716 202 740 267 q 647 90 692 137 q 540 16 603 42 q 397 -10 476 -10 q 256 14 320 -10 q 147 84 192 38 q 76 197 101 131 q 51 346 51 263 q 78 497 51 430 q 156 610 105 564 q 281 682 207 657 q 449 706 355 706 l 843 706 z "},"ς":{"ha":651,"x_min":51,"x_max":630,"o":"m 591 569 q 577 556 584 560 q 559 551 571 551 q 535 559 547 551 q 505 577 522 567 q 461 596 487 588 q 399 604 436 604 q 314 588 351 604 q 253 542 278 571 q 216 473 228 513 q 203 390 203 434 q 219 284 203 325 q 267 216 235 243 q 345 170 299 189 q 455 130 392 151 q 527 97 498 115 q 573 59 556 79 q 598 15 590 38 q 605 -37 605 -9 q 589 -135 605 -88 q 544 -228 574 -181 l 428 -182 q 454 -132 442 -160 q 467 -77 467 -103 q 463 -50 467 -62 q 449 -26 459 -37 q 420 -6 438 -15 q 372 13 401 4 q 248 57 306 32 q 146 123 190 82 q 76 225 102 163 q 51 380 51 287 q 73 511 51 449 q 138 619 95 572 q 244 692 181 665 q 390 719 308 719 q 526 694 467 719 q 630 624 584 669 l 591 569 z "},"τ":{"ha":656,"x_min":15,"x_max":637,"o":"m 637 644 q 623 605 637 618 q 585 591 610 591 l 376 591 l 376 205 q 397 131 376 156 q 465 106 418 106 l 526 106 l 526 59 q 516 31 526 43 q 489 11 506 19 q 451 -1 472 3 q 406 -6 429 -6 q 329 9 363 -6 q 273 51 295 24 q 239 115 250 78 q 227 197 227 152 l 227 591 l 15 591 l 15 656 q 27 689 15 674 q 65 704 40 704 l 637 704 l 637 644 z "},"υ":{"ha":772,"x_min":83,"x_max":701,"o":"m 665 708 q 678 624 672 665 q 690 543 685 583 q 698 463 695 503 q 701 378 701 422 q 674 202 701 276 q 601 82 647 129 q 495 11 555 34 q 372 -11 436 -11 q 250 8 303 -11 q 159 61 196 26 q 103 146 122 96 q 83 258 83 196 l 83 708 l 233 708 l 233 258 q 243 194 233 222 q 274 147 254 166 q 321 117 294 127 q 382 107 349 107 q 444 120 413 107 q 501 164 476 133 q 541 247 526 195 q 557 378 557 299 q 553 448 557 413 q 544 518 549 483 q 532 588 539 553 q 521 659 526 624 q 523 682 519 672 q 533 697 526 692 q 547 706 539 703 q 563 708 555 708 l 665 708 z "},"φ":{"ha":1049,"x_min":50,"x_max":999,"o":"m 592 101 q 703 121 655 102 q 784 176 751 140 q 833 261 817 211 q 850 374 850 311 q 835 470 850 427 q 797 544 821 513 q 743 591 773 574 q 682 608 713 608 q 616 581 640 608 q 592 490 592 554 l 592 101 m 452 490 q 468 594 452 551 q 513 665 483 637 q 586 706 543 693 q 682 719 628 719 q 811 693 753 719 q 911 620 869 666 q 976 510 953 574 q 999 374 999 447 q 970 217 999 288 q 887 96 941 146 q 758 18 833 46 q 592 -10 683 -10 l 592 -235 l 452 -235 l 452 -10 q 287 18 361 -10 q 160 93 213 45 q 78 208 107 142 q 50 355 50 275 q 68 474 50 418 q 120 575 87 529 q 200 657 153 621 q 304 715 247 692 l 342 655 q 349 636 348 647 q 347 618 349 626 q 339 602 344 609 q 327 592 333 595 q 233 498 266 559 q 199 354 199 436 q 216 253 199 299 q 265 174 233 207 q 344 122 297 140 q 452 101 392 103 l 452 490 z "},"χ":{"ha":676,"x_min":-1,"x_max":688,"o":"m 688 -135 l 688 -195 q 685 -221 688 -211 q 675 -237 682 -231 q 657 -244 669 -242 q 628 -247 646 -247 q 570 -241 598 -247 q 518 -220 542 -235 q 472 -178 493 -206 q 432 -107 450 -151 l 321 146 q 312 103 317 124 q 301 67 307 83 l 169 -204 q 155 -225 165 -216 q 126 -233 144 -233 l 19 -233 l 254 263 l 135 533 q 116 568 126 554 q 93 590 106 582 q 64 602 81 599 q 24 606 47 606 l -1 606 l -1 661 q -1 683 -1 673 q 5 701 -1 693 q 22 713 10 708 q 59 717 35 717 q 126 711 96 717 q 182 689 157 704 q 226 650 206 674 q 260 590 245 626 l 369 342 q 377 384 372 364 q 388 420 382 404 l 510 680 q 525 700 515 692 q 554 709 535 709 l 660 709 l 435 229 l 563 -63 q 580 -95 572 -82 q 600 -118 589 -109 q 627 -131 612 -126 q 662 -135 642 -135 l 688 -135 z "},"ψ":{"ha":1080,"x_min":81,"x_max":1009,"o":"m 972 708 q 987 624 980 665 q 999 543 994 583 q 1006 463 1003 503 q 1009 378 1009 422 q 977 204 1009 275 q 892 89 946 133 q 767 21 839 44 q 615 -8 695 -1 l 615 -235 l 467 -235 l 467 -9 q 296 25 369 -2 q 176 96 224 51 q 104 202 128 140 q 81 340 81 263 l 81 708 l 183 708 q 201 703 192 708 q 215 689 209 697 q 225 670 222 680 q 229 651 229 660 l 229 340 q 245 250 229 289 q 292 182 262 210 q 367 136 323 153 q 467 111 411 118 l 467 1000 l 615 1000 l 615 110 q 714 132 669 116 q 791 179 759 148 q 842 259 824 210 q 860 378 860 308 q 855 468 860 430 q 844 539 851 507 q 832 599 838 571 q 823 659 826 628 q 836 697 823 686 q 865 708 849 708 l 972 708 z "},"ω":{"ha":1082,"x_min":55,"x_max":1027,"o":"m 934 708 q 1001 539 975 628 q 1027 358 1027 449 q 1007 207 1027 275 q 950 91 987 139 q 863 16 914 42 q 750 -11 812 -11 q 679 -2 711 -11 q 620 23 647 7 q 575 62 594 40 q 540 110 555 84 q 506 62 526 84 q 459 23 485 40 q 402 -2 433 7 q 333 -11 370 -11 q 219 16 271 -11 q 132 91 168 42 q 75 207 95 139 q 55 358 55 275 q 81 539 55 449 q 148 708 107 628 l 254 708 q 271 705 262 708 q 287 693 281 701 q 295 673 294 685 q 290 642 297 660 q 266 595 280 626 q 238 525 251 564 q 214 442 224 485 q 204 358 204 398 q 218 233 204 282 q 253 157 232 185 q 301 118 275 128 q 351 107 327 107 q 403 121 381 107 q 439 161 425 135 q 460 221 453 186 q 467 299 467 256 l 467 476 l 615 476 l 615 299 l 616 299 q 623 221 616 256 q 644 161 630 186 q 680 121 658 135 q 732 107 701 107 q 782 118 756 107 q 829 157 808 128 q 865 233 851 185 q 878 358 878 282 q 868 442 878 398 q 845 525 858 485 q 817 595 831 564 q 793 642 802 626 q 787 673 785 660 q 795 693 789 685 q 811 705 802 701 q 828 708 820 708 l 934 708 z "},"΄":{"ha":556,"x_min":233,"x_max":405,"o":"m 233 796 l 276 1044 l 368 1044 q 397 1030 390 1044 q 397 994 405 1017 l 320 796 l 233 796 z "},"΅":{"ha":556,"x_min":52,"x_max":561,"o":"m 231 800 l 274 1049 l 366 1049 q 395 1035 388 1049 q 395 998 403 1021 l 318 800 l 231 800 m 561 896 q 555 868 561 881 q 540 845 549 855 q 517 830 530 835 q 489 824 503 824 q 460 830 474 824 q 438 845 447 835 q 422 868 428 855 q 417 896 417 881 q 422 924 417 911 q 438 948 428 938 q 460 964 447 958 q 489 969 474 969 q 517 964 503 969 q 540 948 530 958 q 555 924 549 938 q 561 896 561 911 m 197 896 q 191 868 197 881 q 175 845 185 855 q 152 830 165 835 q 124 824 138 824 q 96 830 109 824 q 73 845 83 835 q 58 868 63 855 q 52 896 52 881 q 58 924 52 911 q 73 948 63 938 q 96 964 83 958 q 124 969 109 969 q 152 964 138 969 q 175 948 165 958 q 191 924 185 938 q 197 896 197 911 z "},"ʹ":{"ha":304,"x_min":53,"x_max":251,"o":"m 228 1053 q 224 841 251 944 q 115 652 197 739 l 69 681 q 54 702 55 690 q 59 723 53 714 q 93 774 78 749 q 114 824 108 799 q 117 877 121 850 q 96 935 114 904 l 96 1013 q 105 1041 96 1030 q 135 1053 115 1053 l 228 1053 z "},"͵":{"ha":304,"x_min":53,"x_max":251,"o":"m 228 246 q 224 34 251 137 q 115 -155 197 -68 l 69 -126 q 54 -105 55 -117 q 59 -84 53 -93 q 93 -33 78 -58 q 114 17 108 -8 q 117 70 121 43 q 96 128 114 97 l 96 206 q 105 234 96 223 q 135 246 115 246 l 228 246 z "},"Б":{"ha":868,"x_min":119,"x_max":817,"o":"m 458 128 q 551 141 513 128 q 613 175 589 153 q 647 226 636 197 q 658 290 658 256 q 647 358 658 328 q 613 408 637 388 q 552 440 590 428 q 459 451 514 451 l 281 451 l 281 128 l 458 128 m 459 579 q 621 558 553 579 q 733 501 689 538 q 797 415 776 465 q 817 307 817 365 q 793 180 817 237 q 724 83 769 124 q 611 22 678 43 q 458 0 544 0 l 119 0 l 119 1000 l 783 1000 l 783 873 l 281 873 l 281 579 l 459 579 z "},"Г":{"ha":749,"x_min":119,"x_max":728,"o":"m 728 873 l 282 873 l 282 0 l 119 0 l 119 1000 l 728 1000 l 728 873 z "},"Ґ":{"ha":749,"x_min":119,"x_max":728,"o":"m 728 873 l 282 873 l 282 0 l 119 0 l 119 1000 l 603 1000 l 603 1224 l 728 1224 l 728 873 z "},"Д":{"ha":1108,"x_min":10,"x_max":1075,"o":"m 753 127 l 753 873 l 453 873 q 430 595 444 715 q 395 384 415 474 q 352 232 376 294 q 300 127 328 169 l 753 127 m 1075 127 l 1075 -193 q 1061 -227 1075 -214 q 1024 -240 1047 -240 l 926 -240 l 926 0 l 158 0 l 158 -193 q 144 -227 158 -214 q 107 -240 130 -240 l 10 -240 l 10 127 l 115 127 q 156 160 135 138 q 195 226 176 183 q 231 333 214 268 q 262 491 248 397 q 285 710 276 584 q 300 1000 295 835 l 916 1000 l 916 127 l 1075 127 z "},"Ж":{"ha":1464,"x_min":6,"x_max":1457,"o":"m 1457 0 l 1349 0 q 1289 16 1314 0 q 1248 58 1263 31 l 1020 392 q 978 435 1001 422 q 919 448 954 448 l 808 448 l 808 0 l 656 0 l 656 448 l 545 448 q 486 435 510 448 q 444 392 463 422 l 216 58 q 175 16 201 31 q 115 0 150 0 l 6 0 l 285 428 q 335 491 308 467 q 398 526 363 515 q 347 558 368 538 q 306 608 326 578 l 32 1000 l 160 1000 q 206 988 184 1000 q 240 953 227 975 l 466 623 q 509 582 486 592 q 562 572 532 572 l 656 572 l 656 1000 l 808 1000 l 808 572 l 902 572 q 955 582 932 572 q 998 623 978 592 l 1224 953 q 1258 988 1237 975 q 1304 1000 1279 1000 l 1431 1000 l 1158 608 q 1117 558 1138 578 q 1065 526 1096 538 q 1128 491 1101 515 q 1179 428 1156 467 l 1457 0 z "},"З":{"ha":803,"x_min":22,"x_max":741,"o":"m 61 906 q 196 983 119 956 q 370 1010 274 1010 q 513 991 449 1010 q 621 938 576 972 q 690 856 666 903 q 714 751 714 808 q 680 622 714 679 q 579 531 645 565 q 645 491 615 514 q 696 440 675 468 q 729 379 717 412 q 741 309 741 346 q 716 184 741 242 q 644 83 692 126 q 528 15 597 40 q 371 -10 459 -10 q 268 0 318 -10 q 175 26 219 9 q 92 67 131 43 q 22 122 53 92 l 69 199 q 85 215 76 209 q 107 220 95 220 q 131 213 118 220 q 159 195 143 206 q 196 173 176 185 q 242 150 216 160 q 301 132 269 139 q 375 125 334 125 q 533 170 477 125 q 589 302 589 215 q 574 368 589 338 q 533 418 560 397 q 467 450 506 439 q 381 461 428 462 l 242 461 l 241 594 l 371 594 q 449 603 414 594 q 510 632 485 613 q 548 677 535 650 q 562 738 562 703 q 549 795 562 769 q 512 838 536 820 q 451 866 488 856 q 369 876 415 876 q 278 865 316 876 q 214 840 241 853 q 169 815 187 826 q 138 804 151 804 q 117 810 125 804 q 101 828 109 816 l 61 906 z "},"И":{"ha":1066,"x_min":119,"x_max":947,"o":"m 947 1000 l 947 0 l 784 0 l 784 664 q 786 733 784 697 q 793 811 788 769 q 765 744 780 775 q 735 690 750 713 l 312 51 q 299 33 306 42 q 282 16 292 24 q 263 5 273 9 q 240 0 252 0 l 119 0 l 119 1000 l 282 1000 l 282 337 q 280 267 282 303 q 273 190 278 231 q 301 257 286 226 q 330 310 316 288 l 753 949 q 766 967 759 958 q 783 984 774 976 q 803 995 792 991 q 825 1000 813 1000 l 947 1000 z "},"К":{"ha":950,"x_min":119,"x_max":944,"o":"m 944 0 l 797 0 q 758 13 774 0 q 728 49 742 25 l 491 399 q 473 422 482 413 q 453 437 464 431 q 428 445 442 443 q 397 448 414 448 l 281 448 l 281 0 l 119 0 l 119 1000 l 281 1000 l 281 572 l 379 572 q 431 582 410 572 q 472 619 451 592 l 711 956 q 740 988 723 975 q 781 1000 757 1000 l 918 1000 l 632 594 q 592 552 615 569 q 543 526 570 535 q 609 492 582 515 q 661 426 637 468 l 944 0 z "},"Л":{"ha":1021,"x_min":-4,"x_max":902,"o":"m 902 0 l 739 0 l 739 873 l 439 873 q 412 544 429 683 q 370 306 394 404 q 316 147 347 208 q 250 50 286 85 q 172 3 213 15 q 83 -10 130 -10 q -4 22 -4 -10 l -4 124 l 47 124 q 99 134 73 124 q 149 174 125 143 q 196 262 174 204 q 236 417 218 320 q 267 657 254 515 q 286 1000 280 800 l 902 1000 l 902 0 z "},"Љ":{"ha":1473,"x_min":-4,"x_max":1439,"o":"m 1079 128 q 1172 141 1134 128 q 1233 175 1210 153 q 1268 226 1257 197 q 1278 290 1278 256 q 1268 358 1278 328 q 1234 408 1258 388 q 1173 440 1210 428 q 1080 451 1135 451 l 902 451 l 902 128 l 1079 128 m 1080 579 q 1242 558 1174 579 q 1354 501 1310 538 q 1418 415 1398 465 q 1439 307 1439 365 q 1415 180 1439 237 q 1345 83 1391 124 q 1232 22 1299 43 q 1079 0 1165 0 l 739 0 l 739 873 l 439 873 q 412 544 429 683 q 370 306 394 404 q 316 147 347 208 q 250 50 286 85 q 172 3 213 15 q 83 -10 130 -10 q -4 22 -4 -10 l -4 124 l 47 124 q 99 134 73 124 q 149 174 125 143 q 196 262 174 204 q 236 417 218 320 q 267 657 254 515 q 286 1000 280 800 l 902 1000 l 902 579 l 1080 579 z "},"Њ":{"ha":1517,"x_min":119,"x_max":1483,"o":"m 1124 128 q 1217 141 1179 128 q 1278 175 1255 153 q 1313 226 1302 197 q 1323 290 1323 256 q 1313 358 1323 328 q 1278 408 1302 388 q 1217 440 1255 428 q 1124 451 1179 451 l 947 451 l 947 128 l 1124 128 m 1124 579 q 1287 558 1219 579 q 1399 501 1355 538 q 1463 415 1442 465 q 1483 307 1483 365 q 1459 180 1483 237 q 1389 83 1435 124 q 1276 22 1343 43 q 1124 0 1210 0 l 784 0 l 784 445 l 282 445 l 282 0 l 119 0 l 119 1000 l 282 1000 l 282 563 l 784 563 l 784 1000 l 947 1000 l 947 579 l 1124 579 z "},"Ѳ":{"ha":1117,"x_min":58,"x_max":1058,"o":"m 226 447 q 259 314 233 372 q 328 214 285 255 q 430 151 372 173 q 558 130 488 130 q 687 151 629 130 q 788 214 745 173 q 857 314 831 255 q 890 447 883 372 l 226 447 m 888 569 q 852 696 879 640 q 783 791 826 752 q 684 850 741 830 q 558 871 627 871 q 433 850 490 871 q 334 791 376 830 q 264 696 291 752 q 228 569 237 640 l 888 569 m 558 1011 q 763 973 671 1011 q 920 867 855 935 q 1022 705 986 799 q 1058 500 1058 611 q 1022 295 1058 389 q 920 134 986 201 q 763 28 855 66 q 558 -10 671 -10 q 355 28 447 -10 q 197 134 263 66 q 94 295 131 201 q 58 500 58 389 q 94 705 58 611 q 197 867 131 799 q 355 973 263 935 q 558 1011 447 1011 z "},"П":{"ha":1028,"x_min":119,"x_max":910,"o":"m 910 0 l 747 0 l 747 873 l 282 873 l 282 0 l 119 0 l 119 1000 l 910 1000 l 910 0 z "},"У":{"ha":883,"x_min":-3,"x_max":890,"o":"m 890 1000 l 485 135 q 441 64 465 92 q 391 20 418 36 q 334 -3 365 3 q 268 -10 303 -10 q 181 22 181 -10 l 181 124 l 232 124 q 265 128 249 124 q 298 140 282 131 q 328 164 313 149 q 355 205 342 180 l 399 295 l -3 1000 l 149 1000 q 183 990 170 1000 q 204 963 195 979 l 424 558 q 470 445 452 504 q 489 502 478 474 q 513 558 499 530 l 701 963 q 722 989 708 977 q 756 1000 735 1000 l 890 1000 z "},"Ѵ":{"ha":981,"x_min":-4,"x_max":967,"o":"m 697 861 q 769 970 721 935 q 894 1006 818 1006 q 952 998 937 1006 q 967 974 967 991 l 967 872 l 930 872 q 840 800 867 872 l 547 0 l 401 0 l -4 1000 l 126 1000 q 160 989 147 1000 q 180 963 174 978 l 438 310 q 458 251 448 283 q 476 183 468 219 q 493 251 484 219 q 512 310 501 283 l 697 861 z "},"Ф":{"ha":1103,"x_min":47,"x_max":1055,"o":"m 628 247 q 736 270 688 248 q 820 330 785 292 q 875 417 856 367 q 894 524 894 467 q 875 630 894 580 q 820 717 856 680 q 736 777 785 755 q 628 800 688 799 l 628 247 m 475 800 q 366 777 415 799 q 283 717 317 755 q 229 630 248 680 q 210 524 210 580 q 229 417 210 467 q 283 330 248 367 q 366 270 317 292 q 475 247 415 248 l 475 800 m 628 926 q 747 909 691 924 q 851 867 803 894 q 936 804 898 841 q 1000 723 974 767 q 1041 628 1026 679 q 1055 524 1055 578 q 1024 369 1055 442 q 936 243 992 297 q 801 156 880 188 q 628 120 723 123 l 628 0 l 475 0 l 475 120 q 302 156 381 123 q 166 243 223 188 q 78 369 110 297 q 47 524 47 442 q 79 678 47 606 q 167 804 110 750 q 303 891 224 858 q 475 926 381 924 l 475 1044 l 628 1044 l 628 926 z "},"Ц":{"ha":1094,"x_min":119,"x_max":1058,"o":"m 1058 127 l 1058 -193 q 1043 -227 1058 -214 q 1006 -240 1028 -240 l 909 -240 l 909 0 l 119 0 l 119 1000 l 282 1000 l 282 127 l 747 127 l 747 1000 l 910 1000 l 910 127 l 1058 127 z "},"Џ":{"ha":1028,"x_min":119,"x_max":910,"o":"m 910 1000 l 910 0 l 588 0 l 588 -193 q 574 -227 588 -214 q 537 -240 560 -240 l 440 -240 l 440 0 l 119 0 l 119 1000 l 282 1000 l 282 127 l 747 127 l 747 1000 l 910 1000 z "},"Ч":{"ha":929,"x_min":59,"x_max":810,"o":"m 810 1000 l 810 0 l 647 0 l 647 415 q 492 384 567 394 q 351 375 417 373 q 232 394 286 377 q 140 447 178 411 q 80 537 101 482 q 59 672 59 592 l 59 1000 l 222 1000 l 222 672 q 245 568 222 608 q 320 510 269 528 q 452 499 372 493 q 647 533 533 504 l 647 1000 l 810 1000 z "},"Ш":{"ha":1501,"x_min":119,"x_max":1383,"o":"m 1383 1000 l 1383 0 l 119 0 l 119 1000 l 282 1000 l 282 127 l 668 127 l 668 1000 l 831 1000 l 831 127 l 1219 127 l 1219 1000 l 1383 1000 z "},"Щ":{"ha":1567,"x_min":119,"x_max":1530,"o":"m 1530 127 l 1530 -193 q 1516 -227 1530 -214 q 1478 -240 1501 -240 l 1381 -240 l 1381 0 l 119 0 l 119 1000 l 282 1000 l 282 127 l 668 127 l 668 1000 l 831 1000 l 831 127 l 1219 127 l 1219 1000 l 1383 1000 l 1383 127 l 1530 127 z "},"Ъ":{"ha":1038,"x_min":20,"x_max":1003,"o":"m 644 128 q 737 141 699 128 q 799 175 775 153 q 833 226 822 197 q 844 290 844 256 q 833 358 844 328 q 799 408 823 388 q 738 440 776 428 q 645 451 700 451 l 467 451 l 467 128 l 644 128 m 645 579 q 807 558 740 579 q 919 501 875 538 q 983 415 963 465 q 1003 307 1003 365 q 980 180 1003 237 q 910 83 956 124 q 797 22 864 43 q 644 0 730 0 l 305 0 l 305 869 l 20 869 l 20 1000 l 467 1000 l 467 579 l 645 579 z "},"Ы":{"ha":1263,"x_min":119,"x_max":1144,"o":"m 458 128 q 551 141 513 128 q 613 175 589 153 q 647 226 636 197 q 658 290 658 256 q 647 358 658 328 q 613 408 637 388 q 552 440 590 428 q 459 451 514 451 l 281 451 l 281 128 l 458 128 m 459 579 q 621 558 553 579 q 733 501 689 538 q 797 415 776 465 q 817 307 817 365 q 793 180 817 237 q 724 83 769 124 q 611 22 678 43 q 458 0 544 0 l 119 0 l 119 1000 l 281 1000 l 281 579 l 459 579 m 1144 0 l 981 0 l 981 1000 l 1144 1000 l 1144 0 z "},"Ь":{"ha":852,"x_min":119,"x_max":817,"o":"m 458 128 q 551 141 513 128 q 613 175 589 153 q 647 226 636 197 q 658 290 658 256 q 647 358 658 328 q 613 408 637 388 q 552 440 590 428 q 459 451 514 451 l 281 451 l 281 128 l 458 128 m 459 579 q 621 558 553 579 q 733 501 689 538 q 797 415 776 465 q 817 307 817 365 q 793 180 817 237 q 724 83 769 124 q 611 22 678 43 q 458 0 544 0 l 119 0 l 119 1000 l 281 1000 l 281 579 l 459 579 z "},"Э":{"ha":933,"x_min":33,"x_max":874,"o":"m 47 883 q 191 976 108 941 q 382 1011 274 1011 q 582 974 491 1011 q 737 868 672 936 q 838 707 802 801 q 874 500 874 613 q 840 294 874 388 q 743 132 806 200 q 592 27 681 65 q 394 -11 503 -11 q 182 29 270 -11 q 33 142 94 69 l 97 213 q 120 223 106 223 q 147 210 133 223 q 196 173 172 188 q 249 148 221 158 q 310 133 277 138 q 384 128 343 128 q 502 150 447 128 q 600 212 558 171 q 670 312 643 253 q 706 447 698 371 l 223 447 l 223 569 l 704 569 q 668 697 695 641 q 599 792 640 753 q 502 851 557 831 q 383 871 447 871 q 280 858 321 871 q 211 830 239 845 q 166 801 183 814 q 134 788 149 788 q 114 794 121 788 q 101 807 106 799 l 47 883 z "},"Є":{"ha":933,"x_min":59,"x_max":901,"o":"m 813 223 q 836 213 826 223 l 901 142 q 751 29 840 69 q 538 -11 662 -11 q 340 27 428 -11 q 189 132 251 65 q 93 294 126 200 q 59 500 59 388 q 95 707 59 613 q 195 868 131 801 q 351 974 260 936 q 551 1011 442 1011 q 742 976 659 1011 q 886 883 825 941 l 833 807 q 819 794 827 799 q 799 788 812 788 q 767 801 785 788 q 722 830 749 814 q 653 858 694 845 q 550 871 612 871 q 431 851 485 871 q 334 792 376 831 q 265 697 292 753 q 229 569 238 641 l 710 569 l 710 447 l 227 447 q 262 312 235 371 q 332 212 290 253 q 431 150 375 171 q 549 128 486 128 q 623 133 590 128 q 684 148 656 138 q 736 173 712 158 q 785 210 761 188 q 813 223 799 223 z "},"Ю":{"ha":1467,"x_min":119,"x_max":1406,"o":"m 941 126 q 1066 152 1010 126 q 1160 226 1122 178 q 1219 344 1199 274 q 1240 500 1240 413 q 1219 656 1240 586 q 1160 774 1199 726 q 1066 849 1122 823 q 941 876 1010 876 q 816 849 872 876 q 722 774 761 823 q 663 656 683 726 q 642 500 642 586 q 663 344 642 413 q 722 226 683 274 q 816 152 761 178 q 941 126 872 126 m 479 563 q 524 744 488 661 q 620 886 560 826 q 761 978 681 945 q 941 1011 842 1011 q 1133 973 1047 1011 q 1280 867 1219 935 q 1373 705 1340 799 q 1406 500 1406 611 q 1373 295 1406 389 q 1280 134 1340 201 q 1133 28 1219 66 q 941 -10 1047 -10 q 762 22 843 -10 q 622 114 681 55 q 525 255 562 173 q 479 435 488 337 l 282 435 l 282 0 l 119 0 l 119 1000 l 282 1000 l 282 563 l 479 563 z "},"Я":{"ha":934,"x_min":-6,"x_max":815,"o":"m 653 549 l 653 872 l 471 872 q 378 860 416 872 q 317 826 340 848 q 282 776 293 805 q 272 712 272 747 q 282 644 272 674 q 317 593 293 614 q 378 561 340 572 q 471 549 416 549 l 653 549 m 815 0 l 653 0 l 653 421 l 535 421 q 501 418 517 421 q 470 407 485 415 q 441 385 456 399 q 413 349 427 371 l 217 58 q 176 16 201 31 q 116 0 151 0 l -6 0 l 237 358 q 339 449 278 421 q 239 486 281 462 q 168 544 196 510 q 126 620 140 578 q 112 710 112 663 q 136 828 112 775 q 206 919 160 881 q 319 979 252 958 q 471 1000 385 1000 l 815 1000 l 815 0 z "},"Ђ":{"ha":1036,"x_min":19,"x_max":1012,"o":"m 653 579 q 815 558 747 579 q 927 501 883 538 q 991 415 971 465 q 1012 307 1012 365 q 988 180 1012 237 q 918 83 964 124 q 805 22 872 43 q 652 0 738 0 l 589 0 l 589 128 l 652 128 q 745 141 707 128 q 806 175 783 153 q 841 226 830 197 q 851 290 851 256 q 841 358 851 328 q 807 408 831 388 q 745 440 783 428 q 653 451 708 451 l 452 451 l 452 0 l 290 0 l 290 869 l 19 869 l 19 1000 l 754 1000 l 754 869 l 452 869 l 452 579 l 653 579 z "},"Ћ":{"ha":1045,"x_min":19,"x_max":992,"o":"m 452 574 q 602 605 531 594 q 733 613 673 615 q 841 593 792 610 q 922 541 889 576 q 974 450 956 506 q 992 316 992 394 l 992 -1 l 828 -1 l 828 317 q 811 419 828 379 q 750 477 793 460 q 634 490 706 495 q 452 457 561 485 l 452 0 l 290 0 l 290 869 l 19 869 l 19 1000 l 754 1000 l 754 869 l 452 869 l 452 574 z "},"Ѣ":{"ha":1015,"x_min":34,"x_max":979,"o":"m 620 128 q 713 141 675 128 q 774 175 751 153 q 809 226 798 197 q 819 290 819 256 q 809 358 819 328 q 775 408 799 388 q 714 440 751 428 q 621 451 676 451 l 443 451 l 443 128 l 620 128 m 621 579 q 783 558 715 579 q 894 501 851 538 q 959 415 938 465 q 979 307 979 365 q 955 180 979 237 q 885 83 931 124 q 773 22 840 43 q 620 0 706 0 l 281 0 l 281 733 l 34 733 l 34 854 l 281 854 l 281 1000 l 443 1000 l 443 854 l 744 854 l 744 733 l 443 733 l 443 579 l 621 579 z "},"б":{"ha":817,"x_min":72,"x_max":763,"o":"m 417 100 q 562 161 514 100 q 610 336 610 222 q 563 511 610 449 q 422 572 517 572 q 278 515 329 572 q 227 349 227 458 q 275 165 227 229 q 417 100 322 100 m 467 853 q 351 826 399 849 q 271 764 303 803 q 223 671 240 725 q 204 550 207 617 q 305 647 239 610 q 459 683 371 683 q 586 658 530 683 q 682 588 642 633 q 742 478 721 542 q 763 337 763 415 q 739 193 763 258 q 669 84 714 129 q 560 14 624 38 q 417 -10 496 -10 q 280 14 343 -10 q 170 94 217 39 q 98 239 124 149 q 72 458 72 328 q 92 661 72 568 q 157 824 112 754 q 275 936 202 894 q 454 988 349 979 l 706 1008 l 715 931 q 707 888 717 905 q 672 869 697 870 l 467 853 z "},"в":{"ha":694,"x_min":91,"x_max":642,"o":"m 372 103 q 469 133 433 103 q 505 213 505 163 q 499 253 505 234 q 477 285 492 272 q 436 306 462 299 q 373 314 411 314 l 233 314 l 233 103 l 372 103 m 233 610 l 233 408 l 356 408 q 407 416 384 408 q 448 438 431 424 q 474 472 465 452 q 483 516 483 492 q 477 550 483 533 q 456 581 471 567 q 417 602 441 594 q 356 610 392 610 l 233 610 m 361 708 q 475 695 427 708 q 554 660 523 683 q 599 606 585 637 q 614 538 614 574 q 608 490 614 515 q 586 443 601 465 q 545 401 571 420 q 478 372 519 383 q 598 317 554 358 q 642 207 642 276 q 621 115 642 154 q 562 51 599 76 q 476 13 525 25 q 373 0 427 0 l 91 0 l 91 708 l 361 708 z "},"г":{"ha":579,"x_min":91,"x_max":561,"o":"m 561 596 l 240 596 l 240 0 l 91 0 l 91 708 l 561 708 l 561 596 z "},"ґ":{"ha":579,"x_min":91,"x_max":561,"o":"m 561 881 l 561 596 l 240 596 l 240 0 l 91 0 l 91 708 l 426 708 l 426 881 l 561 881 z "},"д":{"ha":870,"x_min":14,"x_max":845,"o":"m 571 108 l 571 592 l 372 592 q 355 418 366 495 q 328 282 343 341 q 295 180 313 222 q 258 108 277 137 l 571 108 m 845 113 l 845 -195 q 833 -228 845 -216 q 802 -240 821 -240 l 710 -240 l 710 0 l 149 0 l 149 -198 q 139 -227 149 -214 q 108 -240 129 -240 l 14 -240 l 14 108 l 35 108 q 83 115 60 108 q 128 144 107 122 q 169 207 150 167 q 205 315 189 248 q 232 478 220 381 q 251 708 244 574 l 715 708 l 715 113 l 845 113 z "},"ж":{"ha":1116,"x_min":14,"x_max":1101,"o":"m 1101 0 l 999 0 q 938 13 959 0 q 905 52 917 25 l 785 259 q 747 298 770 285 q 693 310 723 310 l 630 310 l 630 -1 l 485 -1 l 485 310 l 423 310 q 369 298 392 310 q 331 259 346 285 l 210 52 q 177 13 199 25 q 117 0 156 0 l 14 0 l 189 292 q 230 343 207 324 q 286 373 252 363 q 242 399 260 383 q 207 442 224 416 l 33 708 l 150 708 q 188 697 171 708 q 215 668 206 686 l 350 456 q 383 422 364 433 q 432 410 403 410 l 485 410 l 485 709 l 630 709 l 630 410 l 681 410 q 765 456 739 410 l 900 668 q 927 697 910 686 q 966 708 945 708 l 1083 708 l 908 442 q 874 399 892 416 q 830 373 856 383 q 886 343 864 363 q 926 292 908 324 l 1101 0 z "},"з":{"ha":624,"x_min":31,"x_max":570,"o":"m 48 633 q 147 695 88 672 q 286 719 205 719 q 401 704 351 719 q 485 662 451 688 q 537 602 519 636 q 555 531 555 568 q 549 489 555 510 q 528 446 542 467 q 491 407 514 425 q 433 377 467 389 q 533 313 497 356 q 570 205 570 269 q 547 114 570 154 q 485 47 524 74 q 396 4 447 19 q 292 -10 346 -10 q 224 -5 259 -10 q 155 15 189 1 q 88 50 120 28 q 31 103 56 72 l 74 158 q 101 172 82 172 q 130 161 115 172 q 164 138 144 151 q 212 115 184 126 q 282 105 240 105 q 344 113 317 105 q 390 137 371 122 q 418 173 408 152 q 428 217 428 193 q 389 292 428 265 q 268 319 351 319 l 188 319 l 188 418 l 268 418 q 380 444 340 418 q 419 513 419 471 q 385 578 419 551 q 282 604 351 604 q 216 596 243 604 q 169 579 188 588 q 138 562 151 569 q 115 554 125 554 q 98 558 105 554 q 82 576 90 563 l 48 633 z "},"и":{"ha":805,"x_min":91,"x_max":714,"o":"m 714 708 l 714 0 l 565 0 l 565 444 q 566 476 565 458 q 570 511 567 493 q 557 483 563 496 q 542 460 550 470 l 235 37 q 213 11 226 24 q 181 -1 199 -1 l 91 -1 l 91 708 l 240 708 l 240 265 q 239 232 240 250 q 234 196 237 214 q 263 249 248 228 l 570 671 q 592 697 578 685 q 624 708 606 708 l 714 708 z "},"к":{"ha":738,"x_min":91,"x_max":724,"o":"m 517 668 q 548 697 528 686 q 588 708 567 708 l 704 708 l 530 442 q 495 399 513 415 q 451 373 477 382 q 507 343 485 363 q 548 292 530 324 l 724 0 l 621 0 q 559 13 581 0 q 522 52 538 26 l 402 259 q 364 298 388 285 q 310 310 340 310 l 240 310 l 240 -1 l 91 -1 l 91 708 l 240 708 l 240 410 l 301 410 q 349 422 330 410 q 383 456 369 433 l 517 668 z "},"л":{"ha":822,"x_min":1,"x_max":731,"o":"m 731 0 l 582 0 l 582 592 l 385 592 q 359 364 376 460 q 319 201 342 267 q 266 93 295 134 q 204 28 237 51 q 137 -2 172 6 q 68 -10 103 -10 q 1 13 1 -10 l 1 106 l 40 106 q 86 114 63 106 q 133 144 110 122 q 175 208 155 167 q 213 316 196 249 q 242 479 230 383 q 262 708 255 575 l 731 708 l 731 0 z "},"љ":{"ha":1167,"x_min":1,"x_max":1133,"o":"m 870 108 q 927 117 903 108 q 968 141 952 126 q 993 176 985 156 q 1001 222 1001 197 q 993 264 1001 244 q 970 299 986 284 q 930 323 955 314 q 869 331 905 331 l 731 331 l 731 108 l 870 108 m 868 439 q 992 421 942 439 q 1074 374 1043 403 q 1119 305 1106 344 q 1133 223 1133 265 q 1116 133 1133 174 q 1065 63 1099 92 q 982 16 1031 33 q 870 0 933 0 l 582 0 l 582 592 l 385 592 q 359 364 376 460 q 319 201 342 267 q 266 93 295 134 q 204 28 237 51 q 137 -2 172 6 q 68 -10 103 -10 q 1 13 1 -10 l 1 106 l 40 106 q 86 114 63 106 q 133 144 110 122 q 175 208 155 167 q 213 316 196 249 q 242 479 230 383 q 262 708 255 575 l 731 708 l 731 439 l 868 439 z "},"м":{"ha":988,"x_min":91,"x_max":897,"o":"m 897 710 l 897 0 l 763 0 l 763 428 q 765 479 763 451 q 772 531 768 507 l 547 126 q 528 106 540 113 q 503 99 517 99 l 488 99 q 463 106 474 99 q 445 126 452 113 l 215 533 q 223 480 219 509 q 226 428 226 451 l 226 0 l 91 0 l 91 710 l 213 710 q 243 703 228 710 q 269 676 258 697 l 462 347 q 480 308 472 329 q 495 267 488 288 q 511 308 503 288 q 529 347 519 329 l 719 676 q 744 704 729 697 q 775 710 760 710 l 897 710 z "},"н":{"ha":787,"x_min":91,"x_max":695,"o":"m 695 708 l 695 0 l 547 0 l 547 322 l 240 322 l 240 0 l 91 0 l 91 708 l 240 708 l 240 434 l 547 434 l 547 708 l 695 708 z "},"њ":{"ha":1132,"x_min":91,"x_max":1097,"o":"m 834 108 q 891 117 867 108 q 932 141 916 126 q 957 176 949 156 q 965 222 965 197 q 957 264 965 244 q 934 299 950 284 q 894 323 919 314 q 833 331 869 331 l 695 331 l 695 108 l 834 108 m 833 439 q 957 421 906 439 q 1039 374 1008 403 q 1084 305 1070 344 q 1097 223 1097 265 q 1080 133 1097 174 q 1029 63 1063 92 q 947 16 996 33 q 835 0 898 0 l 547 0 l 547 322 l 240 322 l 240 0 l 91 0 l 91 708 l 240 708 l 240 434 l 547 434 l 547 708 l 695 708 l 695 439 l 833 439 z "},"ѳ":{"ha":793,"x_min":52,"x_max":741,"o":"m 199 309 q 258 155 208 208 q 397 101 308 101 q 534 155 484 101 q 594 309 585 208 l 199 309 m 594 408 q 533 557 583 506 q 397 608 483 608 q 260 557 310 608 q 199 408 210 506 l 594 408 m 397 719 q 539 694 476 719 q 648 621 603 668 q 717 506 692 574 q 741 355 741 439 q 717 203 741 271 q 648 89 692 136 q 539 15 603 41 q 397 -10 476 -10 q 255 15 318 -10 q 146 89 191 41 q 76 203 101 136 q 52 355 52 271 q 76 506 52 439 q 146 621 101 574 q 255 694 191 668 q 397 719 318 719 z "},"п":{"ha":787,"x_min":91,"x_max":695,"o":"m 695 0 l 547 0 l 547 596 l 240 596 l 240 0 l 91 0 l 91 708 l 695 708 l 695 0 z "},"т":{"ha":708,"x_min":17,"x_max":690,"o":"m 690 596 l 428 596 l 428 0 l 279 0 l 279 596 l 17 596 l 17 708 l 690 708 l 690 596 z "},"ѵ":{"ha":757,"x_min":9,"x_max":734,"o":"m 503 584 q 533 652 516 626 q 570 692 550 678 q 615 712 590 707 q 666 717 639 717 q 700 715 687 717 q 721 709 713 713 q 731 701 728 706 q 734 694 734 697 l 734 612 l 713 612 q 664 599 684 612 q 633 558 644 587 l 427 0 l 292 0 l 9 708 l 132 708 q 160 700 149 708 q 176 679 172 691 l 331 267 q 349 206 342 235 q 363 147 357 177 q 376 206 369 176 q 393 267 384 235 l 503 584 z "},"ф":{"ha":998,"x_min":50,"x_max":948,"o":"m 565 102 q 739 175 678 110 q 799 354 799 240 q 739 534 799 468 q 565 607 678 599 l 565 102 m 434 607 q 260 534 321 599 q 199 354 199 468 q 260 175 199 240 q 434 102 321 110 l 434 607 m 569 719 q 725 688 655 715 q 844 613 795 660 q 921 501 894 566 q 948 355 948 435 q 921 209 948 274 q 844 97 894 144 q 725 22 795 49 q 569 -10 655 -6 l 569 -240 l 429 -240 l 429 -10 q 273 22 343 -6 q 153 97 203 49 q 77 209 104 144 q 50 355 50 274 q 77 500 50 435 q 153 613 104 565 q 273 687 203 660 q 429 719 343 715 l 429 1000 l 569 1000 l 569 719 z "},"ц":{"ha":850,"x_min":91,"x_max":825,"o":"m 825 113 l 825 -195 q 813 -228 825 -216 q 783 -240 801 -240 l 690 -240 l 690 0 l 91 0 l 91 708 l 240 708 l 240 113 l 547 113 l 547 708 l 695 708 l 695 113 l 825 113 z "},"џ":{"ha":787,"x_min":91,"x_max":695,"o":"m 695 708 l 695 0 l 461 0 l 461 -195 q 449 -228 461 -216 q 418 -240 437 -240 l 326 -240 l 326 0 l 91 0 l 91 708 l 240 708 l 240 113 l 547 113 l 547 708 l 695 708 z "},"ч":{"ha":724,"x_min":52,"x_max":633,"o":"m 633 708 l 633 0 l 484 0 l 484 288 q 314 261 393 265 q 177 276 235 256 q 85 344 119 297 q 52 474 52 392 l 52 708 l 201 708 l 201 497 q 218 422 201 450 q 270 382 235 394 q 359 374 306 371 q 484 394 412 378 l 484 708 l 633 708 z "},"ш":{"ha":1149,"x_min":91,"x_max":1058,"o":"m 1058 708 l 1058 0 l 91 0 l 91 708 l 240 708 l 240 113 l 500 113 l 500 708 l 649 708 l 649 113 l 909 113 l 909 708 l 1058 708 z "},"щ":{"ha":1213,"x_min":91,"x_max":1188,"o":"m 1188 113 l 1188 -195 q 1176 -228 1188 -216 q 1145 -240 1164 -240 l 1053 -240 l 1053 0 l 91 0 l 91 708 l 240 708 l 240 113 l 500 113 l 500 708 l 649 708 l 649 113 l 909 113 l 909 708 l 1058 708 l 1058 0 l 1058 0 l 1058 113 l 1188 113 z "},"ъ":{"ha":818,"x_min":19,"x_max":784,"o":"m 521 108 q 578 117 553 108 q 619 141 603 126 q 643 176 635 156 q 651 222 651 197 q 644 264 651 244 q 621 299 637 284 q 581 323 606 314 q 519 331 556 331 l 381 331 l 381 108 l 521 108 m 519 439 q 643 421 592 439 q 725 374 694 403 q 770 305 756 344 q 784 223 784 265 q 767 133 784 174 q 716 63 749 92 q 633 16 682 33 q 521 0 584 0 l 240 0 l 240 594 l 19 594 l 19 708 l 381 708 l 381 439 l 519 439 z "},"ы":{"ha":1017,"x_min":91,"x_max":926,"o":"m 372 108 q 430 117 405 108 q 470 141 454 126 q 495 176 487 156 q 503 222 503 197 q 495 264 503 244 q 473 299 488 284 q 432 323 457 314 q 371 331 407 331 l 233 331 l 233 108 l 372 108 m 370 439 q 494 421 444 439 q 576 374 545 403 q 622 305 608 344 q 635 223 635 265 q 618 133 635 174 q 567 63 601 92 q 484 16 533 33 q 372 0 435 0 l 91 0 l 91 708 l 233 708 l 233 439 l 370 439 m 926 708 l 926 0 l 776 0 l 776 708 l 926 708 z "},"ь":{"ha":669,"x_min":91,"x_max":635,"o":"m 372 108 q 430 117 405 108 q 470 141 454 126 q 495 176 487 156 q 503 222 503 197 q 495 264 503 244 q 473 299 488 284 q 432 323 457 314 q 371 331 407 331 l 233 331 l 233 108 l 372 108 m 370 439 q 494 421 444 439 q 576 374 545 403 q 622 305 608 344 q 635 223 635 265 q 618 133 635 174 q 567 63 601 92 q 484 16 533 33 q 372 0 435 0 l 91 0 l 91 708 l 233 708 l 233 439 l 370 439 z "},"э":{"ha":674,"x_min":35,"x_max":622,"o":"m 42 624 q 147 694 88 669 q 283 719 206 719 q 428 692 365 719 q 534 616 491 665 q 599 500 577 567 q 622 355 622 433 q 597 200 622 268 q 530 86 572 133 q 429 14 487 39 q 306 -10 372 -10 q 231 -5 268 -10 q 158 15 193 1 q 92 50 123 28 q 35 103 60 72 l 75 153 q 103 167 85 167 q 130 158 117 167 q 162 136 143 148 q 208 115 181 124 q 279 105 236 105 q 352 118 319 105 q 410 158 385 132 q 451 223 435 184 q 472 310 467 261 l 154 310 l 154 413 l 470 413 q 408 554 458 503 q 274 604 358 604 q 211 597 236 604 q 167 580 185 589 q 136 563 149 571 q 111 556 123 556 q 93 560 99 556 q 80 574 87 565 l 42 624 z "},"є":{"ha":674,"x_min":52,"x_max":638,"o":"m 594 574 q 580 560 587 565 q 562 556 574 556 q 537 563 550 556 q 506 580 524 571 q 463 597 488 589 q 400 604 438 604 q 266 554 316 604 q 203 413 216 503 l 519 413 l 519 310 l 202 310 q 223 223 207 261 q 264 158 239 184 q 322 118 289 132 q 394 105 355 105 q 465 115 438 105 q 511 136 492 124 q 543 158 530 148 q 570 167 556 167 q 598 153 589 167 l 638 103 q 581 50 613 72 q 515 15 550 28 q 443 -5 481 1 q 367 -10 406 -10 q 244 14 301 -10 q 144 86 187 39 q 77 200 101 133 q 52 355 52 268 q 74 500 52 433 q 139 616 97 567 q 245 692 182 665 q 391 719 308 719 q 527 694 468 719 q 631 624 585 669 l 594 574 z "},"ю":{"ha":1101,"x_min":91,"x_max":1049,"o":"m 719 106 q 852 170 808 106 q 895 354 895 235 q 852 539 895 474 q 719 603 808 603 q 585 539 628 603 q 542 354 542 474 q 585 170 542 235 q 719 106 628 106 m 395 413 q 428 540 403 483 q 496 637 454 597 q 594 698 538 677 q 719 719 650 719 q 856 694 794 719 q 960 621 917 668 q 1026 506 1003 574 q 1049 355 1049 439 q 1025 203 1049 271 q 958 89 1001 136 q 853 15 914 41 q 719 -10 792 -10 q 591 11 648 -10 q 492 74 533 33 q 425 174 450 115 q 394 305 401 232 l 240 305 l 240 0 l 91 0 l 91 708 l 240 708 l 240 413 l 395 413 z "},"я":{"ha":695,"x_min":5,"x_max":604,"o":"m 462 385 l 462 610 l 357 610 q 297 599 321 610 q 258 573 272 589 q 237 536 243 556 q 231 497 231 516 q 268 415 231 444 q 368 385 305 385 l 462 385 m 604 708 l 604 0 l 462 0 l 462 290 l 421 290 q 388 287 401 290 q 365 277 374 283 q 348 262 356 271 q 334 242 341 253 l 201 52 q 167 13 187 26 q 108 0 147 0 l 5 0 l 196 258 q 269 320 222 303 q 182 347 218 328 q 124 390 146 365 q 91 445 101 415 q 81 503 81 474 q 96 578 81 542 q 144 644 111 615 q 228 691 176 673 q 353 708 280 708 l 604 708 z "},"ђ":{"ha":773,"x_min":-28,"x_max":708,"o":"m 240 562 q 335 631 283 605 q 457 658 388 658 q 647 576 585 658 q 708 341 708 494 q 663 46 708 190 q 536 -228 617 -98 l 417 -181 q 477 -59 451 -120 q 522 66 503 2 q 550 198 540 130 q 559 341 559 266 q 549 431 559 393 q 519 493 538 469 q 473 528 500 517 q 413 540 446 540 q 320 517 363 540 q 240 454 277 494 l 240 0 l 91 0 l 91 756 l -28 756 l -28 870 l 91 870 l 91 1028 l 240 1028 l 240 870 l 472 870 l 472 756 l 240 756 l 240 562 z "},"ѣ":{"ha":786,"x_min":20,"x_max":757,"o":"m 494 108 q 551 117 526 108 q 592 141 576 126 q 616 176 608 156 q 624 222 624 197 q 617 264 624 244 q 594 299 610 284 q 553 323 578 314 q 492 331 528 331 l 341 331 l 341 108 l 494 108 m 492 439 q 617 421 566 439 q 699 374 667 403 q 743 305 730 344 q 757 223 757 265 q 740 133 757 174 q 689 63 722 92 q 607 16 656 33 q 494 0 558 0 l 199 0 l 199 593 l 20 593 l 20 708 l 199 708 l 199 899 l 341 899 l 341 708 l 562 708 l 562 593 l 341 593 l 341 439 l 492 439 z "},"!":{"ha":383,"x_min":93,"x_max":286,"o":"m 263 1000 l 263 603 q 257 480 263 540 q 242 351 251 420 l 142 351 q 127 480 132 420 q 122 603 122 540 l 122 1000 l 263 1000 m 93 86 q 100 124 93 106 q 121 155 108 142 q 151 176 134 168 q 190 183 169 183 q 227 176 210 183 q 258 155 245 168 q 278 124 271 142 q 286 86 286 106 q 278 48 286 65 q 258 17 271 31 q 227 -3 245 4 q 190 -10 210 -10 q 151 -3 169 -10 q 121 17 134 4 q 100 48 108 31 q 93 86 93 65 z "},"?":{"ha":631,"x_min":53,"x_max":574,"o":"m 53 910 q 103 949 76 931 q 161 981 130 967 q 230 1003 193 995 q 310 1011 267 1011 q 416 995 368 1011 q 500 948 465 978 q 554 875 535 918 q 574 780 574 833 q 558 689 574 727 q 519 622 543 650 q 468 572 496 593 q 416 532 440 551 q 373 495 391 514 q 352 455 356 477 l 338 351 l 236 351 l 226 465 q 236 522 222 498 q 273 566 250 545 q 325 606 297 587 q 377 649 353 625 q 418 701 401 672 q 435 772 435 731 q 424 820 435 799 q 395 858 414 842 q 351 881 376 873 q 297 890 326 890 q 228 880 256 890 q 179 859 199 870 q 146 838 159 847 q 124 828 133 828 q 92 847 102 828 l 53 910 m 186 86 q 193 124 186 106 q 214 155 201 142 q 244 176 226 168 q 282 183 262 183 q 320 176 302 183 q 351 155 338 168 q 372 124 364 142 q 379 86 379 106 q 372 48 379 65 q 351 17 364 31 q 320 -3 338 4 q 282 -10 302 -10 q 244 -3 262 -10 q 214 17 226 4 q 193 48 201 31 q 186 86 186 65 z "},"‽":{"ha":692,"x_min":58,"x_max":638,"o":"m 301 183 q 339 176 321 183 q 369 155 356 168 q 390 124 383 142 q 398 86 398 106 q 390 48 398 65 q 369 17 383 31 q 339 -3 356 4 q 301 -10 321 -10 q 263 -3 281 -10 q 232 17 245 4 q 212 48 219 31 q 205 86 205 65 q 212 124 205 106 q 232 155 219 142 q 263 176 245 168 q 301 183 281 183 m 275 983 q 329 996 298 992 q 392 1001 360 1001 q 491 987 446 1001 q 569 947 536 974 q 620 880 601 919 q 638 788 638 840 q 619 694 638 732 q 569 628 599 656 q 505 582 540 601 q 438 545 469 563 q 384 506 407 526 q 357 454 361 485 l 353 342 l 260 342 q 222 447 240 392 q 186 556 203 502 l 58 982 l 196 1017 l 289 659 q 298 622 292 646 q 310 568 304 597 q 347 605 326 589 q 389 636 367 622 q 430 665 410 651 q 466 694 451 678 q 492 729 482 710 q 501 773 501 748 q 493 814 501 794 q 470 847 485 833 q 433 870 455 862 q 384 878 411 878 q 351 876 366 878 q 330 873 335 873 q 305 879 313 873 q 295 898 297 885 l 275 983 z "},",":{"ha":320,"x_min":67,"x_max":254,"o":"m 158 1 q 121 8 138 1 q 92 28 104 15 q 73 58 80 41 q 67 97 67 76 q 73 131 67 115 q 92 158 80 147 q 121 177 104 170 q 158 183 138 183 q 200 175 182 183 q 230 151 218 166 q 248 116 242 136 q 254 74 254 97 q 245 7 254 42 q 217 -64 235 -28 q 172 -132 199 -99 q 111 -193 145 -165 l 85 -169 q 77 -159 80 -164 q 75 -147 75 -154 q 87 -124 75 -135 q 105 -104 94 -117 q 127 -76 116 -92 q 148 -40 138 -60 q 161 1 157 -21 l 158 1 z "},";":{"ha":370,"x_min":88,"x_max":281,"o":"m 183 1 q 146 8 163 1 q 117 28 129 15 q 98 58 105 41 q 92 97 92 76 q 98 131 92 115 q 117 158 105 147 q 146 177 129 170 q 183 183 163 183 q 225 175 207 183 q 255 151 243 166 q 273 116 267 136 q 279 74 279 97 q 270 7 279 42 q 242 -64 260 -28 q 197 -132 224 -99 q 136 -193 170 -165 l 110 -169 q 102 -159 105 -164 q 100 -147 100 -154 q 112 -124 100 -135 q 130 -104 119 -117 q 152 -76 141 -92 q 173 -40 163 -60 q 186 1 182 -21 l 183 1 m 88 592 q 95 630 88 613 q 115 661 102 648 q 145 682 128 674 q 183 690 163 690 q 221 682 203 690 q 252 661 239 674 q 273 630 265 648 q 281 592 281 613 q 273 554 281 572 q 252 524 265 537 q 221 503 239 510 q 183 496 203 496 q 145 503 163 496 q 115 524 128 510 q 95 554 102 537 q 88 592 88 572 z "},":":{"ha":353,"x_min":80,"x_max":273,"o":"m 80 86 q 87 124 80 106 q 107 155 94 142 q 138 176 120 168 q 176 183 156 183 q 214 176 196 183 q 244 155 231 168 q 265 124 258 142 q 273 86 273 106 q 265 48 273 65 q 244 17 258 31 q 214 -3 231 4 q 176 -10 196 -10 q 138 -3 156 -10 q 107 17 120 4 q 87 48 94 31 q 80 86 80 65 m 80 592 q 87 630 80 613 q 107 661 94 648 q 138 682 120 674 q 176 690 156 690 q 214 682 196 690 q 244 661 231 674 q 265 630 258 648 q 273 592 273 613 q 265 554 273 572 q 244 524 258 537 q 214 503 231 510 q 176 496 196 496 q 138 503 156 496 q 107 524 120 510 q 87 554 94 537 q 80 592 80 572 z "},".":{"ha":328,"x_min":68,"x_max":261,"o":"m 68 86 q 75 124 68 106 q 95 155 83 142 q 126 176 108 168 q 164 183 144 183 q 202 176 184 183 q 233 155 219 168 q 253 124 246 142 q 261 86 261 106 q 253 48 261 65 q 233 17 246 31 q 202 -3 219 4 q 164 -10 184 -10 q 126 -3 144 -10 q 95 17 108 4 q 75 48 83 31 q 68 86 68 65 z "},"…":{"ha":1058,"x_min":68,"x_max":990,"o":"m 68 86 q 75 124 68 106 q 95 155 83 142 q 126 176 108 168 q 164 183 144 183 q 202 176 184 183 q 233 155 219 168 q 253 124 246 142 q 261 86 261 106 q 253 48 261 65 q 233 17 246 31 q 202 -3 219 4 q 164 -10 184 -10 q 126 -3 144 -10 q 95 17 108 4 q 75 48 83 31 q 68 86 68 65 m 797 86 q 804 124 797 106 q 824 155 811 142 q 855 176 837 168 q 892 183 872 183 q 930 176 913 183 q 961 155 948 168 q 982 124 974 142 q 990 86 990 106 q 982 48 990 65 q 961 17 974 31 q 930 -3 948 4 q 892 -10 913 -10 q 855 -3 872 -10 q 824 17 837 4 q 804 48 811 31 q 797 86 797 65 m 433 86 q 440 124 433 106 q 460 155 447 142 q 491 176 473 168 q 528 183 508 183 q 566 176 549 183 q 597 155 584 168 q 618 124 610 142 q 626 86 626 106 q 618 48 626 65 q 597 17 610 31 q 566 -3 584 4 q 528 -10 549 -10 q 491 -3 508 -10 q 460 17 473 4 q 440 48 447 31 q 433 86 433 65 z "},"‘":{"ha":302,"x_min":60,"x_max":242,"o":"m 114 651 q 71 761 83 704 q 69 875 60 819 q 107 982 78 931 q 183 1074 135 1033 l 230 1045 q 241 1026 242 1038 q 233 1006 240 1014 q 203 957 217 987 q 186 891 190 927 q 188 815 181 855 q 218 738 195 776 q 225 707 229 720 q 204 688 220 693 l 114 651 z "},"’":{"ha":301,"x_min":65,"x_max":247,"o":"m 193 1067 q 235 957 224 1014 q 238 843 247 899 q 200 736 228 788 q 123 644 171 685 l 76 673 q 66 693 65 681 q 74 712 67 705 q 103 761 90 731 q 120 827 116 791 q 118 902 125 863 q 88 981 112 942 q 82 1012 77 999 q 102 1031 87 1025 l 193 1067 z "},"“":{"ha":524,"x_min":60,"x_max":464,"o":"m 114 651 q 71 761 83 704 q 69 875 60 819 q 107 982 78 931 q 183 1074 135 1033 l 230 1045 q 241 1026 242 1038 q 233 1006 240 1014 q 203 957 217 987 q 186 891 190 927 q 188 815 181 855 q 218 738 195 776 q 225 707 229 720 q 204 688 220 693 l 114 651 m 335 651 q 293 761 304 704 q 290 875 281 819 q 328 982 299 931 q 405 1074 357 1033 l 451 1045 q 463 1026 464 1038 q 454 1006 461 1014 q 425 957 438 987 q 407 891 412 927 q 410 815 403 855 q 440 738 417 776 q 446 707 451 720 q 426 688 442 693 l 335 651 z "},"”":{"ha":523,"x_min":65,"x_max":468,"o":"m 193 1067 q 235 957 224 1014 q 238 843 247 899 q 200 736 228 788 q 123 644 171 685 l 76 673 q 66 693 65 681 q 74 712 67 705 q 103 761 90 731 q 120 827 116 791 q 118 902 125 863 q 88 981 112 942 q 82 1012 77 999 q 102 1031 87 1025 l 193 1067 m 415 1067 q 457 957 446 1014 q 459 843 468 899 q 421 736 450 788 q 344 644 392 685 l 298 673 q 287 693 286 681 q 295 712 288 705 q 324 761 311 731 q 342 827 338 791 q 340 902 347 863 q 310 981 333 942 q 303 1012 299 999 q 324 1031 308 1025 l 415 1067 z "},"‚":{"ha":301,"x_min":53,"x_max":235,"o":"m 182 197 q 224 87 213 144 q 226 -26 235 30 q 189 -133 217 -82 q 112 -225 160 -185 l 65 -197 q 55 -177 53 -189 q 63 -158 56 -165 q 92 -108 78 -138 q 109 -43 105 -78 q 107 33 114 -7 q 77 111 101 72 q 71 142 66 129 q 91 161 76 156 l 182 197 z "},"„":{"ha":522,"x_min":53,"x_max":457,"o":"m 182 197 q 224 87 213 144 q 226 -26 235 30 q 189 -133 217 -82 q 112 -225 160 -185 l 65 -197 q 55 -177 53 -189 q 63 -158 56 -165 q 92 -108 78 -138 q 109 -43 105 -78 q 107 33 114 -7 q 77 111 101 72 q 71 142 66 129 q 91 161 76 156 l 182 197 m 403 197 q 446 87 435 144 q 448 -26 457 30 q 410 -133 439 -82 q 333 -225 381 -185 l 287 -197 q 276 -177 275 -189 q 284 -158 277 -165 q 313 -108 300 -138 q 331 -43 326 -78 q 329 33 335 -7 q 299 111 322 72 q 292 142 288 129 q 313 161 297 156 l 403 197 z "},"‹":{"ha":397,"x_min":66,"x_max":316,"o":"m 306 172 q 313 137 316 153 q 290 112 309 121 l 242 88 l 66 361 l 66 381 l 242 653 l 290 630 q 313 605 309 621 q 306 569 316 589 l 203 399 q 192 383 197 390 q 181 371 187 376 q 203 344 192 362 l 306 172 z "},"›":{"ha":398,"x_min":82,"x_max":332,"o":"m 332 381 l 332 361 l 156 88 l 108 112 q 85 137 89 121 q 92 172 82 153 l 195 344 q 217 371 206 362 q 206 383 211 376 q 195 399 201 390 l 92 569 q 85 605 82 589 q 108 630 89 621 l 156 653 l 332 381 z "},"«":{"ha":615,"x_min":66,"x_max":533,"o":"m 306 172 q 313 137 316 153 q 290 112 309 121 l 242 88 l 66 361 l 66 381 l 242 653 l 290 630 q 313 605 309 621 q 306 569 316 589 l 203 399 q 192 383 197 390 q 181 371 187 376 q 203 344 192 362 l 306 172 m 523 172 q 530 137 533 153 q 508 112 526 121 l 459 88 l 283 361 l 283 381 l 459 653 l 508 630 q 530 605 526 621 q 523 569 533 589 l 420 399 q 409 383 415 390 q 399 371 404 376 q 420 344 410 362 l 523 172 z "},"»":{"ha":615,"x_min":82,"x_max":549,"o":"m 332 381 l 332 361 l 156 88 l 108 112 q 85 137 89 121 q 92 172 82 153 l 195 344 q 217 371 206 362 q 206 383 211 376 q 195 399 201 390 l 92 569 q 85 605 82 589 q 108 630 89 621 l 156 653 l 332 381 m 549 381 l 549 361 l 374 88 l 325 112 q 303 137 306 121 q 310 172 299 153 l 413 344 q 434 371 423 362 q 423 383 428 376 q 413 399 418 390 l 310 569 q 303 605 299 589 q 325 630 306 621 l 374 653 l 549 381 z "},"/":{"ha":638,"x_min":43,"x_max":594,"o":"m 186 -8 q 153 -50 176 -36 q 106 -65 130 -65 l 43 -65 l 454 974 q 484 1014 464 1000 q 531 1028 505 1028 l 594 1028 l 186 -8 z "},"|":{"ha":356,"x_min":120,"x_max":235,"o":"m 120 1070 l 235 1070 l 235 -240 l 120 -240 l 120 1070 z "},"¦":{"ha":360,"x_min":122,"x_max":238,"o":"m 122 1070 l 238 1070 l 238 513 l 122 513 l 122 1070 m 122 322 l 238 322 l 238 -235 l 122 -235 l 122 322 z "},"\\":{"ha":638,"x_min":43,"x_max":594,"o":"m 43 1028 l 107 1028 q 153 1014 133 1028 q 183 974 174 1000 l 594 -65 l 532 -65 q 485 -50 508 -65 q 451 -8 462 -36 l 43 1028 z "},"-":{"ha":517,"x_min":83,"x_max":435,"o":"m 83 481 l 435 481 l 435 355 l 83 355 l 83 481 z "},"–":{"ha":806,"x_min":123,"x_max":683,"o":"m 123 467 l 683 467 l 683 360 l 123 360 l 123 467 z "},"—":{"ha":1105,"x_min":86,"x_max":1019,"o":"m 86 467 l 1019 467 l 1019 360 l 86 360 l 86 467 z "},"_":{"ha":643,"x_min":48,"x_max":595,"o":"m 595 -103 l 595 -201 l 48 -201 l 48 -103 l 595 -103 z "},"•":{"ha":806,"x_min":122,"x_max":684,"o":"m 122 413 q 144 523 122 471 q 204 613 166 574 q 293 674 242 651 q 402 696 344 696 q 512 674 460 696 q 601 613 563 651 q 662 523 640 574 q 684 413 684 471 q 662 303 684 354 q 601 214 640 252 q 512 153 563 176 q 402 131 460 131 q 293 153 344 131 q 204 214 242 176 q 144 303 166 252 q 122 413 122 354 z "},"·":{"ha":372,"x_min":68,"x_max":304,"o":"m 68 413 q 77 459 68 438 q 102 497 87 481 q 139 523 118 513 q 185 532 160 532 q 232 523 210 532 q 269 497 253 513 q 295 459 285 481 q 304 413 304 438 q 295 367 304 388 q 269 330 285 346 q 232 305 253 314 q 185 295 210 295 q 139 305 160 295 q 102 330 118 314 q 77 367 87 346 q 68 413 68 388 z "},"(":{"ha":376,"x_min":56,"x_max":335,"o":"m 185 436 q 222 151 185 290 q 326 -111 258 12 q 334 -133 333 -124 q 333 -150 335 -143 q 325 -162 330 -158 q 313 -172 319 -167 l 247 -212 q 159 -54 195 -133 q 100 105 123 25 q 67 268 77 185 q 56 436 56 350 q 67 604 56 522 q 100 766 77 686 q 159 926 123 847 q 247 1085 195 1005 l 313 1044 q 325 1035 319 1040 q 333 1023 330 1030 q 334 1006 335 1015 q 326 983 333 996 q 222 721 258 860 q 185 436 185 582 z "},")":{"ha":376,"x_min":41,"x_max":319,"o":"m 190 436 q 154 721 190 582 q 50 983 118 860 q 42 1006 44 996 q 43 1023 41 1015 q 51 1035 46 1030 q 63 1044 56 1040 l 129 1085 q 217 926 181 1005 q 276 766 253 847 q 309 604 299 686 q 319 436 319 522 q 309 268 319 350 q 276 105 299 185 q 217 -54 253 25 q 129 -212 181 -133 l 63 -172 q 51 -162 56 -167 q 43 -150 46 -158 q 42 -133 41 -143 q 50 -111 44 -124 q 154 151 118 12 q 190 436 190 290 z "},"[":{"ha":431,"x_min":120,"x_max":391,"o":"m 245 972 l 245 -110 l 351 -110 q 380 -122 369 -110 q 391 -149 391 -133 l 391 -208 l 120 -208 l 120 1070 l 391 1070 l 391 1011 q 380 984 391 995 q 351 972 369 972 l 245 972 z "},"]":{"ha":431,"x_min":40,"x_max":310,"o":"m 310 -208 l 40 -208 l 40 -149 q 51 -122 40 -133 q 80 -110 62 -110 l 185 -110 l 185 972 l 80 972 q 51 984 62 972 q 40 1011 40 995 l 40 1070 l 310 1070 l 310 -208 z "},"{":{"ha":422,"x_min":43,"x_max":379,"o":"m 337 972 q 258 940 285 972 q 230 851 230 907 q 234 777 230 812 q 244 708 239 742 q 254 641 249 674 q 258 574 258 608 q 251 525 258 549 q 229 483 243 502 q 195 451 215 465 q 151 431 176 438 q 229 378 200 417 q 258 288 258 340 q 254 221 258 254 q 244 154 249 188 q 234 85 239 120 q 230 11 230 49 q 258 -77 230 -45 q 337 -110 285 -110 l 347 -110 q 368 -117 356 -110 q 379 -141 379 -125 l 379 -208 l 342 -208 q 235 -192 281 -208 q 159 -145 190 -175 q 114 -73 129 -115 q 99 20 99 -31 q 105 89 99 55 q 116 156 110 122 q 127 222 122 189 q 132 289 132 256 q 110 360 132 333 q 43 387 88 387 l 43 475 q 110 502 88 475 q 132 573 132 529 q 127 640 132 606 q 116 706 122 673 q 105 773 110 740 q 99 842 99 807 q 114 934 99 892 q 159 1007 129 976 q 235 1053 190 1037 q 342 1070 281 1070 l 379 1070 l 379 1003 q 368 980 379 987 q 347 972 356 972 l 337 972 z "},"}":{"ha":422,"x_min":42,"x_max":378,"o":"m 378 387 q 311 360 333 387 q 290 289 290 333 q 295 222 290 256 q 306 156 300 189 q 317 89 312 122 q 322 20 322 55 q 307 -73 322 -31 q 262 -145 292 -115 q 186 -192 232 -175 q 80 -208 141 -208 l 42 -208 l 42 -141 q 54 -117 42 -125 q 75 -110 66 -110 l 85 -110 q 164 -77 136 -110 q 192 11 192 -45 q 188 85 192 49 q 178 154 183 120 q 168 221 172 188 q 163 288 163 254 q 192 378 163 340 q 270 431 222 417 q 226 451 246 438 q 192 483 206 465 q 171 525 178 502 q 163 574 163 549 q 168 641 163 608 q 178 708 172 674 q 188 777 183 742 q 192 851 192 812 q 164 940 192 907 q 85 972 136 972 l 75 972 q 54 980 66 972 q 42 1003 42 987 l 42 1070 l 80 1070 q 186 1053 141 1070 q 262 1007 232 1037 q 307 934 292 976 q 322 842 322 892 q 317 773 322 807 q 306 706 312 740 q 295 640 300 673 q 290 573 290 606 q 311 502 290 529 q 378 475 333 475 l 378 387 z "},"*":{"ha":590,"x_min":78,"x_max":513,"o":"m 513 734 l 477 672 l 362 739 q 340 754 350 747 q 322 772 329 762 q 331 722 331 750 l 331 589 l 259 589 l 259 720 q 267 770 259 750 q 228 739 253 753 l 114 673 l 78 735 l 192 801 q 242 819 217 815 q 192 838 217 822 l 78 905 l 113 967 l 228 900 q 250 884 240 892 q 268 867 260 876 q 259 917 259 889 l 259 1049 l 331 1049 l 331 918 q 330 892 331 904 q 323 868 328 879 q 362 900 339 887 l 476 966 l 512 904 l 398 838 q 374 826 386 831 q 351 819 363 821 q 374 813 363 817 q 398 801 386 808 l 513 734 z "},"†":{"ha":806,"x_min":69,"x_max":737,"o":"m 460 585 l 460 320 l 480 -228 q 403 -248 447 -248 q 326 -228 358 -248 l 345 320 l 345 585 l 69 585 l 69 635 q 73 660 69 648 q 85 681 77 672 q 107 696 94 690 q 138 701 120 701 q 186 698 161 701 q 238 690 212 694 q 292 681 265 686 q 345 674 319 676 l 326 1013 q 403 1033 358 1033 q 480 1013 447 1033 l 460 674 q 514 681 487 676 q 567 690 541 686 q 619 698 594 694 q 667 701 644 701 q 699 696 685 701 q 720 681 712 690 q 733 660 728 672 q 737 635 737 648 l 737 585 l 460 585 z "},"‡":{"ha":806,"x_min":69,"x_max":737,"o":"m 460 199 l 737 199 l 737 149 q 720 104 737 124 q 667 84 703 84 q 619 87 644 84 q 567 94 594 90 q 514 103 541 99 q 460 111 487 108 l 480 -228 q 403 -248 447 -248 q 326 -228 358 -248 l 345 111 q 292 103 319 108 q 238 94 265 99 q 186 87 212 90 q 138 84 161 84 q 85 104 102 84 q 69 149 69 124 l 69 199 l 345 199 l 345 585 l 69 585 l 69 635 q 73 660 69 648 q 85 681 77 672 q 107 696 94 690 q 138 701 120 701 q 186 698 161 701 q 238 690 212 694 q 292 681 265 686 q 345 674 319 676 l 326 1013 q 403 1033 358 1033 q 480 1013 447 1033 l 460 674 q 514 681 487 676 q 567 690 541 686 q 619 698 594 694 q 667 701 644 701 q 699 696 685 701 q 720 681 712 690 q 733 660 728 672 q 737 635 737 648 l 737 585 l 460 585 l 460 199 z "},"§":{"ha":694,"x_min":65,"x_max":630,"o":"m 197 503 q 219 449 197 472 q 276 408 242 426 q 354 373 311 390 q 439 337 397 356 q 486 376 472 353 q 500 427 500 399 q 479 484 500 461 q 424 526 458 508 q 350 561 391 545 q 268 597 308 577 q 214 556 230 578 q 197 503 197 533 m 565 871 q 552 857 559 861 q 535 853 545 853 q 509 860 523 853 q 476 876 495 867 q 432 892 458 885 q 373 899 407 899 q 317 892 342 899 q 276 872 293 885 q 251 842 260 859 q 242 806 242 825 q 259 764 242 782 q 303 730 276 745 q 365 700 330 714 q 436 670 400 685 q 507 635 472 654 q 569 592 542 617 q 613 535 597 567 q 630 461 630 503 q 603 360 630 406 q 519 288 577 315 q 573 229 553 263 q 593 147 593 195 q 575 55 593 97 q 522 -19 557 12 q 435 -68 487 -51 q 317 -85 383 -85 q 245 -79 280 -85 q 181 -61 211 -72 q 123 -33 150 -49 q 76 1 97 -17 l 110 58 q 149 81 123 81 q 178 71 164 81 q 211 51 192 62 q 259 30 231 40 q 330 21 288 21 q 428 49 393 21 q 463 122 463 76 q 445 173 463 152 q 400 211 428 194 q 337 241 372 227 q 264 270 301 255 q 191 302 226 285 q 127 344 156 320 q 82 401 99 369 q 65 479 65 434 q 95 578 65 535 q 185 647 124 622 q 131 710 152 673 q 110 799 110 747 q 127 880 110 842 q 177 947 144 918 q 259 993 210 976 q 370 1010 307 1010 q 500 988 442 1010 q 598 925 558 965 l 565 871 z "},"¶":{"ha":999,"x_min":47,"x_max":950,"o":"m 950 873 l 799 873 l 799 -142 l 669 -142 l 669 873 l 492 873 l 492 -142 l 362 -142 l 362 447 q 231 469 290 447 q 132 528 173 491 q 69 616 91 566 q 47 724 47 667 q 69 836 47 785 q 132 923 91 887 q 231 980 173 960 q 362 1000 290 1000 l 950 1000 l 950 873 z "},"^":{"ha":806,"x_min":80,"x_max":726,"o":"m 726 478 l 617 478 q 594 485 603 478 q 578 504 584 492 l 433 789 q 415 828 423 809 q 402 865 408 847 q 390 828 397 847 q 374 789 383 809 l 235 504 q 220 485 230 492 q 194 478 210 478 l 80 478 l 352 1000 l 449 1000 l 726 478 z "},"~":{"ha":806,"x_min":76,"x_max":733,"o":"m 524 440 q 589 466 566 440 q 613 540 613 493 l 733 540 q 720 448 733 490 q 681 377 706 407 q 618 332 655 348 q 533 315 581 315 q 462 326 497 315 q 397 349 428 336 q 337 372 365 361 q 285 382 309 382 q 220 355 244 382 q 197 281 197 328 l 76 281 q 90 373 76 332 q 129 444 103 415 q 192 490 155 474 q 276 506 229 506 q 347 495 313 506 q 413 473 382 485 q 473 450 444 460 q 524 440 501 440 z "},"'":{"ha":289,"x_min":80,"x_max":209,"o":"m 209 1000 l 209 800 l 196 692 q 181 650 192 665 q 144 635 169 635 q 110 650 122 635 q 93 692 98 665 l 80 800 l 80 1000 l 209 1000 z "},"\"":{"ha":533,"x_min":80,"x_max":453,"o":"m 209 1000 l 209 800 l 196 692 q 181 650 192 665 q 144 635 169 635 q 110 650 122 635 q 93 692 98 665 l 80 800 l 80 1000 l 209 1000 m 453 1000 l 453 800 l 440 692 q 424 650 435 665 q 388 635 413 635 q 353 650 365 635 q 337 692 342 665 l 324 800 l 324 1000 l 453 1000 z "},"&":{"ha":997,"x_min":56,"x_max":990,"o":"m 333 479 q 238 392 269 442 q 208 283 208 342 q 223 210 208 242 q 262 156 238 178 q 319 122 287 133 q 386 110 351 110 q 511 133 455 110 q 611 196 567 156 l 333 479 m 990 0 l 844 0 q 823 1 833 0 q 806 6 814 3 q 791 15 798 9 q 775 29 783 20 l 692 114 q 542 22 626 56 q 360 -11 458 -11 q 249 8 303 -11 q 151 64 194 28 q 82 153 108 101 q 56 272 56 206 q 71 362 56 319 q 115 441 87 404 q 181 506 143 477 q 265 556 219 535 q 208 659 226 609 q 190 760 190 709 q 208 858 190 812 q 263 938 227 903 q 350 991 299 972 q 465 1011 401 1011 q 570 993 524 1011 q 651 944 617 975 q 704 874 685 914 q 726 792 723 835 l 632 773 q 609 776 619 770 q 592 797 598 783 q 576 833 587 815 q 551 865 566 851 q 514 887 535 878 q 465 896 493 896 q 408 885 433 896 q 365 857 383 875 q 338 814 347 838 q 328 762 328 790 q 333 719 328 740 q 349 677 338 698 q 377 634 360 656 q 419 588 394 613 l 694 303 q 734 399 719 349 q 753 499 749 449 q 763 523 755 514 q 785 531 772 531 l 878 531 q 852 364 877 444 q 781 215 826 284 l 990 0 z "},"@":{"ha":1167,"x_min":67,"x_max":1109,"o":"m 723 563 q 671 568 701 568 q 583 548 624 568 q 514 494 543 528 q 467 418 484 461 q 451 328 451 374 q 472 254 451 281 q 533 227 493 227 q 573 233 553 227 q 611 255 593 240 q 645 297 630 271 q 672 363 661 324 l 723 563 m 787 378 q 774 300 774 331 q 784 252 774 269 q 810 229 793 235 q 847 222 826 222 q 906 241 878 222 q 956 294 935 260 q 990 375 977 328 q 1002 480 1002 423 q 973 643 1002 573 q 891 760 943 713 q 767 831 839 808 q 612 855 696 855 q 441 820 520 855 q 302 724 361 785 q 210 580 244 663 q 176 400 176 497 q 213 197 176 284 q 311 50 249 109 q 460 -39 374 -9 q 643 -69 545 -69 q 829 -47 750 -69 q 963 8 908 -24 q 991 14 978 17 q 1009 -5 1003 10 l 1030 -60 q 861 -137 956 -108 q 643 -167 765 -167 q 415 -128 520 -167 q 232 -16 309 -89 q 111 162 155 57 q 67 400 67 267 q 86 545 67 475 q 141 676 106 615 q 225 789 176 738 q 335 876 274 840 q 465 933 395 913 q 612 953 535 953 q 739 939 676 953 q 856 897 801 924 q 958 828 911 869 q 1038 734 1004 787 q 1090 618 1072 682 q 1109 480 1109 554 q 1088 341 1109 406 q 1028 230 1066 277 q 938 156 990 183 q 825 128 885 128 q 739 152 774 128 q 691 228 703 176 q 604 153 650 176 q 503 130 558 130 q 430 145 461 130 q 377 186 398 160 q 346 248 356 212 q 335 325 335 283 q 345 405 335 365 q 375 483 356 445 q 425 553 395 520 q 495 610 456 586 q 585 649 535 635 q 695 663 635 663 q 782 656 745 663 q 852 633 819 648 l 787 378 z "},"©":{"ha":1149,"x_min":65,"x_max":1085,"o":"m 742 344 q 753 341 748 344 q 763 334 759 338 l 813 281 q 715 207 774 233 q 576 181 657 181 q 451 206 508 181 q 356 273 395 230 q 294 374 316 315 q 272 502 272 433 q 297 631 272 572 q 364 733 321 690 q 464 799 406 775 q 590 822 522 822 q 720 797 667 822 q 813 733 774 772 l 774 678 q 764 668 771 673 q 748 663 758 663 q 727 670 738 663 q 700 687 716 678 q 660 703 684 696 q 597 710 635 710 q 517 696 552 710 q 456 654 481 681 q 418 589 431 627 q 405 502 405 550 q 418 413 405 452 q 456 348 432 374 q 513 307 480 321 q 584 294 545 294 q 642 299 619 294 q 682 313 665 305 q 712 329 699 321 q 742 344 726 338 m 65 500 q 83 635 65 570 q 134 758 101 701 q 214 861 167 815 q 317 941 260 908 q 439 993 374 974 q 574 1011 504 1011 q 710 993 644 1011 q 832 941 775 974 q 935 861 889 908 q 1015 758 982 815 q 1067 635 1049 701 q 1085 500 1085 570 q 1066 365 1085 430 q 1015 243 1048 299 q 935 140 982 186 q 832 60 889 93 q 710 8 775 26 q 574 -10 644 -10 q 439 8 504 -10 q 317 60 374 26 q 214 140 260 93 q 134 243 167 186 q 83 365 101 299 q 65 500 65 430 m 147 500 q 180 329 147 408 q 271 191 213 249 q 407 98 328 132 q 574 64 485 64 q 690 79 634 64 q 793 123 745 94 q 880 190 840 151 q 947 278 919 230 q 990 383 974 327 q 1005 500 1005 439 q 990 618 1005 561 q 947 723 974 674 q 880 811 919 772 q 793 880 840 851 q 690 924 745 908 q 574 940 634 940 q 407 905 485 940 q 271 811 328 871 q 180 672 213 752 q 147 500 147 592 z "},"℗":{"ha":1149,"x_min":65,"x_max":1085,"o":"m 578 497 q 644 505 618 497 q 684 528 669 513 q 704 563 699 543 q 710 608 710 583 q 704 651 710 631 q 685 684 699 670 q 648 705 672 697 q 590 713 625 713 l 507 713 l 507 497 l 578 497 m 590 812 q 700 796 653 812 q 778 753 747 781 q 823 688 808 725 q 838 608 838 651 q 823 530 838 567 q 777 464 808 492 q 699 419 747 436 q 587 403 652 403 l 507 403 l 507 191 l 378 191 l 378 812 l 590 812 m 574 64 q 690 79 634 64 q 793 123 745 94 q 880 190 840 151 q 947 278 919 230 q 990 383 974 327 q 1005 500 1005 439 q 990 618 1005 561 q 947 723 974 674 q 880 811 919 772 q 793 880 840 851 q 690 924 745 908 q 574 940 634 940 q 407 905 485 940 q 271 811 328 871 q 180 672 213 752 q 147 500 147 592 q 180 329 147 408 q 271 191 213 249 q 407 98 328 132 q 574 64 485 64 m 574 1011 q 710 993 644 1011 q 832 941 775 974 q 935 861 889 908 q 1015 758 982 815 q 1067 635 1049 701 q 1085 500 1085 570 q 1066 365 1085 430 q 1015 243 1048 299 q 935 140 982 186 q 832 60 889 93 q 710 8 775 26 q 574 -10 644 -10 q 439 8 504 -10 q 317 60 374 26 q 214 140 260 93 q 134 243 167 186 q 83 365 101 299 q 65 500 65 430 q 83 635 65 570 q 134 758 101 701 q 214 861 167 815 q 317 941 260 908 q 439 993 374 974 q 574 1011 504 1011 z "},"®":{"ha":1149,"x_min":65,"x_max":1085,"o":"m 557 519 q 618 526 594 519 q 658 545 643 533 q 678 576 672 558 q 684 619 684 595 q 679 660 684 643 q 660 689 674 678 q 625 707 647 701 q 569 713 603 713 l 486 713 l 486 519 l 557 519 m 569 812 q 753 767 694 812 q 812 636 812 723 q 778 527 812 573 q 674 461 744 481 q 697 441 688 453 q 715 413 706 428 l 856 191 l 732 191 q 693 211 705 191 l 574 406 q 559 420 567 415 q 533 426 551 426 l 486 426 l 486 191 l 357 191 l 357 812 l 569 812 m 574 64 q 690 79 634 64 q 793 123 745 94 q 880 190 840 151 q 947 278 919 230 q 990 383 974 327 q 1005 500 1005 439 q 990 618 1005 561 q 947 723 974 674 q 880 811 919 772 q 793 880 840 851 q 690 924 745 908 q 574 940 634 940 q 407 905 485 940 q 271 811 328 871 q 180 672 213 752 q 147 500 147 592 q 180 329 147 408 q 271 191 213 249 q 407 98 328 132 q 574 64 485 64 m 574 1011 q 710 993 644 1011 q 832 941 775 974 q 935 861 889 908 q 1015 758 982 815 q 1067 635 1049 701 q 1085 500 1085 570 q 1066 365 1085 430 q 1015 243 1048 299 q 935 140 982 186 q 832 60 889 93 q 710 8 775 26 q 574 -10 644 -10 q 439 8 504 -10 q 317 60 374 26 q 214 140 260 93 q 134 243 167 186 q 83 365 101 299 q 65 500 65 430 q 83 635 65 570 q 134 758 101 701 q 214 861 167 815 q 317 941 260 908 q 439 993 374 974 q 574 1011 504 1011 z "},"™":{"ha":1047,"x_min":59,"x_max":945,"o":"m 59 1000 l 401 1000 l 401 914 l 282 914 l 282 585 l 178 585 l 178 914 l 59 914 l 59 1000 m 945 1000 l 945 585 l 854 585 l 854 814 l 861 875 l 745 655 q 710 632 734 632 l 694 632 q 659 655 670 632 l 544 874 l 550 814 l 550 585 l 459 585 l 459 1000 l 547 1000 q 567 997 561 1000 q 582 984 574 994 l 685 792 q 701 749 695 770 q 719 792 709 771 l 823 984 q 837 997 831 994 q 857 1000 844 1000 l 945 1000 z "},"℠":{"ha":1042,"x_min":81,"x_max":941,"o":"m 350 919 q 328 904 342 904 q 315 908 322 904 q 297 918 307 913 q 273 927 287 923 q 242 931 260 931 q 202 920 217 931 q 188 890 188 909 q 201 867 188 875 q 236 851 215 858 q 281 836 257 844 q 326 815 306 828 q 361 778 347 801 q 375 720 375 756 q 365 665 375 691 q 336 620 355 640 q 289 591 317 601 q 225 580 260 580 q 185 584 205 580 q 146 595 165 588 q 110 613 127 603 q 81 635 94 623 l 106 683 q 115 692 110 688 q 128 695 121 695 q 145 690 136 695 q 165 677 153 684 q 192 665 176 671 q 228 660 207 660 q 270 674 257 660 q 284 708 284 688 q 270 735 284 726 q 235 752 256 745 q 191 766 215 758 q 146 787 167 773 q 111 824 125 801 q 97 885 97 847 q 107 932 97 909 q 134 972 116 954 q 180 1000 153 990 q 241 1010 206 1010 q 313 998 279 1010 q 369 966 347 986 l 350 919 m 941 1000 l 941 585 l 850 585 l 850 814 l 857 875 l 741 655 q 706 632 730 632 l 690 632 q 655 655 666 632 l 540 874 l 546 814 l 546 585 l 455 585 l 455 1000 l 543 1000 q 563 997 557 1000 q 578 984 569 994 l 681 792 q 697 749 691 770 q 715 792 705 771 l 819 984 q 833 997 826 994 q 853 1000 840 1000 l 941 1000 z "},"°":{"ha":576,"x_min":54,"x_max":522,"o":"m 54 781 q 72 872 54 829 q 122 945 90 914 q 195 994 153 976 q 288 1013 238 1013 q 380 994 337 1013 q 455 945 423 976 q 504 872 486 914 q 522 781 522 829 q 504 692 522 734 q 455 619 486 651 q 380 570 423 588 q 288 551 337 551 q 195 570 238 551 q 122 619 153 588 q 72 692 90 651 q 54 781 54 734 m 159 781 q 169 730 159 753 q 195 689 178 706 q 236 661 213 672 q 288 651 260 651 q 339 661 315 651 q 380 689 363 672 q 407 730 397 706 q 417 781 417 753 q 407 832 417 808 q 380 874 397 856 q 339 902 363 892 q 288 912 315 912 q 236 902 260 912 q 195 874 213 892 q 169 832 178 856 q 159 781 159 808 z "},"¤":{"ha":806,"x_min":84,"x_max":722,"o":"m 260 467 q 272 413 260 438 q 302 368 283 387 q 348 337 322 349 q 403 326 374 326 q 459 337 433 326 q 505 368 485 349 q 535 413 524 387 q 547 467 547 438 q 535 523 547 497 q 505 569 524 549 q 459 599 485 588 q 403 610 433 610 q 348 599 374 610 q 302 569 322 588 q 272 523 283 549 q 260 467 260 497 m 647 151 l 542 256 q 476 225 511 236 q 403 215 442 215 q 331 225 365 215 q 267 253 297 235 l 161 148 l 87 224 l 192 328 q 161 394 172 359 q 151 467 151 428 q 161 539 151 505 q 190 603 171 574 l 84 708 l 159 783 l 264 679 q 329 709 294 699 q 403 720 364 720 q 475 710 440 720 q 539 681 509 699 l 644 786 l 719 710 l 615 606 q 645 541 634 576 q 656 467 656 506 q 645 395 656 430 q 617 332 635 361 l 722 226 l 647 151 z "},"€":{"ha":806,"x_min":17,"x_max":784,"o":"m 17 635 l 114 635 q 163 791 129 722 q 246 908 197 860 q 359 983 296 957 q 497 1010 423 1010 q 660 974 592 1010 q 774 876 727 938 l 723 818 q 710 806 717 811 q 691 801 703 801 q 674 807 683 801 q 656 821 666 813 q 634 840 647 830 q 603 859 621 851 q 560 874 585 868 q 503 880 536 880 q 420 864 458 880 q 352 818 382 849 q 300 741 322 787 q 267 635 278 695 l 631 635 l 631 589 q 620 563 631 575 q 589 551 608 551 l 258 551 q 256 526 256 538 q 256 500 256 513 q 256 481 256 490 q 257 463 256 472 l 566 463 l 566 417 q 555 391 566 403 q 524 378 543 378 l 265 378 q 345 184 284 249 q 497 120 406 120 q 558 127 532 120 q 603 144 584 134 q 636 166 622 154 q 660 189 649 178 q 679 206 671 199 q 697 213 688 213 q 709 210 704 213 q 720 202 715 208 l 784 142 q 661 29 735 69 q 488 -10 588 -10 q 342 17 407 -10 q 230 95 278 44 q 152 218 183 146 q 110 378 122 290 l 17 378 l 17 463 l 103 463 q 103 481 103 472 q 103 500 103 490 q 103 526 103 513 q 104 551 103 538 l 17 551 l 17 635 z "},"$":{"ha":806,"x_min":57,"x_max":741,"o":"m 432 117 q 557 171 515 126 q 600 285 600 215 q 589 338 600 315 q 559 376 578 360 q 513 405 540 393 q 456 428 487 417 l 432 117 m 398 881 q 326 864 356 877 q 277 833 297 851 q 249 792 258 815 q 240 743 240 769 q 250 692 240 714 q 279 652 260 669 q 322 623 297 635 q 376 599 347 610 l 398 881 m 467 569 q 566 536 517 554 q 654 489 615 517 q 717 417 693 460 q 741 309 741 374 q 720 190 741 246 q 658 91 699 134 q 557 22 617 49 q 422 -10 498 -5 l 414 -121 q 402 -148 413 -135 q 374 -160 391 -160 l 318 -160 l 330 -8 q 177 36 248 2 q 57 120 107 69 l 102 189 q 118 204 108 198 q 140 210 128 210 q 172 198 155 210 q 212 170 189 186 q 266 140 235 155 q 340 118 297 125 l 365 455 q 269 488 317 469 q 184 537 222 506 q 123 613 146 567 q 99 728 99 659 q 120 830 99 781 q 180 918 140 879 q 276 981 219 956 q 408 1009 334 1006 l 415 1102 q 427 1129 416 1117 q 456 1141 438 1141 l 511 1141 l 501 1005 q 627 965 574 994 q 720 897 681 935 l 684 841 q 647 817 669 817 q 622 824 636 817 q 589 842 608 832 q 545 863 569 853 q 491 879 521 874 l 467 569 z "},"¢":{"ha":806,"x_min":89,"x_max":722,"o":"m 428 603 q 284 529 332 594 q 236 354 236 464 q 276 191 236 253 q 390 111 317 129 l 428 603 m 722 102 q 611 22 676 48 q 473 -9 547 -3 l 465 -119 q 452 -146 463 -134 q 424 -158 442 -158 l 369 -158 l 381 -7 q 265 29 318 1 q 172 103 211 57 q 111 213 133 149 q 89 354 89 276 q 112 496 89 431 q 179 610 135 561 q 288 687 223 658 q 437 719 353 715 l 446 834 q 458 861 447 849 q 487 873 469 873 l 542 873 l 529 713 q 630 681 585 703 q 713 624 675 658 l 674 571 q 662 558 669 563 q 644 553 656 553 q 624 559 635 553 q 599 571 613 564 q 565 586 584 578 q 520 599 546 594 l 482 105 q 549 118 522 108 q 594 140 576 128 q 627 159 613 151 q 653 168 640 168 q 681 155 672 168 l 722 102 z "},"£":{"ha":806,"x_min":29,"x_max":776,"o":"m 29 469 q 42 506 29 490 q 80 521 55 521 l 163 521 l 163 692 q 182 816 163 758 q 240 917 201 874 q 338 986 279 960 q 474 1011 396 1011 q 572 997 529 1011 q 649 959 615 983 q 707 903 682 935 q 749 833 731 871 l 690 794 q 650 785 669 784 q 615 806 631 787 q 588 836 601 822 q 558 861 574 851 q 522 877 542 872 q 474 883 501 883 q 356 832 395 883 q 316 693 316 781 l 316 521 l 610 521 l 610 460 q 598 433 610 446 q 567 421 586 421 l 316 421 l 316 271 q 298 186 316 223 q 247 119 279 149 q 339 128 294 128 l 776 128 l 776 65 q 771 42 776 53 q 758 21 767 31 q 738 6 749 12 q 711 0 726 0 l 44 0 l 44 95 q 89 113 67 101 q 127 140 110 124 q 153 179 144 156 q 163 231 163 201 l 163 421 l 29 421 l 29 469 z "},"¥":{"ha":806,"x_min":22,"x_max":784,"o":"m 504 437 l 706 437 l 706 353 l 477 353 l 477 283 l 706 283 l 706 199 l 477 199 l 477 0 l 328 0 l 328 199 l 99 199 l 99 283 l 328 283 l 328 353 l 99 353 l 99 437 l 301 437 l 22 1000 l 145 1000 q 180 990 167 1000 q 201 963 193 980 l 372 600 q 391 549 383 572 q 404 502 399 525 q 417 549 410 525 q 435 600 424 573 l 605 963 q 625 989 611 977 q 659 1000 639 1000 l 784 1000 l 504 437 z "},"℅":{"ha":1171,"x_min":35,"x_max":1140,"o":"m 853 976 q 872 993 861 985 q 903 1000 883 1000 l 1010 1000 l 274 23 q 255 7 266 13 q 227 0 243 0 l 117 0 l 853 976 m 409 631 q 425 624 418 631 l 470 574 q 283 492 408 492 q 180 512 226 492 q 101 567 133 532 q 52 650 69 602 q 35 753 35 697 q 54 859 35 810 q 106 941 73 907 q 186 995 140 976 q 290 1015 233 1015 q 391 995 347 1015 q 464 947 435 976 l 426 892 q 417 883 422 887 q 403 879 412 879 q 385 885 394 879 q 365 898 377 891 q 335 910 353 904 q 289 916 317 916 q 233 905 258 916 q 190 874 208 894 q 162 823 172 853 q 152 753 152 792 q 163 684 152 715 q 193 633 174 653 q 237 601 212 612 q 291 590 263 590 q 347 597 325 590 q 390 623 369 604 q 399 628 394 626 q 409 631 403 631 m 1140 251 q 1121 148 1140 195 q 1068 65 1102 100 q 984 10 1033 30 q 876 -10 935 -10 q 769 10 817 -10 q 685 65 720 30 q 632 148 651 100 q 613 251 613 195 q 632 354 613 306 q 685 436 651 401 q 769 492 720 472 q 876 512 817 512 q 984 492 935 512 q 1068 436 1033 472 q 1121 353 1102 401 q 1140 251 1140 306 m 1024 251 q 985 370 1024 326 q 876 413 946 413 q 768 370 807 413 q 729 251 729 326 q 768 131 729 174 q 876 88 807 88 q 985 131 946 88 q 1024 251 1024 174 z "},"№":{"ha":1622,"x_min":137,"x_max":1555,"o":"m 822 1000 l 965 1000 l 965 0 l 881 0 q 850 7 863 0 q 824 28 837 13 l 276 734 q 278 694 277 714 q 279 658 279 674 l 279 0 l 137 0 l 137 1000 l 221 1000 q 239 999 231 1000 q 252 995 247 998 q 264 987 258 992 q 276 973 269 981 l 826 267 q 823 309 824 289 q 822 348 822 330 l 822 1000 m 1321 913 q 1234 878 1265 913 q 1203 782 1203 843 q 1234 687 1203 721 q 1321 653 1265 653 q 1408 687 1376 653 q 1439 782 1439 721 q 1408 878 1439 843 q 1321 913 1376 913 m 1322 551 q 1226 568 1269 551 q 1152 617 1183 586 q 1105 690 1122 648 q 1088 781 1088 732 q 1105 872 1088 830 q 1152 945 1122 915 q 1226 994 1183 976 q 1322 1012 1269 1012 q 1417 994 1374 1012 q 1491 945 1460 976 q 1538 872 1522 914 q 1555 781 1555 829 q 1538 690 1555 732 q 1491 617 1522 648 q 1417 568 1460 586 q 1322 551 1374 551 m 1091 473 l 1550 473 l 1550 366 l 1091 366 l 1091 473 z "},"#":{"ha":806,"x_min":28,"x_max":778,"o":"m 497 604 l 340 604 l 300 397 l 456 397 l 497 604 m 778 713 l 767 651 q 748 615 763 626 q 701 604 733 604 l 619 604 l 579 397 l 690 397 q 723 383 713 397 q 728 335 733 369 l 721 288 l 563 288 l 508 0 l 440 0 q 420 5 429 0 q 404 18 410 10 q 395 39 398 27 q 396 63 393 50 l 440 288 l 285 288 l 240 56 q 216 13 235 26 q 172 0 197 0 l 106 0 l 162 288 l 72 288 q 39 302 49 288 q 33 349 28 316 l 41 397 l 178 397 l 217 604 l 63 604 l 74 667 q 93 702 78 691 q 140 713 108 713 l 233 713 l 279 948 q 302 986 284 972 q 344 1000 319 1000 l 411 1000 l 356 713 l 512 713 l 567 1000 l 633 1000 q 671 985 658 1000 q 681 947 685 969 l 635 713 l 778 713 z "},"₀":{"ha":464,"x_min":38,"x_max":426,"o":"m 426 98 q 410 -18 426 31 q 369 -99 395 -67 q 307 -147 342 -131 q 231 -162 271 -162 q 155 -147 190 -162 q 94 -99 120 -131 q 53 -18 68 -67 q 38 98 38 31 q 53 214 38 165 q 94 295 68 263 q 155 343 120 328 q 231 359 190 359 q 307 343 271 359 q 369 295 342 328 q 410 214 395 263 q 426 98 426 165 m 317 98 q 311 185 317 151 q 293 239 304 219 q 265 265 281 258 q 231 272 249 272 q 196 265 212 272 q 170 239 181 258 q 153 185 159 219 q 147 98 147 151 q 153 11 147 45 q 171 -41 160 -22 q 198 -68 183 -60 q 231 -75 213 -75 q 264 -68 248 -75 q 291 -41 279 -60 q 310 11 303 -22 q 317 98 317 45 z "},"₁":{"ha":464,"x_min":64,"x_max":397,"o":"m 397 -87 l 397 -157 l 106 -157 l 106 -87 l 204 -87 l 204 188 l 208 221 l 144 170 q 130 163 137 165 q 116 163 122 162 q 105 168 110 165 q 97 175 99 172 l 64 221 l 222 355 l 312 355 l 312 -87 l 397 -87 z "},"₂":{"ha":464,"x_min":46,"x_max":412,"o":"m 376 -58 q 402 -68 393 -58 q 412 -93 412 -77 l 412 -157 l 46 -157 l 46 -122 q 50 -99 46 -111 q 64 -78 54 -87 l 213 69 q 244 103 230 85 q 269 138 258 120 q 285 173 279 156 q 292 208 292 191 q 274 255 292 238 q 230 272 257 272 q 186 258 203 272 q 160 219 169 244 q 142 200 152 206 q 110 198 131 194 l 50 208 q 111 322 61 284 q 235 359 161 359 q 305 348 274 359 q 357 317 335 337 q 389 271 378 298 q 401 212 401 244 q 392 160 401 183 q 369 114 383 136 q 335 72 354 92 q 297 31 317 52 l 197 -69 q 232 -61 215 -64 q 265 -58 249 -58 l 376 -58 z "},"₃":{"ha":464,"x_min":43,"x_max":408,"o":"m 57 208 q 78 274 63 246 q 117 322 94 303 q 171 350 141 340 q 236 359 201 359 q 303 348 274 359 q 354 319 333 338 q 386 277 375 301 q 397 227 397 253 q 319 106 397 139 q 385 67 363 93 q 408 -1 408 41 q 392 -73 408 -42 q 352 -123 377 -103 q 295 -152 327 -142 q 229 -162 263 -162 q 161 -155 191 -162 q 109 -131 132 -147 q 71 -88 87 -114 q 43 -26 55 -62 l 90 -6 q 123 -2 108 2 q 145 -19 139 -6 q 154 -36 149 -26 q 169 -53 160 -45 q 191 -67 178 -62 q 224 -73 205 -73 q 256 -67 242 -73 q 280 -52 270 -62 q 294 -31 290 -43 q 299 -6 299 -19 q 294 27 299 14 q 276 50 288 41 q 242 62 263 58 q 191 66 222 66 l 191 138 q 240 143 220 138 q 272 157 260 148 q 289 179 284 166 q 294 208 294 192 q 277 254 294 238 q 231 270 260 270 q 185 257 201 270 q 160 220 168 243 q 143 199 153 204 q 113 198 134 194 l 57 208 z "},"₄":{"ha":464,"x_min":19,"x_max":428,"o":"m 268 35 l 268 174 q 269 207 268 189 q 273 244 270 224 l 119 35 l 268 35 m 428 35 l 428 -20 q 422 -34 428 -28 q 407 -40 417 -40 l 358 -40 l 358 -157 l 268 -157 l 268 -40 l 62 -40 q 39 -34 47 -40 q 28 -17 31 -27 l 19 29 l 255 353 l 358 353 l 358 35 l 428 35 z "},"₅":{"ha":464,"x_min":52,"x_max":401,"o":"m 181 168 q 238 174 211 174 q 308 163 277 174 q 359 131 338 151 q 391 83 380 111 q 401 22 401 56 q 387 -53 401 -19 q 347 -111 372 -87 q 285 -149 321 -135 q 207 -162 249 -162 q 118 -143 158 -162 q 52 -97 79 -124 l 84 -52 q 110 -37 95 -37 q 130 -42 121 -37 q 150 -55 139 -48 q 176 -67 161 -61 q 213 -72 191 -72 q 243 -67 228 -72 q 269 -52 258 -62 q 287 -27 281 -42 q 294 10 294 -11 q 274 67 294 48 q 215 87 253 87 q 180 83 197 87 q 144 74 162 79 l 79 92 l 123 353 l 383 353 l 383 309 q 369 272 383 287 q 322 258 355 258 l 197 258 l 181 168 z "},"₆":{"ha":464,"x_min":51,"x_max":417,"o":"m 235 -81 q 268 -74 253 -81 q 294 -57 283 -68 q 312 -32 306 -47 q 318 1 318 -17 q 298 62 318 40 q 240 83 277 83 q 178 60 200 83 q 156 1 156 37 q 177 -57 156 -34 q 235 -81 199 -81 m 244 197 q 214 164 231 180 q 181 131 197 149 q 223 154 199 145 q 272 163 246 163 q 324 154 298 163 q 370 128 349 146 q 404 82 391 110 q 417 14 417 53 q 404 -55 417 -22 q 367 -111 391 -87 q 308 -149 342 -135 q 233 -162 274 -162 q 156 -149 190 -162 q 99 -111 122 -135 q 63 -53 76 -87 q 51 21 51 -19 q 110 174 51 97 l 226 329 q 248 347 233 340 q 281 353 263 353 l 375 353 l 244 197 z "},"₇":{"ha":464,"x_min":57,"x_max":415,"o":"m 415 353 l 415 296 q 412 276 415 285 q 406 260 410 267 l 222 -122 q 216 -134 219 -128 q 207 -145 213 -140 q 193 -154 201 -151 q 172 -157 184 -157 l 89 -157 l 275 206 q 306 255 290 235 l 81 255 q 64 262 72 255 q 57 279 57 269 l 57 353 l 415 353 z "},"₈":{"ha":464,"x_min":51,"x_max":413,"o":"m 232 -81 q 288 -60 271 -81 q 306 -8 306 -39 q 285 49 306 32 q 232 65 265 65 q 179 49 199 65 q 159 -8 159 32 q 177 -60 159 -39 q 232 -81 194 -81 m 232 280 q 183 261 199 280 q 167 219 167 242 q 183 167 167 185 q 232 149 199 149 q 282 167 266 149 q 299 219 299 185 q 282 261 299 242 q 232 280 265 280 m 328 109 q 393 62 374 93 q 413 -10 413 31 q 400 -73 413 -45 q 363 -121 387 -101 q 306 -152 340 -141 q 232 -162 272 -162 q 158 -152 192 -162 q 101 -121 125 -141 q 64 -73 77 -101 q 51 -10 51 -45 q 70 62 51 31 q 136 109 90 93 q 68 220 68 142 q 80 275 68 250 q 114 319 92 301 q 166 349 136 338 q 232 359 197 359 q 298 349 268 359 q 350 319 328 338 q 384 275 372 301 q 396 220 396 250 q 379 153 396 181 q 328 109 363 125 z "},"₉":{"ha":464,"x_min":53,"x_max":406,"o":"m 156 203 q 175 146 156 165 q 231 127 194 127 q 287 147 267 127 q 308 202 308 167 q 286 258 308 238 q 233 278 265 278 q 176 258 196 278 q 156 203 156 238 m 225 15 q 248 41 237 29 q 269 67 259 53 q 199 51 239 51 q 146 61 172 51 q 99 89 120 71 q 66 135 78 108 q 53 197 53 162 q 66 256 53 227 q 102 308 78 285 q 158 345 125 331 q 231 359 191 359 q 304 348 272 359 q 359 315 337 336 q 393 263 381 293 q 406 194 406 232 q 401 143 406 167 q 388 97 397 119 q 366 53 378 74 q 337 8 353 31 l 238 -133 q 216 -150 231 -142 q 184 -157 202 -157 l 88 -157 l 225 15 z "},"₊":{"ha":464,"x_min":59,"x_max":405,"o":"m 405 48 l 274 48 l 274 -91 l 189 -91 l 189 48 l 59 48 l 59 128 l 189 128 l 189 265 l 274 265 l 274 128 l 405 128 l 405 48 z "},"₋":{"ha":464,"x_min":73,"x_max":391,"o":"m 73 128 l 391 128 l 391 48 l 73 48 l 73 128 z "},"₌":{"ha":464,"x_min":73,"x_max":391,"o":"m 73 63 l 391 63 l 391 -16 l 73 -16 l 73 63 m 73 191 l 391 191 l 391 113 l 73 113 l 73 191 z "},"₍":{"ha":232,"x_min":38,"x_max":199,"o":"m 128 90 q 144 -48 128 21 q 190 -176 160 -117 q 194 -203 199 -194 q 181 -217 190 -212 l 134 -247 q 60 -84 83 -167 q 38 90 38 -1 q 60 265 38 181 q 134 427 83 348 l 181 399 q 194 384 190 393 q 190 358 199 375 q 144 229 160 298 q 128 90 128 160 z "},"₎":{"ha":232,"x_min":33,"x_max":194,"o":"m 103 90 q 87 229 103 160 q 42 358 71 298 q 38 384 33 375 q 51 399 42 393 l 98 427 q 172 265 149 348 q 194 90 194 181 q 172 -84 194 -1 q 98 -247 149 -167 l 51 -217 q 38 -203 42 -212 q 42 -176 33 -194 q 87 -48 71 -117 q 103 90 103 21 z "},"⁄":{"ha":194,"x_min":-261,"x_max":456,"o":"m -122 44 q -156 9 -138 18 q -198 0 -174 0 l -261 0 l 313 950 q 347 987 328 974 q 392 1000 365 1000 l 456 1000 l -122 44 z "},"⅔":{"ha":1035,"x_min":63,"x_max":976,"o":"m 326 44 q 293 9 310 18 q 251 0 275 0 l 188 0 l 762 950 q 795 987 776 974 q 840 1000 814 1000 l 904 1000 l 326 44 m 393 588 q 420 579 410 588 q 429 553 429 569 l 429 490 l 63 490 l 63 525 q 67 547 63 535 q 81 569 72 559 l 231 716 q 261 749 247 732 q 286 784 276 767 q 303 820 297 802 q 309 854 309 838 q 292 901 309 884 q 247 919 274 919 q 203 905 220 919 q 178 866 187 891 q 159 847 169 852 q 127 844 149 841 l 67 854 q 128 968 78 931 q 253 1006 178 1006 q 322 994 291 1006 q 374 964 353 983 q 407 917 395 944 q 418 858 418 890 q 409 806 418 830 q 386 761 401 783 q 353 719 372 739 q 314 678 334 699 l 215 577 q 250 585 233 583 q 282 588 267 588 l 393 588 m 625 365 q 646 431 631 403 q 685 478 662 460 q 739 507 709 497 q 804 516 769 516 q 872 505 842 516 q 922 476 901 494 q 954 434 943 458 q 965 384 965 410 q 887 263 965 296 q 953 224 931 250 q 976 156 976 198 q 960 84 976 115 q 920 34 945 54 q 863 5 895 15 q 797 -6 831 -6 q 730 2 759 -6 q 677 26 700 10 q 639 69 655 43 q 611 131 623 95 l 658 151 q 691 155 676 159 q 713 138 707 151 q 722 121 717 131 q 737 103 728 112 q 759 90 746 95 q 792 84 773 84 q 824 90 810 84 q 848 105 838 95 q 863 126 858 114 q 867 151 867 138 q 862 184 867 171 q 844 207 856 198 q 810 219 831 215 q 759 223 790 223 l 759 294 q 808 300 788 295 q 840 314 828 305 q 857 336 852 323 q 862 365 862 349 q 845 411 862 394 q 799 427 828 427 q 753 414 769 427 q 728 377 736 400 q 711 356 721 361 q 681 355 702 351 l 625 365 z "},"⅖":{"ha":1014,"x_min":62,"x_max":950,"o":"m 325 44 q 291 9 309 18 q 249 0 274 0 l 186 0 l 760 950 q 794 987 775 974 q 839 1000 813 1000 l 903 1000 l 325 44 m 392 588 q 418 579 409 588 q 428 553 428 569 l 428 490 l 62 490 l 62 525 q 66 547 62 535 q 80 569 70 559 l 229 716 q 260 749 246 732 q 285 784 274 767 q 301 820 295 802 q 308 854 308 838 q 290 901 308 884 q 246 919 273 919 q 202 905 219 919 q 176 866 185 891 q 158 847 168 852 q 126 844 147 841 l 66 854 q 127 968 77 931 q 251 1006 177 1006 q 320 994 290 1006 q 373 964 351 983 q 405 917 394 944 q 417 858 417 890 q 408 806 417 830 q 385 761 399 783 q 351 719 370 739 q 313 678 333 699 l 213 577 q 248 585 231 583 q 281 588 265 588 l 392 588 m 730 325 q 786 331 760 331 q 856 319 826 331 q 908 288 887 308 q 939 240 928 268 q 950 179 950 213 q 935 104 950 138 q 895 46 921 70 q 834 8 869 22 q 756 -6 798 -6 q 667 14 706 -6 q 601 60 628 33 l 633 105 q 659 120 644 120 q 678 115 669 120 q 699 102 688 109 q 725 90 710 96 q 762 85 740 85 q 792 90 777 85 q 818 105 806 94 q 836 130 829 115 q 842 167 842 146 q 822 224 842 205 q 763 244 802 244 q 728 240 746 244 q 692 231 710 236 l 628 249 l 672 510 l 931 510 l 931 466 q 917 429 931 444 q 870 415 903 415 l 745 415 l 730 325 z "},"+":{"ha":806,"x_min":67,"x_max":739,"o":"m 739 410 l 463 410 l 463 119 l 342 119 l 342 410 l 67 410 l 67 522 l 342 522 l 342 813 l 463 813 l 463 522 l 739 522 l 739 410 z "},"−":{"ha":806,"x_min":99,"x_max":706,"o":"m 99 522 l 706 522 l 706 410 l 99 410 l 99 522 z "},"×":{"ha":806,"x_min":83,"x_max":724,"o":"m 644 146 l 404 387 l 162 144 l 83 224 l 324 466 l 92 699 l 171 778 l 403 546 l 635 777 l 715 697 l 483 466 l 724 226 l 644 146 z "},"÷":{"ha":806,"x_min":67,"x_max":738,"o":"m 67 522 l 738 522 l 738 410 l 67 410 l 67 522 m 306 713 q 313 751 306 733 q 333 782 320 769 q 364 802 347 794 q 402 810 381 810 q 440 802 422 810 q 470 782 458 794 q 491 751 483 769 q 499 713 499 733 q 491 675 499 692 q 470 644 483 658 q 440 624 458 631 q 402 617 422 617 q 364 624 381 617 q 333 644 347 631 q 313 675 320 658 q 306 713 306 692 m 306 219 q 313 257 306 239 q 333 287 320 274 q 364 308 347 300 q 402 315 381 315 q 440 308 422 315 q 470 287 458 300 q 491 257 483 274 q 499 219 499 239 q 491 181 499 198 q 470 150 483 163 q 440 130 458 137 q 402 122 422 122 q 364 130 381 122 q 333 150 347 137 q 313 181 320 163 q 306 219 306 198 z "},"=":{"ha":806,"x_min":99,"x_max":706,"o":"m 99 404 l 706 404 l 706 291 l 99 291 l 99 404 m 99 643 l 706 643 l 706 531 l 99 531 l 99 643 z "},"≠":{"ha":806,"x_min":100,"x_max":707,"o":"m 497 531 l 435 404 l 707 404 l 707 291 l 381 291 l 299 123 l 192 123 l 274 291 l 100 291 l 100 404 l 328 404 l 390 531 l 100 531 l 100 643 l 444 643 l 522 803 l 629 803 l 551 643 l 707 643 l 707 531 l 497 531 z "},"≈":{"ha":806,"x_min":115,"x_max":690,"o":"m 547 610 q 588 615 568 610 q 624 627 608 620 q 653 643 641 635 q 671 658 665 651 l 690 563 q 623 512 664 528 q 538 496 582 496 q 465 507 501 496 q 394 532 429 518 q 326 556 360 545 q 263 567 293 567 q 220 563 240 567 q 183 550 200 558 q 155 534 167 542 q 138 518 143 525 l 115 610 q 182 665 140 647 q 272 682 224 682 q 345 671 308 682 q 416 646 381 660 q 484 622 451 633 q 547 610 517 610 m 547 369 q 588 374 568 369 q 624 386 608 378 q 653 401 641 393 q 671 416 665 410 l 690 321 q 623 270 664 286 q 538 254 582 254 q 465 265 501 254 q 394 290 429 276 q 326 315 360 303 q 263 326 293 326 q 220 321 240 326 q 183 308 200 316 q 155 292 167 301 q 138 276 143 283 l 115 368 q 182 423 140 406 q 272 440 224 440 q 345 429 308 440 q 416 405 381 418 q 484 380 451 391 q 547 369 517 369 z "},"<":{"ha":806,"x_min":108,"x_max":653,"o":"m 344 491 q 313 478 330 483 q 278 467 296 472 q 313 457 296 463 q 344 444 330 451 l 625 302 q 647 284 640 294 q 653 260 653 274 l 653 153 l 108 437 l 108 499 l 653 782 l 653 674 q 647 651 653 662 q 625 633 640 641 l 344 491 z "},">":{"ha":806,"x_min":153,"x_max":697,"o":"m 697 499 l 697 437 l 153 153 l 153 260 q 159 284 153 274 q 181 302 165 294 l 461 444 q 493 457 476 451 q 528 467 510 463 q 493 478 510 472 q 461 491 476 483 l 181 633 q 159 651 165 641 q 153 674 153 662 l 153 782 l 697 499 z "},"±":{"ha":806,"x_min":67,"x_max":739,"o":"m 67 168 l 739 168 l 739 56 l 67 56 l 67 168 m 739 597 l 739 485 l 463 485 l 463 240 l 342 240 l 342 485 l 67 485 l 67 597 l 342 597 l 342 850 l 463 850 l 463 597 l 739 597 z "},"≤":{"ha":806,"x_min":124,"x_max":668,"o":"m 124 168 l 668 168 l 668 56 l 124 56 l 124 168 m 360 560 q 325 548 344 553 q 286 538 306 542 q 325 528 307 533 q 360 515 344 522 l 634 389 q 661 369 654 380 q 668 345 668 358 l 668 242 l 124 507 l 124 568 l 668 831 l 668 728 q 661 704 668 715 q 634 684 655 692 l 360 560 z "},"≥":{"ha":806,"x_min":138,"x_max":681,"o":"m 138 168 l 681 168 l 681 56 l 138 56 l 138 168 m 681 568 l 681 507 l 138 242 l 138 345 q 144 369 138 358 q 172 389 151 380 l 445 515 q 480 528 462 522 q 519 538 499 533 q 481 548 499 542 q 445 560 462 553 l 172 684 q 144 704 151 692 q 138 728 138 715 l 138 831 l 681 568 z "},"¬":{"ha":806,"x_min":97,"x_max":704,"o":"m 704 212 l 578 212 l 578 410 l 97 410 l 97 522 l 704 522 l 704 212 z "},"℮":{"ha":1142,"x_min":69,"x_max":1084,"o":"m 885 621 q 864 740 885 685 q 805 833 844 794 q 712 893 767 872 q 588 915 657 915 q 466 893 522 915 q 369 830 410 870 q 307 733 329 789 q 285 612 285 678 l 285 597 l 885 597 l 885 621 m 285 406 q 308 285 285 343 q 375 184 331 228 q 483 114 419 140 q 626 88 546 88 q 809 127 728 88 q 951 251 890 166 l 1032 193 q 956 106 999 144 q 860 41 914 68 q 740 1 806 15 q 593 -13 674 -13 q 375 25 472 -13 q 210 132 278 64 q 106 293 142 200 q 69 495 69 386 q 107 697 69 603 q 213 860 144 791 q 375 970 281 930 q 581 1010 469 1010 q 731 991 663 1010 q 855 938 799 972 q 952 857 910 904 q 1023 753 994 810 q 1067 634 1051 697 q 1084 503 1082 570 l 285 503 l 285 406 z "},"ℓ":{"ha":773,"x_min":42,"x_max":748,"o":"m 42 435 q 99 447 72 440 q 155 460 127 453 q 183 602 163 533 q 231 732 202 671 q 296 845 259 793 q 376 934 333 897 q 470 992 420 971 q 574 1013 519 1013 q 651 997 618 1013 q 705 956 683 982 q 737 894 726 929 q 748 819 748 859 q 715 689 748 750 q 622 575 682 628 q 477 478 562 522 q 290 398 393 433 l 290 374 q 296 249 290 299 q 315 169 302 199 q 345 127 327 139 q 385 115 363 115 q 433 126 410 115 q 478 159 456 138 q 518 209 499 181 q 551 272 536 238 l 673 242 q 624 142 655 188 q 551 63 592 97 q 460 9 510 28 q 354 -10 410 -10 q 269 8 307 -10 q 204 70 231 27 q 163 181 177 113 q 148 350 148 250 l 148 356 q 60 335 105 344 l 42 435 m 552 898 q 474 868 513 898 q 401 785 435 838 q 340 661 367 732 q 301 508 314 590 q 431 571 372 537 q 532 644 490 606 q 598 725 574 683 q 622 811 622 767 q 603 875 622 853 q 552 898 585 898 z "},"∞":{"ha":1020,"x_min":69,"x_max":951,"o":"m 723 290 q 765 297 745 290 q 800 319 785 304 q 824 357 815 334 q 833 410 833 379 q 824 465 833 442 q 800 502 815 488 q 765 525 785 517 q 723 532 745 532 q 680 523 700 532 q 643 497 660 513 q 609 458 625 480 q 577 411 593 436 q 609 364 593 386 q 643 325 625 342 q 680 299 660 308 q 723 290 700 290 m 298 290 q 341 299 321 290 q 378 325 360 308 q 412 364 396 342 q 444 411 428 386 q 412 458 428 436 q 378 497 396 480 q 341 523 360 513 q 298 532 321 532 q 256 525 276 532 q 220 502 235 517 q 196 465 205 488 q 187 410 187 442 q 196 357 187 379 q 220 319 205 334 q 256 297 235 304 q 298 290 276 290 m 728 653 q 813 636 773 653 q 884 586 853 618 q 933 509 915 554 q 951 410 951 465 q 933 312 951 356 q 884 235 915 267 q 813 186 853 203 q 728 168 773 168 q 659 179 690 168 q 600 209 627 190 q 552 253 574 228 q 510 306 530 278 q 469 253 491 278 q 420 209 447 228 q 362 179 394 190 q 292 168 330 168 q 206 186 247 168 q 136 235 166 203 q 88 312 106 267 q 69 410 69 356 q 88 509 69 465 q 136 586 106 554 q 206 636 166 618 q 292 653 247 653 q 362 642 330 653 q 420 613 394 631 q 469 569 447 594 q 510 516 491 544 q 552 569 530 544 q 600 613 574 594 q 659 642 627 631 q 728 653 690 653 z "},"∂":{"ha":806,"x_min":53,"x_max":752,"o":"m 353 108 q 432 125 394 108 q 501 177 469 142 q 556 269 532 213 q 592 403 579 325 q 573 457 585 431 q 541 503 561 483 q 493 535 522 523 q 428 547 465 547 q 332 527 373 547 q 263 472 290 507 q 221 389 235 437 q 207 284 207 341 q 246 154 207 200 q 353 108 285 108 m 224 928 q 279 963 252 948 q 334 989 306 978 q 395 1005 363 999 q 465 1010 427 1010 q 582 984 529 1010 q 673 909 635 958 q 731 789 710 860 q 752 628 752 718 q 726 368 752 486 q 649 167 701 251 q 518 36 597 83 q 335 -10 440 -10 q 222 11 274 -10 q 133 69 170 31 q 74 161 95 107 q 53 282 53 215 q 80 432 53 363 q 155 553 107 502 q 269 634 203 605 q 412 664 335 664 q 533 637 482 664 q 617 558 583 610 q 618 595 618 578 q 618 628 618 613 q 572 825 618 758 q 445 891 525 891 q 393 884 417 891 q 350 868 369 877 q 315 853 330 860 q 290 846 300 846 q 274 851 282 846 q 257 871 265 856 l 224 928 z "},"∫":{"ha":699,"x_min":2,"x_max":698,"o":"m 324 860 q 356 983 333 932 q 414 1068 379 1035 q 495 1117 449 1101 q 595 1133 541 1133 q 648 1128 620 1133 q 698 1112 675 1124 l 690 1049 q 685 1034 688 1040 q 675 1025 682 1028 q 658 1021 669 1022 q 630 1019 647 1019 q 561 1011 590 1019 q 513 984 532 1002 q 482 936 493 965 q 466 865 471 907 l 376 33 q 343 -89 367 -37 q 285 -174 320 -141 q 204 -224 250 -208 q 104 -240 158 -240 q 52 -235 80 -240 q 2 -218 25 -230 l 10 -155 q 15 -140 12 -146 q 24 -132 18 -135 q 42 -127 31 -128 q 70 -126 53 -126 q 139 -117 110 -126 q 188 -90 168 -108 q 218 -42 207 -72 q 234 29 229 -12 l 324 860 z "},"√":{"ha":865,"x_min":26,"x_max":860,"o":"m 860 1187 l 478 0 l 352 0 l 183 452 l 83 452 q 43 466 60 452 q 26 513 26 480 l 26 561 l 265 561 q 294 553 283 561 q 310 532 306 544 l 396 285 q 410 232 404 259 q 419 178 415 206 q 438 267 425 220 l 721 1157 q 736 1178 725 1170 q 763 1187 748 1187 l 860 1187 z "},"∏":{"ha":970,"x_min":49,"x_max":922,"o":"m 922 873 l 799 873 l 799 -235 l 645 -235 l 645 873 l 325 873 l 325 -235 l 172 -235 l 172 873 l 49 873 l 49 1000 l 922 1000 l 922 873 z "},"∑":{"ha":949,"x_min":50,"x_max":886,"o":"m 886 873 l 281 873 l 657 404 l 657 360 l 281 -108 l 886 -108 l 886 -235 l 50 -235 l 50 -182 q 54 -158 50 -171 q 66 -136 58 -146 l 491 385 l 66 901 q 54 923 58 911 q 50 947 50 935 l 50 1000 l 886 1000 l 886 873 z "},"◊":{"ha":806,"x_min":65,"x_max":741,"o":"m 598 494 l 435 828 q 416 875 424 851 q 403 924 408 899 q 390 876 397 900 q 372 829 383 852 l 210 494 l 368 167 q 403 62 392 116 q 417 114 408 88 q 438 167 426 140 l 598 494 m 741 494 l 455 -72 l 351 -72 l 65 494 l 351 1060 l 455 1060 l 741 494 z "},"←":{"ha":1389,"x_min":70,"x_max":1310,"o":"m 70 448 l 472 849 l 524 797 q 536 764 540 780 q 519 733 533 747 l 349 563 q 283 503 313 527 q 368 512 323 509 q 458 515 413 515 l 1310 515 l 1310 380 l 458 380 q 367 383 412 380 q 282 391 322 385 q 314 365 297 379 q 349 332 330 350 l 520 161 q 538 130 535 147 q 525 98 541 114 l 474 44 l 70 448 z "},"→":{"ha":1389,"x_min":78,"x_max":1319,"o":"m 1319 447 l 917 45 l 865 99 q 852 131 849 115 q 870 163 856 147 l 1040 331 q 1075 364 1058 349 q 1107 391 1092 379 q 1021 383 1066 386 q 931 380 976 380 l 78 380 l 78 515 l 931 515 q 1022 512 976 515 q 1108 503 1067 509 q 1075 530 1092 515 q 1040 563 1058 545 l 869 733 q 851 765 854 748 q 864 797 848 781 l 915 851 l 1319 447 z "},"↑":{"ha":1042,"x_min":118,"x_max":923,"o":"m 923 681 l 870 629 q 838 616 854 613 q 806 634 821 619 l 637 803 q 604 838 619 822 q 577 870 589 855 q 585 784 582 829 q 588 693 588 740 l 588 -157 l 453 -157 l 453 693 q 457 785 453 740 q 465 871 460 830 q 439 839 453 856 q 406 803 424 822 l 235 633 q 204 615 220 618 q 172 628 188 613 l 118 680 l 522 1083 l 923 681 z "},"↓":{"ha":1042,"x_min":119,"x_max":924,"o":"m 924 163 l 520 -240 l 119 162 l 172 214 q 204 227 188 230 q 235 209 220 224 l 405 40 q 438 5 423 22 q 465 -27 453 -12 q 456 59 459 14 q 453 150 453 103 l 453 1000 l 588 1000 l 588 150 q 585 58 588 103 q 576 -27 582 13 q 603 5 588 -12 q 635 40 617 22 l 807 210 q 838 228 822 225 q 870 215 854 231 l 924 163 z "},"↗":{"ha":1042,"x_min":29,"x_max":953,"o":"m 953 915 l 953 347 l 879 349 q 848 363 857 349 q 838 397 838 376 l 838 636 q 839 684 838 663 q 843 726 840 706 q 789 659 818 693 q 727 592 760 625 l 124 -9 l 29 87 l 631 688 q 698 751 665 722 q 765 806 732 781 q 723 801 745 803 q 675 800 701 800 l 433 800 q 398 809 412 800 q 385 842 385 819 l 383 916 l 953 915 z "},"↖":{"ha":1042,"x_min":88,"x_max":1013,"o":"m 1013 87 l 917 -9 l 315 592 q 253 659 282 625 q 199 726 224 693 q 202 684 201 706 q 203 636 203 663 l 203 397 q 194 363 203 376 q 163 349 185 349 l 88 347 l 88 915 l 658 916 l 657 842 q 643 809 657 819 q 609 800 630 800 l 367 800 q 318 801 340 800 q 277 806 297 803 q 343 751 310 781 q 410 688 377 722 l 1013 87 z "},"↘":{"ha":1042,"x_min":29,"x_max":953,"o":"m 953 569 l 953 1 l 383 0 l 385 75 q 398 107 385 97 q 433 116 412 116 l 675 116 q 723 115 701 116 q 765 110 745 113 q 698 165 732 135 q 631 228 665 194 l 29 829 l 124 925 l 727 324 q 789 257 760 291 q 843 190 818 223 q 839 232 840 210 q 838 280 838 253 l 838 519 q 848 554 838 540 q 879 568 857 567 l 953 569 z "},"↙":{"ha":1042,"x_min":88,"x_max":1013,"o":"m 88 0 l 88 569 l 163 567 q 194 553 185 567 q 203 519 203 540 l 203 279 q 202 232 203 253 q 199 190 201 210 q 253 257 224 223 q 315 324 282 290 l 917 924 l 1013 829 l 410 228 q 343 165 377 194 q 276 110 309 135 q 318 114 296 113 q 367 115 340 115 l 609 115 q 643 106 630 116 q 657 74 657 97 l 658 -1 l 88 0 z "},"↔":{"ha":1389,"x_min":70,"x_max":1319,"o":"m 1319 447 l 917 45 l 865 99 q 852 131 849 115 q 870 163 856 147 l 1040 331 q 1075 364 1058 349 q 1107 391 1092 379 q 1021 383 1066 386 q 931 380 976 380 l 296 380 q 349 332 319 361 l 520 161 q 538 130 535 147 q 525 98 541 114 l 474 44 l 70 448 l 472 849 l 524 797 q 536 764 540 780 q 519 733 533 747 l 349 563 q 322 537 335 549 q 297 515 309 525 l 931 515 q 1022 512 976 515 q 1108 503 1067 509 q 1075 530 1092 515 q 1040 563 1058 545 l 869 733 q 851 765 854 748 q 864 797 848 781 l 915 851 l 1319 447 z "},"↕":{"ha":1042,"x_min":118,"x_max":924,"o":"m 521 -240 l 119 162 l 172 214 q 205 227 188 230 q 236 209 221 224 l 406 40 q 431 13 419 26 q 453 -12 443 -1 l 453 693 q 457 784 453 740 q 465 870 460 829 q 439 838 453 855 q 406 803 424 822 l 235 633 q 203 615 220 618 q 171 628 187 612 l 118 680 l 522 1083 l 923 681 l 870 629 q 838 616 854 613 q 806 634 821 619 l 637 803 q 576 870 600 839 q 585 784 582 829 q 588 693 588 739 l 588 -13 q 610 12 598 -1 q 636 40 622 25 l 808 210 q 839 228 822 225 q 871 215 855 231 l 924 163 l 521 -240 z "},"Ơ":{"ha":1188,"x_min":58,"x_max":1162,"o":"m 558 130 q 697 155 635 130 q 802 228 759 181 q 869 344 846 276 q 892 500 892 413 q 869 655 892 586 q 802 772 846 724 q 697 845 759 819 q 558 871 635 871 q 420 845 482 871 q 315 772 358 819 q 247 655 271 724 q 224 500 224 586 q 247 344 224 413 q 315 228 271 276 q 420 155 358 181 q 558 130 482 130 m 1151 1100 q 1159 1064 1156 1085 q 1162 1022 1162 1044 q 1150 943 1162 980 q 1115 876 1138 906 q 1058 825 1092 847 q 978 792 1024 803 q 1038 658 1017 731 q 1058 500 1058 584 q 1022 295 1058 389 q 920 134 986 201 q 763 28 855 66 q 558 -10 671 -10 q 355 28 447 -10 q 197 134 263 66 q 94 295 131 201 q 58 500 58 389 q 94 705 58 611 q 197 867 131 799 q 355 973 263 935 q 558 1011 447 1011 q 766 972 673 1011 q 925 862 859 933 q 993 891 969 869 q 1017 941 1017 912 q 1012 965 1017 955 q 1001 984 1007 974 q 991 1005 996 994 q 986 1033 986 1016 q 1071 1100 986 1100 l 1151 1100 z "},"Ư":{"ha":1188,"x_min":106,"x_max":1199,"o":"m 1189 1100 q 1197 1064 1194 1085 q 1199 1022 1199 1044 q 1181 926 1199 970 q 1128 850 1163 882 q 1040 800 1092 818 q 920 781 988 781 l 920 397 q 892 234 920 309 q 811 105 864 159 q 683 19 758 50 q 513 -12 608 -12 q 343 19 419 -12 q 215 105 268 50 q 134 234 163 159 q 106 397 106 309 l 106 1000 l 269 1000 l 269 398 q 285 289 269 338 q 333 205 302 240 q 410 151 365 170 q 513 131 456 131 q 616 151 571 131 q 693 205 662 170 q 742 289 725 240 q 758 397 758 338 l 758 1000 l 920 1000 l 920 858 q 1019 882 985 859 q 1054 941 1054 906 q 1049 965 1054 955 q 1039 984 1044 974 q 1028 1005 1033 994 q 1024 1033 1024 1016 q 1108 1100 1024 1100 l 1189 1100 z "},"ơ":{"ha":860,"x_min":52,"x_max":880,"o":"m 397 106 q 540 170 493 106 q 587 354 587 235 q 540 539 587 474 q 397 603 493 603 q 253 539 300 603 q 206 354 206 474 q 253 170 206 235 q 397 106 300 106 m 870 817 q 877 784 874 803 q 880 744 880 765 q 836 608 880 665 q 706 531 793 551 q 741 355 741 456 q 717 203 741 271 q 648 89 692 136 q 539 15 603 41 q 397 -10 476 -10 q 255 15 318 -10 q 146 89 191 41 q 76 203 101 136 q 52 355 52 271 q 76 506 52 439 q 146 621 101 574 q 255 694 191 668 q 397 719 318 719 q 556 687 486 719 q 670 594 625 655 q 729 625 708 603 q 749 674 749 646 q 744 693 749 685 q 733 711 740 702 q 722 730 727 719 q 717 756 717 740 q 736 801 717 785 q 796 817 756 817 l 870 817 z "},"ư":{"ha":897,"x_min":84,"x_max":921,"o":"m 912 817 q 918 784 916 803 q 921 744 921 765 q 906 660 921 699 q 863 592 892 621 q 790 544 833 563 q 688 524 746 526 l 688 0 l 598 0 q 560 28 568 0 l 549 94 q 502 51 526 71 q 449 18 477 32 q 390 -3 422 4 q 322 -11 358 -11 q 219 8 264 -11 q 145 63 175 28 q 99 148 115 99 q 84 258 84 198 l 84 708 l 233 708 l 233 258 q 266 147 233 186 q 367 107 299 107 q 459 130 416 107 q 539 192 501 152 l 539 708 l 688 708 l 688 591 q 765 619 738 596 q 791 674 791 642 q 786 693 791 685 q 775 711 781 702 q 764 730 769 719 q 759 756 759 740 q 778 801 759 785 q 837 817 797 817 l 912 817 z "},"₫":{"ha":852,"x_min":56,"x_max":790,"o":"m 65 -80 l 766 -80 l 766 -174 l 65 -174 l 65 -80 m 546 513 q 477 569 514 553 q 397 585 441 585 q 259 524 308 585 q 209 336 209 462 q 253 165 209 219 q 375 110 297 110 q 470 134 430 110 q 546 205 510 159 l 546 513 m 790 883 l 790 789 l 694 789 l 694 0 l 604 0 q 566 28 574 0 l 553 106 q 452 21 507 53 q 326 -10 398 -10 q 215 14 265 -10 q 129 83 165 38 q 75 191 94 128 q 56 332 56 254 q 77 481 56 413 q 139 598 99 549 q 235 674 178 647 q 363 701 292 701 q 468 680 425 701 q 546 624 511 660 l 546 789 l 379 789 l 379 883 l 546 883 l 546 1028 l 694 1028 l 694 883 l 790 883 z "},"○":{"ha":921,"x_min":79,"x_max":840,"o":"m 79 451 q 109 599 79 530 q 191 720 139 669 q 312 802 242 772 q 460 832 381 832 q 608 802 538 832 q 729 720 677 772 q 810 599 781 669 q 840 451 840 530 q 810 303 840 373 q 729 182 781 234 q 608 101 677 131 q 460 71 538 71 q 312 101 381 71 q 191 182 242 131 q 109 303 139 234 q 79 451 79 373 m 211 451 q 231 355 211 400 q 284 275 250 309 q 363 222 317 242 q 460 203 408 203 q 557 222 512 203 q 636 275 603 242 q 690 355 670 309 q 710 451 710 400 q 690 548 710 503 q 636 627 670 594 q 557 681 603 661 q 460 700 512 700 q 363 681 408 700 q 284 627 317 661 q 231 549 250 594 q 211 451 211 503 z "},"◌":{"ha":921,"x_min":82,"x_max":840,"o":"m 416 785 q 429 817 416 803 q 460 830 442 830 q 492 817 479 830 q 506 785 506 803 q 492 753 506 767 q 460 740 479 740 q 429 753 442 740 q 416 785 416 767 m 543 760 q 556 792 543 778 q 588 805 569 805 q 619 792 606 805 q 633 760 633 778 q 619 728 633 742 q 588 715 606 715 q 556 728 569 715 q 543 760 543 742 m 651 689 q 665 720 651 707 q 696 733 678 733 q 728 720 715 733 q 741 689 741 707 q 728 657 741 670 q 696 644 715 644 q 665 657 678 644 q 651 689 651 670 m 722 581 q 735 612 722 599 q 767 625 748 625 q 798 612 785 625 q 811 581 811 599 q 798 549 811 563 q 767 535 785 535 q 735 549 748 535 q 722 581 722 563 m 751 451 q 764 483 751 469 q 796 496 777 496 q 827 483 814 496 q 840 451 840 469 q 827 419 840 433 q 796 406 814 406 q 764 419 777 406 q 751 451 751 433 m 287 760 q 300 792 287 778 q 331 805 313 805 q 363 792 349 805 q 376 760 376 778 q 363 728 376 742 q 331 715 349 715 q 300 728 313 715 q 287 760 287 742 m 178 689 q 192 720 178 707 q 223 733 205 733 q 255 720 242 733 q 268 689 268 707 q 255 657 268 670 q 223 644 242 644 q 192 657 205 644 q 178 689 178 670 m 107 581 q 120 612 107 599 q 152 625 133 625 q 183 612 170 625 q 197 581 197 599 q 183 549 197 563 q 152 535 170 535 q 120 549 133 535 q 107 581 107 563 m 82 451 q 95 483 82 469 q 126 496 108 496 q 158 483 145 496 q 172 451 172 469 q 158 419 172 433 q 126 406 145 406 q 95 419 108 406 q 82 451 82 433 m 722 324 q 735 356 722 342 q 767 369 748 369 q 798 356 785 369 q 811 324 811 342 q 798 293 811 306 q 767 279 785 279 q 735 293 748 279 q 722 324 722 306 m 107 324 q 120 356 107 342 q 152 369 133 369 q 183 356 170 369 q 197 324 197 342 q 183 293 197 306 q 152 279 170 279 q 120 293 133 279 q 107 324 107 306 m 651 216 q 665 247 651 234 q 696 260 678 260 q 728 247 715 260 q 741 216 741 234 q 728 184 741 197 q 696 171 715 171 q 665 184 678 171 q 651 216 651 197 m 178 216 q 192 247 178 234 q 223 260 205 260 q 255 247 242 260 q 268 216 268 234 q 255 184 268 197 q 223 171 242 171 q 192 184 205 171 q 178 216 178 197 m 543 145 q 556 177 543 164 q 588 190 569 190 q 619 177 606 190 q 633 145 633 164 q 619 114 633 127 q 588 100 606 100 q 556 114 569 100 q 543 145 543 127 m 287 145 q 300 177 287 164 q 331 190 313 190 q 363 177 349 190 q 376 145 376 164 q 363 114 376 127 q 331 100 349 100 q 300 114 313 100 q 287 145 287 127 m 416 116 q 429 148 416 135 q 460 161 442 161 q 492 148 479 161 q 506 116 506 135 q 492 84 506 98 q 460 71 479 71 q 429 84 442 71 q 416 116 416 98 z "},"͏":{"ha":0,"x_min":0,"x_max":0,"o":""},"᷂":{"ha":0,"x_min":-99,"x_max":110,"o":"m -99 -60 q -90 -51 -99 -56 q -66 -41 -80 -46 q -37 -32 -52 -35 q -12 -28 -23 -28 q 3 -31 -4 -28 q 17 -38 10 -34 q 33 -47 24 -42 q 56 -57 42 -52 q 94 -78 79 -65 q 110 -111 110 -91 q 95 -144 110 -131 q 61 -164 80 -156 q 28 -175 43 -171 q 13 -184 13 -180 q 25 -191 13 -188 q 51 -200 37 -194 q 76 -217 65 -206 q 88 -247 88 -227 q 77 -276 88 -266 q 51 -292 65 -286 q 25 -304 37 -299 q 14 -318 14 -309 q 40 -339 14 -332 q 41 -343 41 -340 q 40 -347 41 -344 q 38 -349 39 -349 q -8 -333 9 -345 q -26 -301 -26 -321 q -15 -277 -26 -286 q 7 -263 -5 -268 q 30 -255 19 -258 q 40 -248 40 -251 q 26 -240 40 -244 q -5 -231 12 -237 q -36 -213 -22 -224 q -51 -183 -51 -202 q -36 -151 -51 -163 q -5 -131 -22 -139 q 26 -119 12 -124 q 40 -109 40 -115 q 20 -99 40 -99 q 8 -100 13 -99 q 1 -104 4 -102 q -6 -108 -2 -106 q -19 -108 -10 -109 q -44 -102 -30 -108 q -70 -90 -58 -97 q -91 -75 -83 -83 q -99 -60 -99 -67 z "},"Ɓ":{"ha":1124,"x_min":27,"x_max":1060,"o":"m 700 128 q 793 141 755 128 q 855 176 831 154 q 890 229 879 199 q 901 294 901 259 q 852 405 901 365 q 700 446 804 446 l 499 446 l 499 128 l 700 128 m 499 873 l 499 560 l 661 560 q 817 601 766 560 q 868 717 868 641 q 820 836 868 799 q 669 873 772 873 l 499 873 m 669 1000 q 833 982 765 1000 q 945 929 901 963 q 1009 846 989 895 q 1030 736 1030 797 q 1019 668 1030 701 q 986 606 1008 635 q 929 554 963 577 q 849 516 895 531 q 1060 290 1060 471 q 1037 173 1060 226 q 967 82 1013 120 q 855 22 922 43 q 703 0 788 0 l 337 0 l 337 881 l 322 881 q 201 848 238 881 q 165 756 165 816 q 168 722 165 738 q 174 697 171 706 q 174 666 178 681 q 147 647 169 652 l 53 625 q 34 690 41 659 q 27 758 27 720 q 47 857 27 813 q 103 934 66 902 q 196 983 141 966 q 322 1000 251 1000 l 669 1000 z "},"Ƅ":{"ha":957,"x_min":28,"x_max":924,"o":"m 557 128 q 655 147 615 128 q 719 193 694 165 q 754 258 744 222 q 765 328 765 294 q 753 398 765 364 q 716 457 741 431 q 652 499 691 483 q 557 515 613 515 l 351 515 l 351 128 l 557 128 m 549 644 q 714 618 644 644 q 832 549 785 592 q 901 447 878 505 q 924 325 924 390 q 901 197 924 256 q 831 94 877 138 q 717 25 785 50 q 560 0 649 0 l 189 0 l 189 632 l 28 738 l 232 1000 l 351 1000 l 351 644 l 549 644 z "},"Ɔ":{"ha":928,"x_min":28,"x_max":869,"o":"m 115 223 q 143 210 129 223 q 192 173 167 188 q 244 148 217 158 q 305 133 272 138 q 380 128 338 128 q 507 153 448 128 q 610 226 566 178 q 678 343 653 274 q 703 500 703 412 q 680 656 703 588 q 613 773 656 725 q 510 846 569 821 q 378 871 450 871 q 275 858 317 871 q 207 830 234 845 q 161 801 179 814 q 130 788 144 788 q 109 794 117 788 q 96 807 101 799 l 42 883 q 186 976 103 941 q 378 1011 269 1011 q 577 974 487 1011 q 733 868 668 936 q 834 707 798 801 q 869 500 869 613 q 835 294 869 388 q 739 132 801 200 q 588 27 676 65 q 390 -11 499 -11 q 177 29 266 -11 q 28 142 89 69 l 92 213 q 115 223 102 223 z "},"Ƈ":{"ha":929,"x_min":60,"x_max":1109,"o":"m 901 142 q 752 29 840 69 q 540 -11 664 -11 q 341 27 430 -11 q 190 132 253 65 q 94 294 128 200 q 60 500 60 388 q 96 707 60 613 q 197 868 132 801 q 352 974 262 936 q 552 1011 443 1011 q 660 1001 610 1011 q 754 972 710 990 l 754 992 q 765 1078 754 1037 q 801 1152 776 1120 q 866 1204 826 1185 q 967 1223 907 1223 q 1008 1221 990 1223 q 1043 1216 1026 1219 q 1076 1208 1060 1213 q 1109 1197 1092 1203 l 1088 1113 q 1068 1086 1082 1090 q 1038 1085 1053 1082 q 1012 1091 1026 1089 q 983 1092 997 1092 q 910 1057 933 1092 q 888 955 888 1022 l 888 883 l 833 807 q 820 794 828 799 q 800 788 813 788 q 768 801 785 788 q 723 830 751 814 q 654 858 695 845 q 551 871 613 871 q 419 846 479 871 q 317 773 360 821 q 250 656 274 725 q 226 500 226 588 q 251 343 226 412 q 320 226 276 274 q 423 153 364 178 q 550 128 482 128 q 624 133 591 128 q 685 148 657 138 q 738 173 713 158 q 787 210 763 188 q 814 223 801 223 q 838 213 828 223 l 901 142 z "},"Ɗ":{"ha":1274,"x_min":27,"x_max":1215,"o":"m 715 131 q 853 156 792 131 q 959 229 915 181 q 1025 345 1002 276 q 1049 500 1049 413 q 1025 655 1049 586 q 959 771 1002 724 q 853 843 915 818 q 715 869 792 869 l 499 869 l 499 131 l 715 131 m 715 1000 q 919 964 827 1000 q 1077 861 1011 927 q 1178 703 1142 795 q 1215 500 1215 611 q 1178 297 1215 389 q 1077 139 1142 205 q 919 36 1011 73 q 715 0 827 0 l 337 0 l 337 881 l 322 881 q 201 848 238 881 q 165 756 165 816 q 168 722 165 738 q 174 697 171 706 q 174 666 178 681 q 147 647 169 652 l 53 625 q 34 690 41 659 q 27 758 27 720 q 47 857 27 813 q 103 934 66 902 q 196 983 141 966 q 322 1000 251 1000 l 715 1000 z "},"Ƌ":{"ha":868,"x_min":51,"x_max":749,"o":"m 588 128 l 588 451 l 410 451 q 317 440 355 451 q 256 408 279 428 q 222 358 232 388 q 211 290 211 328 q 222 226 211 256 q 256 175 232 197 q 317 141 279 153 q 410 128 355 128 l 588 128 m 749 1000 l 749 0 l 410 0 q 258 22 324 0 q 145 83 191 43 q 75 180 99 124 q 51 307 51 237 q 71 415 51 365 q 135 501 92 465 q 247 558 179 538 q 410 579 315 579 l 588 579 l 588 873 l 86 873 l 86 1000 l 749 1000 z "},"Ǝ":{"ha":797,"x_min":53,"x_max":678,"o":"m 678 0 l 54 0 l 53 131 l 515 131 l 515 440 l 147 440 l 147 567 l 515 567 l 515 869 l 54 869 l 54 1000 l 678 1000 l 678 0 z "},"Ə":{"ha":1010,"x_min":55,"x_max":950,"o":"m 212 406 q 230 292 212 343 q 283 203 249 240 q 368 146 318 167 q 479 126 417 126 q 596 145 544 126 q 685 202 648 165 q 747 290 723 238 q 778 406 770 342 l 212 406 m 68 856 q 155 931 108 900 q 253 980 201 961 q 359 1007 305 999 q 468 1015 414 1015 q 659 980 571 1015 q 812 878 747 945 q 913 711 876 810 q 950 482 950 611 q 917 289 950 378 q 824 133 885 199 q 676 28 763 66 q 478 -10 588 -10 q 309 19 387 -10 q 175 107 231 49 q 86 247 118 164 q 55 438 55 331 q 57 477 55 462 q 65 502 59 493 q 80 515 70 512 q 103 519 89 519 l 783 519 q 754 672 778 606 q 686 782 729 738 q 584 849 644 826 q 450 871 525 871 q 340 856 386 871 q 260 823 294 841 q 201 791 226 806 q 156 776 176 776 q 117 794 130 776 l 68 856 z "},"Ɛ":{"ha":824,"x_min":64,"x_max":795,"o":"m 795 147 q 718 73 760 103 q 629 25 676 43 q 529 -2 581 6 q 422 -10 477 -10 q 290 9 354 -10 q 175 67 225 28 q 94 162 125 106 q 64 294 64 219 q 77 374 64 336 q 115 444 90 412 q 174 501 140 476 q 251 543 208 526 q 173 579 205 557 q 122 627 142 601 q 93 683 102 653 q 85 744 85 713 q 110 845 85 797 q 182 931 135 894 q 298 990 229 968 q 453 1012 366 1012 q 640 981 562 1012 q 773 900 717 951 l 737 836 q 716 814 726 818 q 696 809 705 809 q 665 820 683 809 q 620 843 648 831 q 551 866 592 856 q 449 877 510 877 q 363 866 399 877 q 303 835 326 854 q 268 790 279 815 q 256 735 256 764 q 270 675 256 701 q 312 631 285 649 q 377 604 339 613 q 464 594 416 594 l 628 594 l 628 477 l 450 477 q 352 462 394 477 q 283 423 310 447 q 243 369 256 399 q 230 308 230 339 q 245 237 230 270 q 291 180 261 204 q 364 142 320 156 q 464 128 408 128 q 551 138 515 128 q 614 162 588 148 q 656 191 640 176 q 685 215 673 206 q 698 224 691 221 q 713 228 705 228 q 735 217 725 228 l 795 147 z "},"Ƒ":{"ha":785,"x_min":-103,"x_max":742,"o":"m 282 869 l 282 549 l 673 549 l 673 417 l 282 417 l 282 17 q 268 -92 282 -42 q 225 -176 254 -141 q 151 -232 196 -212 q 45 -251 106 -251 q 1 -250 21 -251 q -36 -244 -19 -248 q -70 -236 -53 -241 q -103 -225 -86 -231 l -82 -141 q -74 -123 -79 -129 q -61 -114 -68 -117 q -47 -111 -55 -111 q -32 -113 -40 -112 q 23 -121 -7 -121 q 96 -86 73 -121 q 119 17 119 -51 l 119 1000 l 742 1000 l 742 869 l 282 869 z "},"Ɠ":{"ha":1016,"x_min":58,"x_max":1155,"o":"m 933 883 l 887 808 q 858 787 876 791 q 821 795 841 783 q 778 820 801 807 q 726 845 756 833 q 659 864 697 856 q 569 871 621 871 q 426 845 490 871 q 317 770 363 819 q 248 653 272 722 q 224 500 224 585 q 249 340 224 410 q 321 220 275 269 q 430 146 367 172 q 569 120 494 120 q 635 124 605 120 q 693 133 666 127 q 743 149 719 140 q 791 170 767 158 l 791 369 l 651 369 q 626 377 635 369 q 617 400 617 386 l 617 492 l 938 492 l 938 97 q 859 49 900 69 q 772 16 818 29 q 672 -5 725 2 q 557 -11 619 -11 q 357 27 448 -11 q 199 132 265 65 q 95 294 133 200 q 58 500 58 388 q 94 707 58 613 q 198 869 131 801 q 360 974 265 937 q 574 1011 456 1011 q 697 1000 642 1011 q 800 969 753 989 l 800 992 q 811 1078 800 1037 q 847 1152 822 1120 q 912 1204 872 1185 q 1013 1223 953 1223 q 1054 1221 1035 1223 q 1089 1216 1072 1219 q 1122 1208 1106 1213 q 1155 1197 1138 1203 l 1134 1113 q 1114 1086 1128 1090 q 1084 1085 1099 1082 q 1058 1091 1072 1089 q 1029 1092 1043 1092 q 956 1057 979 1092 q 933 955 933 1022 l 933 883 z "},"Ɣ":{"ha":947,"x_min":-26,"x_max":973,"o":"m 629 124 q 606 147 615 134 l 471 334 q 457 300 465 317 q 437 269 449 284 l 345 141 q 324 124 338 131 l 629 124 m 572 417 l 872 0 l 74 0 l 380 426 l -26 1001 l 131 1001 q 156 995 148 1001 q 173 976 164 989 l 482 525 l 782 976 q 798 994 790 988 q 818 1000 806 1000 l 973 1000 l 572 417 z "},"Ɩ":{"ha":458,"x_min":114,"x_max":437,"o":"m 114 1001 l 277 1001 l 277 221 q 299 141 277 167 q 372 115 322 115 l 437 115 l 437 62 q 427 28 437 42 q 399 7 417 15 q 359 -5 382 -1 q 310 -8 335 -8 q 225 8 262 -8 q 164 54 189 25 q 126 124 139 83 q 114 213 114 165 l 114 1001 z "},"Ƙ":{"ha":969,"x_min":119,"x_max":960,"o":"m 281 572 l 328 572 q 373 579 354 572 q 406 608 391 586 l 581 873 q 688 979 626 948 q 836 1010 751 1010 q 909 1003 881 1010 q 960 988 938 997 l 945 905 q 937 887 942 893 q 926 878 932 881 q 912 875 919 876 q 897 876 904 875 q 873 881 888 879 q 844 883 858 883 q 776 867 806 883 q 726 821 747 850 l 571 590 q 540 552 557 567 q 503 528 523 538 q 544 507 526 521 q 579 469 563 492 l 944 0 l 802 0 q 776 2 787 0 q 757 8 765 4 q 743 19 749 13 q 733 33 738 25 l 426 413 q 395 440 413 431 q 344 448 377 448 l 281 448 l 281 0 l 119 0 l 119 1001 l 281 1001 l 281 572 z "},"Ɯ":{"ha":1508,"x_min":109,"x_max":1390,"o":"m 1390 1000 l 1390 2 l 1306 2 q 1254 42 1264 2 l 1237 154 q 1188 85 1215 116 q 1129 34 1161 55 q 1059 1 1097 13 q 977 -10 1022 -10 q 819 37 882 -10 q 725 167 756 85 q 669 86 702 119 q 598 31 636 53 q 516 0 559 10 q 431 -10 474 -10 q 290 15 350 -10 q 189 88 229 40 q 129 205 149 135 q 109 365 109 275 l 109 1000 l 272 1000 l 272 365 q 286 257 272 303 q 325 178 300 210 q 386 131 351 147 q 465 115 422 115 q 546 131 508 115 q 610 178 583 147 q 653 257 638 210 q 668 365 668 303 l 668 1000 l 831 1000 l 831 365 q 841 261 831 308 q 874 182 852 215 q 930 133 896 150 q 1010 115 964 115 q 1136 165 1080 115 q 1226 314 1192 214 l 1226 1000 l 1390 1000 z "},"Ɲ":{"ha":1066,"x_min":-103,"x_max":947,"o":"m 947 1000 l 947 0 l 864 0 q 832 7 845 0 q 807 28 819 13 l 258 734 q 261 694 260 714 q 262 658 262 674 l 262 -7 q 250 -115 262 -65 q 211 -199 238 -164 q 142 -255 184 -235 q 39 -274 99 -274 q -2 -273 17 -274 q -37 -268 -20 -271 q -70 -259 -54 -265 q -103 -248 -86 -254 l -82 -164 q -74 -147 -79 -153 q -61 -137 -68 -140 q -47 -135 -55 -135 q -32 -137 -40 -135 q -6 -142 -20 -140 q 23 -144 9 -144 q 96 -109 73 -144 q 119 -7 119 -74 l 119 1000 l 203 1000 q 221 999 214 1000 q 235 995 228 998 q 247 987 241 992 q 258 973 252 981 l 808 267 q 805 309 806 288 q 804 348 804 330 l 804 1000 l 947 1000 z "},"Ɵ":{"ha":1117,"x_min":58,"x_max":1058,"o":"m 226 447 q 259 314 233 372 q 328 214 285 255 q 430 151 372 173 q 558 130 488 130 q 687 151 629 130 q 788 214 745 173 q 857 314 831 255 q 890 447 883 372 l 226 447 m 888 569 q 852 696 879 640 q 783 791 826 752 q 684 850 741 830 q 558 871 627 871 q 433 850 490 871 q 334 791 376 830 q 264 696 291 752 q 228 569 237 640 l 888 569 m 558 1011 q 763 973 671 1011 q 920 867 855 935 q 1022 705 986 799 q 1058 500 1058 611 q 1022 295 1058 389 q 920 134 986 201 q 763 28 855 66 q 558 -10 671 -10 q 355 28 447 -10 q 197 134 263 66 q 94 295 131 201 q 58 500 58 389 q 94 705 58 611 q 197 867 131 799 q 355 973 263 935 q 558 1011 447 1011 z "},"Ƣ":{"ha":1410,"x_min":60,"x_max":1297,"o":"m 526 126 q 650 152 594 126 q 744 226 705 178 q 804 344 783 274 q 825 500 825 413 q 804 656 825 586 q 744 774 783 726 q 650 849 705 823 q 526 876 594 876 q 401 849 457 876 q 307 774 346 823 q 247 656 268 726 q 226 500 226 586 q 247 344 226 413 q 307 226 268 274 q 401 152 346 178 q 526 126 457 126 m 1134 751 q 1127 801 1134 778 q 1108 841 1121 824 q 1075 867 1095 858 q 1028 877 1056 877 q 962 862 994 877 q 901 822 930 847 q 968 676 944 757 q 991 500 991 594 q 959 295 991 389 q 866 134 926 201 q 719 28 806 66 q 526 -10 633 -10 q 332 28 418 -10 q 185 134 245 66 q 92 295 124 201 q 60 500 60 389 q 92 705 60 611 q 185 867 124 799 q 332 973 245 935 q 526 1011 418 1011 q 694 983 619 1011 q 829 903 770 956 q 934 981 877 952 q 1063 1010 991 1010 q 1165 992 1121 1010 q 1238 940 1208 974 q 1282 858 1267 906 q 1297 751 1297 810 l 1297 -240 l 1134 -240 l 1134 751 z "},"Ƥ":{"ha":1065,"x_min":27,"x_max":1028,"o":"m 648 490 q 743 504 702 490 q 811 543 784 518 q 853 605 839 569 q 867 685 867 641 q 853 764 867 729 q 813 823 840 799 q 744 860 785 847 q 648 873 703 873 l 499 873 l 499 490 l 648 490 m 648 1000 q 817 977 746 1000 q 936 913 889 954 q 1006 814 983 872 q 1028 685 1028 756 q 1004 555 1028 614 q 932 452 980 495 q 813 386 884 410 q 648 362 742 362 l 499 362 l 499 0 l 337 0 l 337 881 l 322 881 q 201 848 238 881 q 165 756 165 816 q 168 722 165 738 q 174 697 171 706 q 174 666 178 681 q 147 647 169 652 l 53 625 q 34 690 41 659 q 27 758 27 720 q 47 857 27 813 q 103 934 66 902 q 196 983 141 966 q 322 1000 251 1000 l 648 1000 z "},"Ʀ":{"ha":842,"x_min":119,"x_max":880,"o":"m 409 374 q 506 387 465 374 q 576 425 548 401 q 617 484 603 450 q 631 558 631 517 q 577 683 631 640 q 413 726 523 726 l 281 726 l 281 374 l 409 374 m 880 -147 l 735 -147 q 672 -113 692 -147 l 439 223 q 413 248 427 240 q 372 256 399 256 l 281 256 l 281 0 l 119 0 l 119 1011 l 281 1011 l 281 853 l 413 853 q 583 833 512 853 q 700 775 654 813 q 768 686 746 738 q 790 570 790 634 q 774 473 790 518 q 729 391 758 428 q 656 327 699 354 q 558 285 613 300 q 610 235 588 267 l 880 -147 z "},"Ƨ":{"ha":752,"x_min":48,"x_max":711,"o":"m 79 907 q 203 984 131 957 q 362 1011 276 1011 q 498 988 438 1011 q 598 927 557 965 q 659 838 638 888 q 681 734 681 788 q 660 622 681 667 q 607 544 640 576 q 532 492 574 513 q 445 456 490 472 q 359 425 401 440 q 283 390 317 410 q 230 341 250 369 q 210 269 210 313 q 256 160 210 197 q 385 124 303 124 q 478 139 439 124 q 544 171 517 153 q 591 204 572 189 q 626 219 610 219 q 648 213 638 219 q 664 198 658 208 l 711 120 q 647 66 683 90 q 569 25 610 42 q 482 -2 528 8 q 389 -11 437 -11 q 244 11 308 -11 q 137 72 181 33 q 71 166 94 111 q 48 288 48 221 q 68 392 48 349 q 122 466 88 435 q 197 518 155 497 q 284 556 240 539 q 371 589 328 573 q 447 625 413 605 q 500 672 480 644 q 520 738 520 699 q 510 793 520 767 q 480 837 500 818 q 429 866 459 856 q 360 877 399 877 q 282 866 315 877 q 226 841 249 854 q 185 816 202 827 q 156 805 169 805 q 135 811 143 805 q 119 829 127 817 l 79 907 z "},"Ƭ":{"ha":939,"x_min":28,"x_max":919,"o":"m 919 865 l 607 865 l 607 0 l 445 0 l 445 865 l 324 865 q 249 858 279 865 q 200 838 219 851 q 174 803 182 824 q 166 754 166 782 q 169 722 166 738 q 176 697 172 706 q 175 666 179 681 q 149 647 172 652 l 55 625 q 35 690 42 659 q 28 758 28 720 q 48 857 28 813 q 105 934 67 902 q 198 983 143 966 q 324 1000 253 1000 l 919 1000 l 919 865 z "},"Ʈ":{"ha":827,"x_min":21,"x_max":807,"o":"m 495 -26 q 520 -126 495 -90 q 600 -162 545 -162 q 638 -158 622 -162 q 663 -153 653 -153 q 681 -159 672 -153 q 696 -183 691 -165 l 712 -248 q 649 -268 680 -262 q 582 -274 619 -274 q 467 -255 515 -274 q 390 -200 420 -235 q 347 -116 360 -165 q 333 -9 333 -67 l 333 865 l 21 865 l 21 1000 l 807 1000 l 807 865 l 495 865 l 495 -26 z "},"Ʊ":{"ha":1128,"x_min":65,"x_max":1063,"o":"m 564 -11 q 373 23 462 -11 q 219 118 285 57 q 115 265 153 180 q 77 451 77 350 q 98 594 77 527 q 158 717 119 662 q 249 813 196 772 q 365 875 301 853 q 303 867 334 870 q 244 865 273 865 l 65 865 l 65 948 q 80 985 65 971 q 120 1000 95 1000 l 485 1000 l 485 814 q 388 773 433 805 q 310 694 343 742 q 257 584 276 646 q 238 453 238 523 q 265 311 238 372 q 335 210 291 250 q 439 149 380 169 q 564 129 498 129 q 689 149 629 129 q 792 210 748 169 q 863 311 837 250 q 890 453 890 372 q 870 584 890 523 q 818 694 851 646 q 740 773 785 742 q 642 814 694 805 l 642 1000 l 1008 1000 q 1048 985 1033 1000 q 1063 948 1063 971 l 1063 865 l 884 865 q 824 867 855 865 q 763 874 794 870 q 878 812 826 852 q 969 717 931 772 q 1029 594 1008 662 q 1051 451 1051 527 q 1013 265 1051 350 q 909 118 975 180 q 755 23 843 57 q 564 -11 666 -11 z "},"Ʋ":{"ha":1014,"x_min":110,"x_max":954,"o":"m 571 985 q 635 1005 605 998 q 704 1012 666 1012 q 893 932 833 1012 q 954 702 954 851 q 932 513 954 604 q 872 342 910 422 q 780 198 833 263 q 664 86 726 133 q 530 14 601 40 q 388 -12 460 -12 q 275 8 326 -12 q 187 69 224 28 q 131 173 151 110 q 110 324 110 237 l 110 1000 l 272 1000 l 272 324 q 282 234 272 272 q 310 173 292 197 q 353 138 328 149 q 412 126 379 126 q 501 145 456 126 q 588 201 546 165 q 668 288 631 237 q 733 405 705 340 q 776 547 760 470 q 792 711 792 624 q 789 777 792 746 q 774 831 785 808 q 744 867 764 853 q 694 881 725 881 q 668 879 682 881 q 642 874 653 877 q 626 872 634 872 q 612 874 619 872 q 600 883 605 876 q 592 901 594 889 l 571 985 l 571 985 z "},"Ƴ":{"ha":1013,"x_min":-5,"x_max":1003,"o":"m 638 856 q 687 927 662 898 q 741 975 712 957 q 802 1002 769 994 q 872 1011 834 1011 q 940 1004 911 1011 q 1003 984 969 997 l 982 905 q 962 878 976 882 q 933 878 948 874 q 908 884 923 881 q 878 887 894 887 q 820 869 844 887 q 776 818 796 852 l 522 392 l 522 0 l 360 0 l 360 392 l -5 1000 l 138 1000 q 171 990 158 1000 q 192 963 184 979 l 397 605 q 422 554 411 578 q 442 506 433 530 q 461 555 450 531 q 488 605 473 578 l 638 856 z "},"Ƶ":{"ha":843,"x_min":35,"x_max":800,"o":"m 800 940 q 783 888 800 911 l 561 574 l 774 574 l 774 452 l 474 452 l 247 131 l 790 131 l 790 0 l 35 0 l 35 64 q 50 110 35 89 l 292 452 l 83 452 l 83 574 l 379 574 l 588 869 l 64 869 l 64 1000 l 800 1000 l 800 940 z "},"Ʒ":{"ha":819,"x_min":29,"x_max":760,"o":"m 438 621 q 585 593 524 617 q 685 533 647 570 q 742 447 724 496 q 760 341 760 397 q 728 194 760 259 q 642 83 696 128 q 516 14 588 38 q 367 -10 444 -10 q 178 30 265 -10 q 29 147 90 70 l 92 219 q 108 230 101 228 q 120 231 115 231 q 136 228 128 231 q 158 213 144 225 q 187 186 169 201 q 231 158 205 172 q 290 136 256 145 q 365 128 323 128 q 464 144 422 128 q 536 190 507 161 q 580 255 565 218 q 594 334 594 292 q 582 401 594 370 q 541 455 569 433 q 468 490 513 477 q 357 503 422 503 l 232 503 l 232 572 q 237 599 232 585 q 256 625 242 613 l 506 869 l 62 869 l 62 1000 l 732 1000 l 732 940 q 727 911 732 926 q 707 880 723 896 l 438 621 z "},"Ƹ":{"ha":819,"x_min":58,"x_max":790,"o":"m 790 147 q 641 30 728 70 q 452 -10 553 -10 q 302 14 374 -10 q 177 83 231 38 q 91 194 123 128 q 58 341 58 259 q 76 446 58 397 q 133 533 94 495 q 233 593 172 570 q 381 621 294 617 l 112 880 q 92 911 96 896 q 88 940 88 926 l 88 1000 l 758 1000 l 758 869 l 313 869 l 564 625 q 582 599 577 613 q 587 572 587 585 l 587 503 l 463 503 q 351 490 397 503 q 278 455 306 477 q 237 401 249 433 q 224 334 224 370 q 239 255 224 292 q 283 190 253 218 q 355 144 312 161 q 453 128 397 128 q 530 136 496 128 q 589 158 563 145 q 632 186 614 172 q 661 213 650 201 q 683 228 675 225 q 699 231 690 231 q 711 230 704 231 q 726 219 719 228 l 790 147 z "},"Ƽ":{"ha":804,"x_min":35,"x_max":748,"o":"m 720 935 q 700 883 720 903 q 633 863 680 863 l 358 863 l 288 637 q 386 645 340 645 q 545 622 478 645 q 658 557 613 599 q 726 458 703 515 q 748 334 748 401 q 717 190 748 253 q 634 81 685 126 q 518 13 583 36 q 383 -11 452 -11 q 180 30 265 -11 q 35 147 96 70 l 92 211 q 106 224 99 221 q 119 227 113 227 q 133 224 126 227 q 146 215 140 220 q 180 187 160 202 q 226 159 199 172 q 287 136 252 145 q 367 127 322 127 q 468 144 426 127 q 538 191 510 162 q 577 257 565 219 q 590 334 590 294 q 574 411 590 378 q 530 466 558 444 q 460 500 501 488 q 369 511 419 511 q 282 505 326 511 q 198 485 238 498 l 105 512 l 216 874 q 193 873 204 874 q 170 873 182 873 l 131 873 q 102 877 114 873 q 83 889 90 882 q 73 905 76 897 q 69 922 69 914 l 69 1000 l 720 1000 l 720 935 z "},"Ǥ":{"ha":1047,"x_min":58,"x_max":1046,"o":"m 1046 232 l 938 232 l 938 97 q 860 49 901 69 q 772 16 819 29 q 673 -5 726 2 q 558 -11 619 -11 q 357 27 449 -11 q 199 132 265 65 q 95 294 133 200 q 58 500 58 388 q 95 707 58 613 q 198 869 131 801 q 361 974 265 937 q 575 1011 456 1011 q 687 1002 635 1011 q 783 976 739 992 q 865 935 828 959 q 933 883 902 912 l 888 808 q 859 787 876 791 q 821 795 842 783 q 778 820 801 807 q 727 845 756 833 q 659 864 698 856 q 569 871 621 871 q 426 845 490 871 q 318 770 363 819 q 249 653 273 722 q 224 500 224 585 q 250 340 224 410 q 322 220 276 269 q 431 146 367 172 q 569 120 494 120 q 636 124 606 120 q 693 134 666 127 q 744 149 720 140 q 792 170 768 158 l 792 233 l 650 233 q 625 241 634 233 q 615 263 615 249 l 615 344 l 792 344 l 792 419 l 650 419 q 625 428 634 419 q 615 451 615 437 l 615 534 l 938 534 l 938 344 l 1046 344 l 1046 232 z "},"Ƕ":{"ha":1476,"x_min":119,"x_max":1430,"o":"m 1101 702 q 1162 716 1131 712 q 1228 719 1194 719 q 1327 699 1288 719 q 1389 644 1366 678 q 1421 565 1412 610 q 1430 473 1430 521 q 1399 261 1430 352 q 1317 110 1368 171 q 1200 20 1266 50 q 1065 -10 1135 -10 q 957 6 1008 -10 q 867 58 906 22 q 806 152 828 94 q 784 294 784 210 l 784 445 l 282 445 l 282 0 l 119 0 l 119 1000 l 282 1000 l 282 563 l 784 563 l 784 1000 l 947 1000 l 946 294 q 978 155 946 199 q 1069 111 1010 111 q 1150 132 1112 111 q 1216 197 1188 153 q 1261 307 1244 240 q 1277 465 1277 374 q 1257 561 1277 528 q 1188 595 1238 595 q 1163 592 1174 595 q 1144 590 1151 590 q 1115 618 1119 590 l 1101 702 z "}}}
